Kaisei-Shared-Bold.ufo
<glyph name="exclam" format="2">
  <advance height="1000" width="400"/>
  <unicode hex="0021"/>
  <note>
cid00002
</note>
  <outline>
    <contour>
      <point x="278" y="50" type="curve" smooth="yes"/>
      <point x="278" y="92"/>
      <point x="241" y="124"/>
      <point x="200" y="124" type="curve" smooth="yes"/>
      <point x="159" y="124"/>
      <point x="122" y="92"/>
      <point x="122" y="50" type="curve" smooth="yes"/>
      <point x="122" y="8"/>
      <point x="159" y="-25"/>
      <point x="200" y="-25" type="curve" smooth="yes"/>
      <point x="241" y="-25"/>
      <point x="278" y="8"/>
    </contour>
    <contour>
      <point x="281" y="690" type="curve" smooth="yes"/>
      <point x="281" y="728"/>
      <point x="234" y="755"/>
      <point x="200" y="755" type="curve" smooth="yes"/>
      <point x="164" y="755"/>
      <point x="120" y="730"/>
      <point x="120" y="690" type="curve" smooth="yes"/>
      <point x="120" y="663"/>
      <point x="126" y="637"/>
      <point x="130" y="610" type="curve" smooth="yes"/>
      <point x="152" y="470"/>
      <point x="171" y="327"/>
      <point x="182" y="185" type="curve"/>
      <point x="217" y="185" type="line"/>
      <point x="235" y="327"/>
      <point x="253" y="469"/>
      <point x="272" y="610" type="curve" smooth="yes"/>
      <point x="275" y="637"/>
      <point x="281" y="663"/>
    </contour>
  </outline>
</glyph>
<glyph name="quotedbl" format="2">
  <advance height="1000" width="390"/>
  <unicode hex="0022"/>
  <note>
cid00003
</note>
  <outline>
    <contour>
      <point x="169" y="736" type="curve" smooth="yes"/>
      <point x="169" y="761"/>
      <point x="146" y="781"/>
      <point x="121" y="781" type="curve" smooth="yes"/>
      <point x="93" y="781"/>
      <point x="73" y="765"/>
      <point x="73" y="736" type="curve" smooth="yes"/>
      <point x="73" y="694"/>
      <point x="80" y="650"/>
      <point x="86" y="608" type="curve" smooth="yes"/>
      <point x="90" y="575"/>
      <point x="94" y="541"/>
      <point x="101" y="508" type="curve" smooth="yes"/>
      <point x="103" y="497"/>
      <point x="107" y="483"/>
      <point x="121" y="483" type="curve" smooth="yes"/>
      <point x="130" y="483"/>
      <point x="140" y="501"/>
      <point x="141" y="508" type="curve"/>
      <point x="148" y="532"/>
      <point x="151" y="571"/>
      <point x="155" y="596" type="curve" smooth="yes"/>
      <point x="161" y="642"/>
      <point x="169" y="690"/>
    </contour>
    <contour>
      <point x="317" y="736" type="curve" smooth="yes"/>
      <point x="317" y="761"/>
      <point x="294" y="781"/>
      <point x="269" y="781" type="curve" smooth="yes"/>
      <point x="241" y="781"/>
      <point x="221" y="765"/>
      <point x="221" y="736" type="curve" smooth="yes"/>
      <point x="221" y="694"/>
      <point x="228" y="650"/>
      <point x="234" y="608" type="curve" smooth="yes"/>
      <point x="238" y="575"/>
      <point x="242" y="541"/>
      <point x="249" y="508" type="curve" smooth="yes"/>
      <point x="251" y="497"/>
      <point x="255" y="483"/>
      <point x="269" y="483" type="curve" smooth="yes"/>
      <point x="282" y="483"/>
      <point x="287" y="498"/>
      <point x="289" y="508" type="curve" smooth="yes"/>
      <point x="297" y="539"/>
      <point x="300" y="573"/>
      <point x="304" y="605" type="curve" smooth="yes"/>
      <point x="310" y="648"/>
      <point x="317" y="693"/>
    </contour>
  </outline>
</glyph>
<glyph name="numbersign" format="2">
  <advance height="1000" width="780"/>
  <unicode hex="0023"/>
  <note>
cid00004
</note>
  <outline>
    <contour>
      <point x="491" y="488" type="line"/>
      <point x="461" y="323" type="line"/>
      <point x="296" y="323" type="line"/>
      <point x="326" y="488" type="line"/>
    </contour>
    <contour>
      <point x="708" y="569" type="line"/>
      <point x="564" y="569" type="line"/>
      <point x="598" y="769" type="line"/>
      <point x="540" y="769" type="line"/>
      <point x="504" y="569" type="line"/>
      <point x="341" y="569" type="line"/>
      <point x="376" y="769" type="line"/>
      <point x="317" y="769" type="line"/>
      <point x="282" y="569" type="line"/>
      <point x="130" y="569" type="line"/>
      <point x="114" y="488" type="line"/>
      <point x="268" y="488" type="line"/>
      <point x="239" y="323" type="line"/>
      <point x="88" y="323" type="line"/>
      <point x="72" y="241" type="line"/>
      <point x="225" y="241" type="line"/>
      <point x="176" y="-15" type="line"/>
      <point x="235" y="-15" type="line"/>
      <point x="282" y="241" type="line"/>
      <point x="447" y="241" type="line"/>
      <point x="401" y="-15" type="line"/>
      <point x="461" y="-15" type="line"/>
      <point x="506" y="241" type="line"/>
      <point x="650" y="241" type="line"/>
      <point x="666" y="323" type="line"/>
      <point x="520" y="323" type="line"/>
      <point x="550" y="488" type="line"/>
      <point x="692" y="488" type="line"/>
    </contour>
  </outline>
</glyph>
<glyph name="dollar" format="2">
  <advance height="1000" width="700"/>
  <unicode hex="0024"/>
  <note>
cid00005
</note>
  <outline>
    <contour>
      <point x="472" y="169" type="curve" smooth="yes"/>
      <point x="472" y="99"/>
      <point x="441" y="61"/>
      <point x="378" y="36" type="curve"/>
      <point x="378" y="301" type="line"/>
      <point x="430" y="271"/>
      <point x="472" y="234"/>
    </contour>
    <contour>
      <point x="312" y="687" type="curve"/>
      <point x="312" y="447" type="line"/>
      <point x="267" y="476"/>
      <point x="224" y="510"/>
      <point x="224" y="569" type="curve" smooth="yes"/>
      <point x="224" y="632"/>
      <point x="252" y="668"/>
    </contour>
    <contour>
      <point x="601" y="182" type="curve" smooth="yes"/>
      <point x="601" y="318"/>
      <point x="483" y="363"/>
      <point x="378" y="412" type="curve"/>
      <point x="378" y="684" type="line"/>
      <point x="423" y="665"/>
      <point x="463" y="632"/>
      <point x="477" y="583" type="curve" smooth="yes"/>
      <point x="482" y="566"/>
      <point x="484" y="547"/>
      <point x="488" y="530" type="curve"/>
      <point x="495" y="517"/>
      <point x="506" y="516"/>
      <point x="519" y="516" type="curve" smooth="yes"/>
      <point x="535" y="516"/>
      <point x="563" y="521"/>
      <point x="563" y="543" type="curve" smooth="yes"/>
      <point x="563" y="548"/>
      <point x="561" y="553"/>
      <point x="560" y="558" type="curve" smooth="yes"/>
      <point x="551" y="598"/>
      <point x="550" y="638"/>
      <point x="546" y="677" type="curve"/>
      <point x="521" y="679"/>
      <point x="498" y="682"/>
      <point x="475" y="690" type="curve" smooth="yes"/>
      <point x="443" y="703"/>
      <point x="412" y="715"/>
      <point x="378" y="718" type="curve"/>
      <point x="378" y="786" type="line"/>
      <point x="312" y="786" type="line"/>
      <point x="312" y="719" type="line"/>
      <point x="206" y="708"/>
      <point x="106" y="653"/>
      <point x="106" y="534" type="curve" smooth="yes"/>
      <point x="106" y="429"/>
      <point x="232" y="376"/>
      <point x="312" y="337" type="curve"/>
      <point x="312" y="29" type="line"/>
      <point x="244" y="39"/>
      <point x="203" y="68"/>
      <point x="182" y="135" type="curve" smooth="yes"/>
      <point x="177" y="150"/>
      <point x="175" y="167"/>
      <point x="170" y="182" type="curve" smooth="yes"/>
      <point x="162" y="206"/>
      <point x="146" y="210"/>
      <point x="122" y="210" type="curve" smooth="yes"/>
      <point x="110" y="210"/>
      <point x="99" y="205"/>
      <point x="99" y="191" type="curve" smooth="yes"/>
      <point x="99" y="140"/>
      <point x="114" y="91"/>
      <point x="121" y="41" type="curve"/>
      <point x="150" y="34"/>
      <point x="176" y="19"/>
      <point x="204" y="9" type="curve" smooth="yes"/>
      <point x="239" y="-4"/>
      <point x="275" y="-8"/>
      <point x="312" y="-10" type="curve"/>
      <point x="312" y="-82" type="line"/>
      <point x="378" y="-82" type="line"/>
      <point x="378" y="-7" type="line"/>
      <point x="489" y="5"/>
      <point x="601" y="53"/>
    </contour>
  </outline>
</glyph>
<glyph name="percent" format="2">
  <advance height="1000" width="886"/>
  <unicode hex="0025"/>
  <note>
cid00006
</note>
  <outline>
    <contour>
      <point x="307" y="537" type="curve" smooth="yes"/>
      <point x="307" y="484"/>
      <point x="309" y="376"/>
      <point x="233" y="376" type="curve" smooth="yes"/>
      <point x="169" y="376"/>
      <point x="157" y="491"/>
      <point x="157" y="537" type="curve" smooth="yes"/>
      <point x="157" y="589"/>
      <point x="158" y="709"/>
      <point x="233" y="709" type="curve" smooth="yes"/>
      <point x="308" y="709"/>
      <point x="307" y="589"/>
    </contour>
    <contour>
      <point x="727" y="186" type="curve" smooth="yes"/>
      <point x="727" y="131"/>
      <point x="728" y="23"/>
      <point x="650" y="23" type="curve" smooth="yes"/>
      <point x="588" y="23"/>
      <point x="576" y="138"/>
      <point x="576" y="183" type="curve" smooth="yes"/>
      <point x="576" y="235"/>
      <point x="575" y="355"/>
      <point x="650" y="355" type="curve" smooth="yes"/>
      <point x="727" y="355"/>
      <point x="727" y="239"/>
    </contour>
    <contour>
      <point x="417" y="537" type="curve" smooth="yes"/>
      <point x="417" y="643"/>
      <point x="344" y="740"/>
      <point x="233" y="740" type="curve" smooth="yes"/>
      <point x="131" y="740"/>
      <point x="50" y="633"/>
      <point x="50" y="537" type="curve" smooth="yes"/>
      <point x="50" y="436"/>
      <point x="129" y="343"/>
      <point x="233" y="343" type="curve" smooth="yes"/>
      <point x="332" y="343"/>
      <point x="417" y="440"/>
    </contour>
    <contour>
      <point x="775" y="716" type="line"/>
      <point x="740" y="743" type="line"/>
      <point x="113" y="7" type="line"/>
      <point x="148" y="-19" type="line"/>
    </contour>
    <contour>
      <point x="836" y="183" type="curve" smooth="yes"/>
      <point x="836" y="290"/>
      <point x="763" y="386"/>
      <point x="650" y="386" type="curve" smooth="yes"/>
      <point x="550" y="386"/>
      <point x="469" y="278"/>
      <point x="469" y="183" type="curve" smooth="yes"/>
      <point x="469" y="82"/>
      <point x="546" y="-9"/>
      <point x="650" y="-9" type="curve" smooth="yes"/>
      <point x="749" y="-9"/>
      <point x="836" y="86"/>
    </contour>
  </outline>
</glyph>
<glyph name="ampersand" format="2">
  <advance height="1000" width="758"/>
  <unicode hex="0026"/>
  <note>
cid00007
</note>
  <outline>
    <contour>
      <point x="445" y="79" type="curve"/>
      <point x="403" y="48"/>
      <point x="359" y="43"/>
      <point x="309" y="43" type="curve" smooth="yes"/>
      <point x="215" y="43"/>
      <point x="163" y="121"/>
      <point x="163" y="209" type="curve" smooth="yes"/>
      <point x="163" y="262"/>
      <point x="186" y="323"/>
      <point x="220" y="365" type="curve"/>
      <point x="257" y="266"/>
      <point x="354" y="136"/>
    </contour>
    <contour>
      <point x="391" y="637" type="curve" smooth="yes"/>
      <point x="391" y="576"/>
      <point x="333" y="514"/>
      <point x="289" y="477" type="curve"/>
      <point x="272" y="511"/>
      <point x="262" y="552"/>
      <point x="262" y="590" type="curve" smooth="yes"/>
      <point x="262" y="640"/>
      <point x="289" y="696"/>
      <point x="346" y="696" type="curve" smooth="yes"/>
      <point x="373" y="696"/>
      <point x="391" y="661"/>
    </contour>
    <contour>
      <point x="766" y="53" type="curve"/>
      <point x="747" y="45"/>
      <point x="728" y="37"/>
      <point x="707" y="37" type="curve" smooth="yes"/>
      <point x="653" y="37"/>
      <point x="591" y="68"/>
      <point x="551" y="102" type="curve"/>
      <point x="605" y="155"/>
      <point x="627" y="213"/>
      <point x="627" y="289" type="curve" smooth="yes"/>
      <point x="627" y="330"/>
      <point x="580" y="377"/>
      <point x="542" y="387" type="curve"/>
      <point x="579" y="389"/>
      <point x="616" y="393"/>
      <point x="653" y="393" type="curve" smooth="yes"/>
      <point x="660" y="393"/>
      <point x="677" y="392"/>
      <point x="684" y="394" type="curve" smooth="yes"/>
      <point x="697" y="398"/>
      <point x="698" y="401"/>
      <point x="705" y="412" type="curve" smooth="yes"/>
      <point x="710" y="421"/>
      <point x="736" y="480"/>
      <point x="736" y="488" type="curve" smooth="yes"/>
      <point x="736" y="501"/>
      <point x="728" y="507"/>
      <point x="716" y="507" type="curve" smooth="yes"/>
      <point x="706" y="507"/>
      <point x="667" y="460"/>
      <point x="655" y="450" type="curve" smooth="yes"/>
      <point x="641" y="440"/>
      <point x="626" y="433"/>
      <point x="610" y="429" type="curve" smooth="yes"/>
      <point x="569" y="419"/>
      <point x="525" y="417"/>
      <point x="483" y="417" type="curve" smooth="yes"/>
      <point x="466" y="417"/>
      <point x="463" y="396"/>
      <point x="463" y="383" type="curve" smooth="yes"/>
      <point x="463" y="377"/>
      <point x="467" y="376"/>
      <point x="472" y="376" type="curve" smooth="yes"/>
      <point x="477" y="376"/>
      <point x="483" y="377"/>
      <point x="489" y="377" type="curve" smooth="yes"/>
      <point x="521" y="377"/>
      <point x="533" y="308"/>
      <point x="533" y="283" type="curve" smooth="yes"/>
      <point x="533" y="237"/>
      <point x="528" y="184"/>
      <point x="503" y="143" type="curve"/>
      <point x="425" y="214"/>
      <point x="347" y="334"/>
      <point x="307" y="431" type="curve"/>
      <point x="322" y="443"/>
      <point x="338" y="454"/>
      <point x="355" y="463" type="curve" smooth="yes"/>
      <point x="415" y="496"/>
      <point x="499" y="546"/>
      <point x="499" y="624" type="curve" smooth="yes"/>
      <point x="499" y="696"/>
      <point x="429" y="733"/>
      <point x="365" y="733" type="curve" smooth="yes"/>
      <point x="304" y="733"/>
      <point x="242" y="713"/>
      <point x="202" y="665" type="curve" smooth="yes"/>
      <point x="177" y="633"/>
      <point x="161" y="594"/>
      <point x="161" y="554" type="curve" smooth="yes"/>
      <point x="161" y="505"/>
      <point x="174" y="458"/>
      <point x="192" y="414" type="curve"/>
      <point x="116" y="360"/>
      <point x="46" y="277"/>
      <point x="46" y="179" type="curve" smooth="yes"/>
      <point x="46" y="56"/>
      <point x="156" y="-8"/>
      <point x="268" y="-8" type="curve" smooth="yes"/>
      <point x="347" y="-8"/>
      <point x="420" y="6"/>
      <point x="486" y="52" type="curve"/>
      <point x="531" y="10"/>
      <point x="600" y="-13"/>
      <point x="661" y="-13" type="curve" smooth="yes"/>
      <point x="699" y="-13"/>
      <point x="765" y="6"/>
    </contour>
  </outline>
</glyph>
<glyph name="quotesingle" format="2">
  <advance height="1000" width="280"/>
  <unicode hex="0027"/>
  <note>
cid00008
</note>
  <outline>
    <contour>
      <point x="190" y="694" type="curve" smooth="yes"/>
      <point x="190" y="722"/>
      <point x="166" y="740"/>
      <point x="140" y="740" type="curve" smooth="yes"/>
      <point x="111" y="740"/>
      <point x="88" y="725"/>
      <point x="88" y="694" type="curve" smooth="yes"/>
      <point x="88" y="681"/>
      <point x="91" y="666"/>
      <point x="93" y="653" type="curve" smooth="yes"/>
      <point x="95" y="632"/>
      <point x="98" y="612"/>
      <point x="100" y="591" type="curve" smooth="yes"/>
      <point x="104" y="549"/>
      <point x="109" y="504"/>
      <point x="119" y="463" type="curve" smooth="yes"/>
      <point x="122" y="453"/>
      <point x="126" y="439"/>
      <point x="139" y="439" type="curve" smooth="yes"/>
      <point x="152" y="439"/>
      <point x="156" y="453"/>
      <point x="159" y="463" type="curve" smooth="yes"/>
      <point x="167" y="503"/>
      <point x="171" y="545"/>
      <point x="177" y="585" type="curve" smooth="yes"/>
      <point x="181" y="616"/>
      <point x="190" y="664"/>
    </contour>
  </outline>
</glyph>
<glyph name="parenleft" format="2">
  <advance height="1000" width="450"/>
  <unicode hex="0028"/>
  <note>
cid00009
</note>
  <outline>
    <contour>
      <point x="409" y="-114" type="curve"/>
      <point x="423" y="-86" type="line"/>
      <point x="290" y="9"/>
      <point x="252" y="218"/>
      <point x="252" y="369" type="curve" smooth="yes"/>
      <point x="252" y="506"/>
      <point x="277" y="659"/>
      <point x="355" y="774" type="curve" smooth="yes"/>
      <point x="374" y="801"/>
      <point x="396" y="827"/>
      <point x="423" y="848" type="curve"/>
      <point x="409" y="876" type="line"/>
      <point x="222" y="758"/>
      <point x="128" y="591"/>
      <point x="128" y="369" type="curve" smooth="yes"/>
      <point x="128" y="156"/>
      <point x="222" y="-9"/>
    </contour>
  </outline>
</glyph>
<glyph name="parenright" format="2">
  <advance height="1000" width="450"/>
  <unicode hex="0029"/>
  <note>
cid00010
</note>
  <outline>
    <contour>
      <point x="327" y="369" type="curve" smooth="yes"/>
      <point x="327" y="591"/>
      <point x="233" y="758"/>
      <point x="46" y="876" type="curve"/>
      <point x="32" y="848" type="line"/>
      <point x="57" y="829"/>
      <point x="78" y="804"/>
      <point x="96" y="779" type="curve" smooth="yes"/>
      <point x="177" y="663"/>
      <point x="202" y="508"/>
      <point x="202" y="369" type="curve" smooth="yes"/>
      <point x="202" y="218"/>
      <point x="164" y="8"/>
      <point x="32" y="-86" type="curve"/>
      <point x="46" y="-114" type="line"/>
      <point x="232" y="-9"/>
      <point x="327" y="156"/>
    </contour>
  </outline>
</glyph>
<glyph name="asterisk" format="2">
  <advance height="1000" width="450"/>
  <unicode hex="002A"/>
  <note>
cid00011
</note>
  <outline>
    <contour>
      <point x="396" y="534" type="curve" smooth="yes"/>
      <point x="396" y="548"/>
      <point x="387" y="561"/>
      <point x="375" y="567" type="curve" smooth="yes"/>
      <point x="361" y="576"/>
      <point x="257" y="599"/>
      <point x="232" y="606" type="curve"/>
      <point x="265" y="616"/>
      <point x="298" y="625"/>
      <point x="331" y="634" type="curve" smooth="yes"/>
      <point x="346" y="638"/>
      <point x="362" y="642"/>
      <point x="376" y="647" type="curve" smooth="yes"/>
      <point x="391" y="652"/>
      <point x="394" y="663"/>
      <point x="394" y="677" type="curve" smooth="yes"/>
      <point x="394" y="699"/>
      <point x="380" y="724"/>
      <point x="356" y="724" type="curve" smooth="yes"/>
      <point x="349" y="724"/>
      <point x="344" y="722"/>
      <point x="339" y="719" type="curve" smooth="yes"/>
      <point x="327" y="714"/>
      <point x="247" y="629"/>
      <point x="228" y="612" type="curve"/>
      <point x="235" y="639"/>
      <point x="267" y="746"/>
      <point x="267" y="761" type="curve" smooth="yes"/>
      <point x="267" y="782"/>
      <point x="244" y="795"/>
      <point x="225" y="795" type="curve" smooth="yes"/>
      <point x="205" y="795"/>
      <point x="184" y="785"/>
      <point x="184" y="761" type="curve" smooth="yes"/>
      <point x="184" y="742"/>
      <point x="215" y="642"/>
      <point x="222" y="611" type="curve"/>
      <point x="197" y="635"/>
      <point x="173" y="659"/>
      <point x="149" y="684" type="curve" smooth="yes"/>
      <point x="138" y="695"/>
      <point x="127" y="707"/>
      <point x="115" y="717" type="curve" smooth="yes"/>
      <point x="110" y="721"/>
      <point x="106" y="723"/>
      <point x="100" y="723" type="curve" smooth="yes"/>
      <point x="76" y="723"/>
      <point x="54" y="700"/>
      <point x="54" y="677" type="curve" smooth="yes"/>
      <point x="54" y="665"/>
      <point x="61" y="654"/>
      <point x="71" y="648" type="curve" smooth="yes"/>
      <point x="78" y="644"/>
      <point x="198" y="612"/>
      <point x="218" y="606" type="curve"/>
      <point x="197" y="601"/>
      <point x="85" y="573"/>
      <point x="76" y="567" type="curve" smooth="yes"/>
      <point x="64" y="560"/>
      <point x="55" y="548"/>
      <point x="55" y="534" type="curve" smooth="yes"/>
      <point x="55" y="512"/>
      <point x="73" y="490"/>
      <point x="95" y="490" type="curve" smooth="yes"/>
      <point x="103" y="490"/>
      <point x="111" y="492"/>
      <point x="117" y="496" type="curve" smooth="yes"/>
      <point x="132" y="504"/>
      <point x="203" y="582"/>
      <point x="221" y="601" type="curve"/>
      <point x="216" y="580"/>
      <point x="184" y="468"/>
      <point x="184" y="457" type="curve" smooth="yes"/>
      <point x="184" y="433"/>
      <point x="202" y="417"/>
      <point x="225" y="417" type="curve" smooth="yes"/>
      <point x="249" y="417"/>
      <point x="267" y="433"/>
      <point x="267" y="457" type="curve" smooth="yes"/>
      <point x="267" y="472"/>
      <point x="235" y="577"/>
      <point x="228" y="602" type="curve"/>
      <point x="243" y="588"/>
      <point x="326" y="500"/>
      <point x="333" y="496" type="curve" smooth="yes"/>
      <point x="340" y="493"/>
      <point x="347" y="491"/>
      <point x="355" y="491" type="curve" smooth="yes"/>
      <point x="378" y="491"/>
      <point x="396" y="512"/>
    </contour>
  </outline>
</glyph>
<glyph name="comma" format="2">
  <advance height="1000" width="350"/>
  <unicode hex="002C"/>
  <note>
cid00013
</note>
  <outline>
    <contour>
      <point x="252" y="52" type="curve" smooth="yes"/>
      <point x="252" y="103"/>
      <point x="230" y="144"/>
      <point x="174" y="144" type="curve" smooth="yes"/>
      <point x="129" y="144"/>
      <point x="100" y="114"/>
      <point x="100" y="69" type="curve" smooth="yes"/>
      <point x="100" y="37"/>
      <point x="129" y="6"/>
      <point x="161" y="6" type="curve" smooth="yes"/>
      <point x="170" y="6"/>
      <point x="178" y="8"/>
      <point x="186" y="13" type="curve"/>
      <point x="184" y="-32"/>
      <point x="163" y="-91"/>
      <point x="140" y="-130" type="curve"/>
      <point x="165" y="-138" type="line"/>
      <point x="207" y="-97"/>
      <point x="252" y="-7"/>
    </contour>
  </outline>
</glyph>
<glyph name="period" format="2">
  <advance height="1000" width="350"/>
  <unicode hex="002E"/>
  <note>
cid00015
</note>
  <outline>
    <contour>
      <point x="251" y="82" type="curve" smooth="yes"/>
      <point x="251" y="124"/>
      <point x="217" y="159"/>
      <point x="175" y="159" type="curve" smooth="yes"/>
      <point x="133" y="159"/>
      <point x="99" y="124"/>
      <point x="99" y="82" type="curve" smooth="yes"/>
      <point x="99" y="40"/>
      <point x="133" y="5"/>
      <point x="175" y="5" type="curve" smooth="yes"/>
      <point x="217" y="5"/>
      <point x="251" y="40"/>
    </contour>
  </outline>
</glyph>
<glyph name="zero" format="2">
  <advance height="1000" width="590"/>
  <unicode hex="0030"/>
  <note>
cid00017
</note>
  <outline>
    <contour>
      <point x="403" y="357" type="curve" smooth="yes"/>
      <point x="403" y="287"/>
      <point x="402" y="218"/>
      <point x="388" y="149" type="curve" smooth="yes"/>
      <point x="377" y="93"/>
      <point x="357" y="28"/>
      <point x="288" y="28" type="curve" smooth="yes"/>
      <point x="179" y="28"/>
      <point x="185" y="277"/>
      <point x="185" y="350" type="curve" smooth="yes"/>
      <point x="185" y="426"/>
      <point x="182" y="698"/>
      <point x="294" y="698" type="curve" smooth="yes"/>
      <point x="359" y="698"/>
      <point x="381" y="622"/>
      <point x="390" y="571" type="curve" smooth="yes"/>
      <point x="402" y="500"/>
      <point x="403" y="428"/>
    </contour>
    <contour>
      <point x="539" y="365" type="curve" smooth="yes"/>
      <point x="539" y="521"/>
      <point x="499" y="728"/>
      <point x="303" y="728" type="curve" smooth="yes"/>
      <point x="101" y="728"/>
      <point x="51" y="506"/>
      <point x="51" y="345" type="curve" smooth="yes"/>
      <point x="51" y="198"/>
      <point x="100" y="-3"/>
      <point x="282" y="-3" type="curve" smooth="yes"/>
      <point x="480" y="-3"/>
      <point x="539" y="202"/>
    </contour>
  </outline>
</glyph>
<glyph name="one" format="2">
  <advance height="1000" width="590"/>
  <unicode hex="0031"/>
  <note>
cid00018
</note>
  <outline>
    <contour>
      <point x="490" y="14" type="curve" smooth="yes"/>
      <point x="490" y="22"/>
      <point x="484" y="33"/>
      <point x="475" y="33" type="curve" smooth="yes"/>
      <point x="456" y="33"/>
      <point x="438" y="31"/>
      <point x="419" y="31" type="curve" smooth="yes"/>
      <point x="407" y="31"/>
      <point x="393" y="44"/>
      <point x="393" y="57" type="curve" smooth="yes"/>
      <point x="393" y="279"/>
      <point x="396" y="502"/>
      <point x="396" y="724" type="curve" smooth="yes"/>
      <point x="396" y="739"/>
      <point x="386" y="742"/>
      <point x="373" y="742" type="curve" smooth="yes"/>
      <point x="367" y="742"/>
      <point x="261" y="704"/>
      <point x="244" y="698" type="curve" smooth="yes"/>
      <point x="214" y="689"/>
      <point x="185" y="680"/>
      <point x="155" y="672" type="curve" smooth="yes"/>
      <point x="142" y="668"/>
      <point x="128" y="666"/>
      <point x="115" y="661" type="curve" smooth="yes"/>
      <point x="102" y="656"/>
      <point x="100" y="648"/>
      <point x="100" y="635" type="curve" smooth="yes"/>
      <point x="100" y="621"/>
      <point x="111" y="614"/>
      <point x="124" y="614" type="curve" smooth="yes"/>
      <point x="135" y="614"/>
      <point x="235" y="649"/>
      <point x="254" y="656" type="curve"/>
      <point x="254" y="456"/>
      <point x="252" y="256"/>
      <point x="252" y="56" type="curve" smooth="yes"/>
      <point x="252" y="31"/>
      <point x="231" y="31"/>
      <point x="212" y="31" type="curve" smooth="yes"/>
      <point x="199" y="31"/>
      <point x="186" y="33"/>
      <point x="173" y="33" type="curve" smooth="yes"/>
      <point x="164" y="33"/>
      <point x="152" y="26"/>
      <point x="152" y="15" type="curve" smooth="yes"/>
      <point x="152" y="2"/>
      <point x="157" y="-5"/>
      <point x="171" y="-5" type="curve" smooth="yes"/>
      <point x="184" y="-5"/>
      <point x="197" y="-4"/>
      <point x="211" y="-3" type="curve" smooth="yes"/>
      <point x="249" y="-1"/>
      <point x="287" y="0"/>
      <point x="325" y="0" type="curve" smooth="yes"/>
      <point x="357" y="0"/>
      <point x="389" y="0"/>
      <point x="420" y="-2" type="curve" smooth="yes"/>
      <point x="439" y="-3"/>
      <point x="457" y="-5"/>
      <point x="475" y="-5" type="curve" smooth="yes"/>
      <point x="484" y="-5"/>
      <point x="490" y="5"/>
    </contour>
  </outline>
</glyph>
<glyph name="two" format="2">
  <advance height="1000" width="590"/>
  <unicode hex="0032"/>
  <note>
cid00019
</note>
  <outline>
    <contour>
      <point x="545" y="170" type="curve" smooth="yes"/>
      <point x="545" y="179"/>
      <point x="543" y="186"/>
      <point x="533" y="186" type="curve" smooth="yes"/>
      <point x="523" y="186"/>
      <point x="519" y="179"/>
      <point x="514" y="171" type="curve" smooth="yes"/>
      <point x="498" y="146"/>
      <point x="483" y="123"/>
      <point x="458" y="106" type="curve" smooth="yes"/>
      <point x="425" y="85"/>
      <point x="388" y="78"/>
      <point x="350" y="77" type="curve" smooth="yes"/>
      <point x="273" y="75"/>
      <point x="196" y="73"/>
      <point x="119" y="73" type="curve"/>
      <point x="179" y="195"/>
      <point x="298" y="242"/>
      <point x="397" y="323" type="curve" smooth="yes"/>
      <point x="469" y="381"/>
      <point x="521" y="455"/>
      <point x="521" y="551" type="curve" smooth="yes"/>
      <point x="521" y="665"/>
      <point x="415" y="724"/>
      <point x="312" y="724" type="curve" smooth="yes"/>
      <point x="205" y="724"/>
      <point x="54" y="670"/>
      <point x="54" y="542" type="curve" smooth="yes"/>
      <point x="54" y="517"/>
      <point x="84" y="487"/>
      <point x="110" y="487" type="curve" smooth="yes"/>
      <point x="131" y="487"/>
      <point x="182" y="497"/>
      <point x="182" y="525" type="curve" smooth="yes"/>
      <point x="182" y="560"/>
      <point x="186" y="606"/>
      <point x="204" y="636" type="curve" smooth="yes"/>
      <point x="223" y="669"/>
      <point x="255" y="692"/>
      <point x="294" y="692" type="curve" smooth="yes"/>
      <point x="363" y="692"/>
      <point x="379" y="598"/>
      <point x="379" y="546" type="curve" smooth="yes"/>
      <point x="379" y="472"/>
      <point x="344" y="409"/>
      <point x="294" y="357" type="curve" smooth="yes"/>
      <point x="235" y="294"/>
      <point x="171" y="236"/>
      <point x="118" y="168" type="curve" smooth="yes"/>
      <point x="75" y="114"/>
      <point x="47" y="71"/>
      <point x="45" y="0" type="curve"/>
      <point x="115" y="3"/>
      <point x="185" y="3"/>
      <point x="255" y="3" type="curve" smooth="yes"/>
      <point x="290" y="3"/>
      <point x="326" y="4"/>
      <point x="361" y="4" type="curve" smooth="yes"/>
      <point x="400" y="4"/>
      <point x="439" y="0"/>
      <point x="479" y="0" type="curve" smooth="yes"/>
      <point x="495" y="0"/>
      <point x="503" y="1"/>
      <point x="508" y="18" type="curve" smooth="yes"/>
      <point x="514" y="34"/>
      <point x="545" y="161"/>
    </contour>
  </outline>
</glyph>
<glyph name="three" format="2">
  <advance height="1000" width="590"/>
  <unicode hex="0033"/>
  <note>
cid00020
</note>
  <outline>
    <contour>
      <point x="536" y="247" type="curve" smooth="yes"/>
      <point x="536" y="360"/>
      <point x="453" y="390"/>
      <point x="356" y="401" type="curve"/>
      <point x="435" y="423"/>
      <point x="507" y="486"/>
      <point x="507" y="574" type="curve" smooth="yes"/>
      <point x="507" y="681"/>
      <point x="402" y="732"/>
      <point x="308" y="732" type="curve" smooth="yes"/>
      <point x="227" y="732"/>
      <point x="137" y="711"/>
      <point x="88" y="640" type="curve" smooth="yes"/>
      <point x="79" y="627"/>
      <point x="65" y="599"/>
      <point x="65" y="583" type="curve" smooth="yes"/>
      <point x="65" y="551"/>
      <point x="84" y="522"/>
      <point x="119" y="522" type="curve" smooth="yes"/>
      <point x="136" y="522"/>
      <point x="178" y="533"/>
      <point x="178" y="555" type="curve" smooth="yes"/>
      <point x="178" y="622"/>
      <point x="203" y="700"/>
      <point x="283" y="700" type="curve" smooth="yes"/>
      <point x="354" y="700"/>
      <point x="370" y="615"/>
      <point x="370" y="559" type="curve" smooth="yes"/>
      <point x="370" y="496"/>
      <point x="340" y="429"/>
      <point x="274" y="411" type="curve" smooth="yes"/>
      <point x="255" y="406"/>
      <point x="233" y="406"/>
      <point x="213" y="406" type="curve" smooth="yes"/>
      <point x="200" y="406"/>
      <point x="180" y="408"/>
      <point x="180" y="389" type="curve" smooth="yes"/>
      <point x="180" y="380"/>
      <point x="187" y="368"/>
      <point x="196" y="368" type="curve" smooth="yes"/>
      <point x="202" y="368"/>
      <point x="208" y="370"/>
      <point x="214" y="371" type="curve" smooth="yes"/>
      <point x="235" y="374"/>
      <point x="258" y="377"/>
      <point x="279" y="377" type="curve" smooth="yes"/>
      <point x="359" y="377"/>
      <point x="393" y="302"/>
      <point x="393" y="232" type="curve" smooth="yes"/>
      <point x="393" y="134"/>
      <point x="356" y="24"/>
      <point x="241" y="24" type="curve" smooth="yes"/>
      <point x="181" y="24"/>
      <point x="168" y="88"/>
      <point x="168" y="136" type="curve" smooth="yes"/>
      <point x="168" y="160"/>
      <point x="133" y="166"/>
      <point x="115" y="166" type="curve" smooth="yes"/>
      <point x="90" y="166"/>
      <point x="48" y="146"/>
      <point x="48" y="118" type="curve" smooth="yes"/>
      <point x="48" y="102"/>
      <point x="54" y="86"/>
      <point x="62" y="73" type="curve" smooth="yes"/>
      <point x="99" y="10"/>
      <point x="179" y="-9"/>
      <point x="248" y="-9" type="curve" smooth="yes"/>
      <point x="309" y="-9"/>
      <point x="372" y="5"/>
      <point x="424" y="38" type="curve" smooth="yes"/>
      <point x="491" y="81"/>
      <point x="536" y="168"/>
    </contour>
  </outline>
</glyph>
<glyph name="four" format="2">
  <advance height="1000" width="590"/>
  <unicode hex="0034"/>
  <note>
cid00021
</note>
  <outline>
    <contour>
      <point x="303" y="589" type="curve"/>
      <point x="303" y="485" type="line" smooth="yes"/>
      <point x="303" y="405"/>
      <point x="303" y="325"/>
      <point x="303" y="245" type="curve"/>
      <point x="100" y="245" type="line" smooth="yes"/>
      <point x="99" y="245"/>
      <point x="96" y="245"/>
      <point x="96" y="248" type="curve" smooth="yes"/>
      <point x="96" y="253"/>
      <point x="281" y="554"/>
    </contour>
    <contour>
      <point x="568" y="311" type="curve" smooth="yes"/>
      <point x="568" y="316"/>
      <point x="565" y="321"/>
      <point x="559" y="321" type="curve" smooth="yes"/>
      <point x="551" y="321"/>
      <point x="550" y="315"/>
      <point x="547" y="309" type="curve" smooth="yes"/>
      <point x="534" y="283"/>
      <point x="514" y="245"/>
      <point x="480" y="245" type="curve" smooth="yes"/>
      <point x="437" y="245" type="line"/>
      <point x="437" y="722" type="line" smooth="yes"/>
      <point x="437" y="738"/>
      <point x="422" y="739"/>
      <point x="410" y="739" type="curve" smooth="yes"/>
      <point x="393" y="739"/>
      <point x="376" y="738"/>
      <point x="360" y="738" type="curve" smooth="yes"/>
      <point x="346" y="738"/>
      <point x="335" y="732"/>
      <point x="328" y="720" type="curve" smooth="yes"/>
      <point x="260" y="610"/>
      <point x="195" y="497"/>
      <point x="127" y="387" type="curve" smooth="yes"/>
      <point x="94" y="334"/>
      <point x="59" y="282"/>
      <point x="29" y="227" type="curve"/>
      <point x="25" y="222"/>
      <point x="23" y="217"/>
      <point x="23" y="211" type="curve" smooth="yes"/>
      <point x="23" y="201"/>
      <point x="31" y="196"/>
      <point x="41" y="196" type="curve" smooth="yes"/>
      <point x="302" y="196" type="line"/>
      <point x="302" y="154"/>
      <point x="303" y="112"/>
      <point x="303" y="70" type="curve" smooth="yes"/>
      <point x="303" y="44"/>
      <point x="296" y="33"/>
      <point x="268" y="33" type="curve" smooth="yes"/>
      <point x="257" y="33"/>
      <point x="246" y="34"/>
      <point x="235" y="34" type="curve" smooth="yes"/>
      <point x="220" y="34"/>
      <point x="208" y="33"/>
      <point x="208" y="14" type="curve" smooth="yes"/>
      <point x="208" y="3"/>
      <point x="217" y="-3"/>
      <point x="227" y="-3" type="curve" smooth="yes"/>
      <point x="244" y="-3"/>
      <point x="260" y="-2"/>
      <point x="276" y="-1" type="curve" smooth="yes"/>
      <point x="306" y="0"/>
      <point x="337" y="1"/>
      <point x="368" y="1" type="curve" smooth="yes"/>
      <point x="398" y="1"/>
      <point x="428" y="1"/>
      <point x="457" y="0" type="curve" smooth="yes"/>
      <point x="476" y="-1"/>
      <point x="495" y="-2"/>
      <point x="514" y="-2" type="curve" smooth="yes"/>
      <point x="524" y="-2"/>
      <point x="530" y="8"/>
      <point x="530" y="17" type="curve" smooth="yes"/>
      <point x="530" y="26"/>
      <point x="524" y="36"/>
      <point x="514" y="36" type="curve" smooth="yes"/>
      <point x="496" y="36"/>
      <point x="479" y="33"/>
      <point x="461" y="33" type="curve" smooth="yes"/>
      <point x="438" y="33"/>
      <point x="436" y="56"/>
      <point x="436" y="74" type="curve" smooth="yes"/>
      <point x="436" y="114"/>
      <point x="437" y="155"/>
      <point x="436" y="196" type="curve"/>
      <point x="540" y="196" type="line" smooth="yes"/>
      <point x="547" y="196"/>
      <point x="554" y="196"/>
      <point x="555" y="205" type="curve" smooth="yes"/>
      <point x="557" y="225"/>
      <point x="568" y="299"/>
    </contour>
  </outline>
</glyph>
<glyph name="five" format="2">
  <advance height="1000" width="590"/>
  <unicode hex="0035"/>
  <note>
cid00022
</note>
  <outline>
    <contour>
      <point x="539" y="252" type="curve" smooth="yes"/>
      <point x="539" y="360"/>
      <point x="446" y="460"/>
      <point x="337" y="460" type="curve" smooth="yes"/>
      <point x="275" y="460"/>
      <point x="227" y="452"/>
      <point x="175" y="417" type="curve"/>
      <point x="179" y="496"/>
      <point x="184" y="575"/>
      <point x="185" y="654" type="curve"/>
      <point x="239" y="654" type="line" smooth="yes"/>
      <point x="306" y="655"/>
      <point x="373" y="651"/>
      <point x="440" y="651" type="curve" smooth="yes"/>
      <point x="464" y="651"/>
      <point x="472" y="650"/>
      <point x="482" y="673" type="curve" smooth="yes"/>
      <point x="485" y="681"/>
      <point x="503" y="731"/>
      <point x="503" y="735" type="curve" smooth="yes"/>
      <point x="503" y="741"/>
      <point x="497" y="743"/>
      <point x="493" y="743" type="curve" smooth="yes"/>
      <point x="490" y="743"/>
      <point x="487" y="742"/>
      <point x="484" y="740" type="curve" smooth="yes"/>
      <point x="445" y="714"/>
      <point x="403" y="712"/>
      <point x="357" y="712" type="curve" smooth="yes"/>
      <point x="231" y="712" type="line" smooth="yes"/>
      <point x="185" y="712"/>
      <point x="139" y="716"/>
      <point x="93" y="722" type="curve"/>
      <point x="97" y="687"/>
      <point x="99" y="651"/>
      <point x="99" y="616" type="curve" smooth="yes"/>
      <point x="99" y="531"/>
      <point x="100" y="445"/>
      <point x="87" y="361" type="curve" smooth="yes"/>
      <point x="85" y="349"/>
      <point x="80" y="334"/>
      <point x="80" y="322" type="curve" smooth="yes"/>
      <point x="80" y="307"/>
      <point x="159" y="287"/>
      <point x="173" y="287" type="curve" smooth="yes"/>
      <point x="181" y="287"/>
      <point x="185" y="289"/>
      <point x="189" y="296" type="curve" smooth="yes"/>
      <point x="191" y="299"/>
      <point x="191" y="306"/>
      <point x="191" y="309" type="curve" smooth="yes"/>
      <point x="194" y="339"/>
      <point x="199" y="372"/>
      <point x="221" y="393" type="curve" smooth="yes"/>
      <point x="238" y="409"/>
      <point x="268" y="423"/>
      <point x="291" y="423" type="curve" smooth="yes"/>
      <point x="380" y="423"/>
      <point x="396" y="327"/>
      <point x="396" y="258" type="curve" smooth="yes"/>
      <point x="396" y="164"/>
      <point x="364" y="35"/>
      <point x="248" y="35" type="curve" smooth="yes"/>
      <point x="196" y="35"/>
      <point x="179" y="75"/>
      <point x="179" y="120" type="curve" smooth="yes"/>
      <point x="179" y="154"/>
      <point x="147" y="168"/>
      <point x="117" y="168" type="curve" smooth="yes"/>
      <point x="94" y="168"/>
      <point x="51" y="152"/>
      <point x="51" y="124" type="curve" smooth="yes"/>
      <point x="51" y="87"/>
      <point x="68" y="65"/>
      <point x="95" y="42" type="curve" smooth="yes"/>
      <point x="139" y="6"/>
      <point x="212" y="-2"/>
      <point x="267" y="-2" type="curve" smooth="yes"/>
      <point x="417" y="-2"/>
      <point x="539" y="96"/>
    </contour>
  </outline>
</glyph>
<glyph name="six" format="2">
  <advance height="1000" width="590"/>
  <unicode hex="0036"/>
  <note>
cid00023
</note>
  <outline>
    <contour>
      <point x="409" y="214" type="curve" smooth="yes"/>
      <point x="409" y="139"/>
      <point x="394" y="23"/>
      <point x="296" y="23" type="curve" smooth="yes"/>
      <point x="190" y="23"/>
      <point x="191" y="188"/>
      <point x="191" y="261" type="curve" smooth="yes"/>
      <point x="191" y="292"/>
      <point x="190" y="324"/>
      <point x="198" y="354" type="curve"/>
      <point x="225" y="388"/>
      <point x="264" y="416"/>
      <point x="310" y="416" type="curve" smooth="yes"/>
      <point x="405" y="416"/>
      <point x="409" y="282"/>
    </contour>
    <contour>
      <point x="547" y="238" type="curve" smooth="yes"/>
      <point x="547" y="364"/>
      <point x="453" y="452"/>
      <point x="328" y="452" type="curve" smooth="yes"/>
      <point x="277" y="452"/>
      <point x="248" y="443"/>
      <point x="202" y="421" type="curve"/>
      <point x="224" y="509"/>
      <point x="263" y="595"/>
      <point x="326" y="662" type="curve" smooth="yes"/>
      <point x="369" y="709"/>
      <point x="422" y="739"/>
      <point x="480" y="766" type="curve" smooth="yes"/>
      <point x="484" y="768"/>
      <point x="498" y="773"/>
      <point x="498" y="778" type="curve" smooth="yes"/>
      <point x="498" y="784"/>
      <point x="496" y="786"/>
      <point x="490" y="786" type="curve" smooth="yes"/>
      <point x="475" y="786"/>
      <point x="461" y="783"/>
      <point x="447" y="779" type="curve" smooth="yes"/>
      <point x="263" y="728"/>
      <point x="140" y="617"/>
      <point x="76" y="437" type="curve" smooth="yes"/>
      <point x="62" y="395"/>
      <point x="49" y="340"/>
      <point x="49" y="296" type="curve" smooth="yes"/>
      <point x="49" y="260"/>
      <point x="51" y="224"/>
      <point x="58" y="189" type="curve" smooth="yes"/>
      <point x="81" y="79"/>
      <point x="166" y="-6"/>
      <point x="282" y="-6" type="curve" smooth="yes"/>
      <point x="433" y="-6"/>
      <point x="547" y="80"/>
    </contour>
  </outline>
</glyph>
<glyph name="seven" format="2">
  <advance height="1000" width="590"/>
  <unicode hex="0037"/>
  <note>
cid00024
</note>
  <outline>
    <contour>
      <point x="538" y="685" type="curve"/>
      <point x="538" y="725" type="line"/>
      <point x="450" y="720"/>
      <point x="360" y="719"/>
      <point x="272" y="719" type="curve" smooth="yes"/>
      <point x="207" y="719"/>
      <point x="143" y="722"/>
      <point x="79" y="722" type="curve" smooth="yes"/>
      <point x="65" y="722"/>
      <point x="63" y="713"/>
      <point x="62" y="702" type="curve" smooth="yes"/>
      <point x="60" y="679"/>
      <point x="59" y="652"/>
      <point x="57" y="627" type="curve" smooth="yes"/>
      <point x="55" y="605"/>
      <point x="52" y="568"/>
      <point x="52" y="562" type="curve" smooth="yes"/>
      <point x="52" y="552"/>
      <point x="57" y="546"/>
      <point x="67" y="546" type="curve" smooth="yes"/>
      <point x="75" y="546"/>
      <point x="82" y="552"/>
      <point x="85" y="559" type="curve" smooth="yes"/>
      <point x="95" y="584"/>
      <point x="104" y="614"/>
      <point x="126" y="635" type="curve" smooth="yes"/>
      <point x="142" y="649"/>
      <point x="163" y="656"/>
      <point x="183" y="661" type="curve" smooth="yes"/>
      <point x="216" y="668"/>
      <point x="250" y="668"/>
      <point x="283" y="669" type="curve" smooth="yes"/>
      <point x="341" y="672"/>
      <point x="399" y="672"/>
      <point x="457" y="674" type="curve"/>
      <point x="312" y="521"/>
      <point x="233" y="317"/>
      <point x="200" y="112" type="curve" smooth="yes"/>
      <point x="197" y="97"/>
      <point x="195" y="81"/>
      <point x="195" y="66" type="curve" smooth="yes"/>
      <point x="195" y="12"/>
      <point x="221" y="-18"/>
      <point x="276" y="-18" type="curve" smooth="yes"/>
      <point x="331" y="-18"/>
      <point x="336" y="24"/>
      <point x="337" y="68" type="curve" smooth="yes"/>
      <point x="341" y="208"/>
      <point x="353" y="350"/>
      <point x="404" y="481" type="curve" smooth="yes"/>
      <point x="434" y="558"/>
      <point x="483" y="625"/>
    </contour>
  </outline>
</glyph>
<glyph name="eight" format="2">
  <advance height="1000" width="590"/>
  <unicode hex="0038"/>
  <note>
cid00025
</note>
  <outline>
    <contour>
      <point x="417" y="191" type="curve" smooth="yes"/>
      <point x="417" y="131"/>
      <point x="397" y="69"/>
      <point x="340" y="39" type="curve" smooth="yes"/>
      <point x="324" y="30"/>
      <point x="306" y="25"/>
      <point x="288" y="25" type="curve" smooth="yes"/>
      <point x="189" y="25"/>
      <point x="156" y="109"/>
      <point x="156" y="194" type="curve" smooth="yes"/>
      <point x="156" y="270"/>
      <point x="189" y="340"/>
      <point x="254" y="381" type="curve"/>
      <point x="351" y="351"/>
      <point x="417" y="301"/>
    </contour>
    <contour>
      <point x="398" y="577" type="curve" smooth="yes"/>
      <point x="398" y="519"/>
      <point x="366" y="457"/>
      <point x="312" y="431" type="curve"/>
      <point x="240" y="460"/>
      <point x="197" y="502"/>
      <point x="197" y="583" type="curve" smooth="yes"/>
      <point x="197" y="640"/>
      <point x="218" y="711"/>
      <point x="287" y="711" type="curve" smooth="yes"/>
      <point x="368" y="711"/>
      <point x="398" y="650"/>
    </contour>
    <contour>
      <point x="553" y="228" type="curve" smooth="yes"/>
      <point x="553" y="328"/>
      <point x="459" y="384"/>
      <point x="376" y="413" type="curve"/>
      <point x="453" y="441"/>
      <point x="512" y="501"/>
      <point x="512" y="587" type="curve" smooth="yes"/>
      <point x="512" y="697"/>
      <point x="401" y="739"/>
      <point x="308" y="739" type="curve" smooth="yes"/>
      <point x="194" y="739"/>
      <point x="72" y="678"/>
      <point x="72" y="550" type="curve" smooth="yes"/>
      <point x="72" y="474"/>
      <point x="142" y="423"/>
      <point x="205" y="397" type="curve"/>
      <point x="169" y="377"/>
      <point x="130" y="356"/>
      <point x="99" y="328" type="curve" smooth="yes"/>
      <point x="62" y="294"/>
      <point x="37" y="241"/>
      <point x="37" y="190" type="curve" smooth="yes"/>
      <point x="37" y="45"/>
      <point x="172" y="-6"/>
      <point x="296" y="-6" type="curve" smooth="yes"/>
      <point x="438" y="-6"/>
      <point x="553" y="78"/>
    </contour>
  </outline>
</glyph>
<glyph name="nine" format="2">
  <advance height="1000" width="590"/>
  <unicode hex="0039"/>
  <note>
cid00026
</note>
  <outline>
    <contour>
      <point x="399" y="446" type="curve" smooth="yes"/>
      <point x="399" y="419"/>
      <point x="399" y="392"/>
      <point x="392" y="366" type="curve"/>
      <point x="365" y="332"/>
      <point x="326" y="304"/>
      <point x="280" y="304" type="curve" smooth="yes"/>
      <point x="185" y="304"/>
      <point x="181" y="438"/>
      <point x="181" y="506" type="curve" smooth="yes"/>
      <point x="181" y="580"/>
      <point x="196" y="697"/>
      <point x="294" y="697" type="curve" smooth="yes"/>
      <point x="404" y="697"/>
      <point x="399" y="521"/>
    </contour>
    <contour>
      <point x="541" y="424" type="curve" smooth="yes"/>
      <point x="541" y="460"/>
      <point x="539" y="496"/>
      <point x="532" y="531" type="curve" smooth="yes"/>
      <point x="509" y="641"/>
      <point x="424" y="726"/>
      <point x="308" y="726" type="curve" smooth="yes"/>
      <point x="157" y="726"/>
      <point x="43" y="640"/>
      <point x="43" y="482" type="curve" smooth="yes"/>
      <point x="43" y="356"/>
      <point x="137" y="268"/>
      <point x="262" y="268" type="curve" smooth="yes"/>
      <point x="313" y="268"/>
      <point x="342" y="277"/>
      <point x="388" y="299" type="curve"/>
      <point x="366" y="211"/>
      <point x="327" y="125"/>
      <point x="264" y="58" type="curve" smooth="yes"/>
      <point x="221" y="11"/>
      <point x="168" y="-19"/>
      <point x="110" y="-46" type="curve" smooth="yes"/>
      <point x="106" y="-48"/>
      <point x="92" y="-53"/>
      <point x="92" y="-58" type="curve" smooth="yes"/>
      <point x="92" y="-64"/>
      <point x="94" y="-66"/>
      <point x="100" y="-66" type="curve" smooth="yes"/>
      <point x="115" y="-66"/>
      <point x="129" y="-63"/>
      <point x="143" y="-59" type="curve" smooth="yes"/>
      <point x="327" y="-8"/>
      <point x="450" y="103"/>
      <point x="514" y="283" type="curve" smooth="yes"/>
      <point x="528" y="325"/>
      <point x="541" y="379"/>
    </contour>
  </outline>
</glyph>
<glyph name="colon" format="2">
  <advance height="1000" width="390"/>
  <unicode hex="003A"/>
  <note>
cid00027
</note>
  <outline>
    <contour>
      <point x="273" y="84" type="curve" smooth="yes"/>
      <point x="273" y="130"/>
      <point x="240" y="158"/>
      <point x="195" y="158" type="curve" smooth="yes"/>
      <point x="150" y="158"/>
      <point x="117" y="130"/>
      <point x="117" y="84" type="curve" smooth="yes"/>
      <point x="117" y="38"/>
      <point x="150" y="10"/>
      <point x="195" y="10" type="curve" smooth="yes"/>
      <point x="240" y="10"/>
      <point x="273" y="38"/>
    </contour>
    <contour>
      <point x="273" y="442" type="curve" smooth="yes"/>
      <point x="273" y="488"/>
      <point x="240" y="517"/>
      <point x="195" y="517" type="curve" smooth="yes"/>
      <point x="150" y="517"/>
      <point x="117" y="488"/>
      <point x="117" y="442" type="curve" smooth="yes"/>
      <point x="117" y="396"/>
      <point x="150" y="368"/>
      <point x="195" y="368" type="curve" smooth="yes"/>
      <point x="240" y="368"/>
      <point x="273" y="396"/>
    </contour>
  </outline>
</glyph>
<glyph name="semicolon" format="2">
  <advance height="1000" width="390"/>
  <unicode hex="003B"/>
  <note>
cid00028
</note>
  <outline>
    <contour>
      <point x="273" y="49" type="curve" smooth="yes"/>
      <point x="273" y="100"/>
      <point x="253" y="141"/>
      <point x="196" y="141" type="curve" smooth="yes"/>
      <point x="148" y="141"/>
      <point x="118" y="108"/>
      <point x="118" y="61" type="curve" smooth="yes"/>
      <point x="118" y="36"/>
      <point x="143" y="5"/>
      <point x="168" y="5" type="curve" smooth="yes"/>
      <point x="181" y="5"/>
      <point x="194" y="6"/>
      <point x="205" y="13" type="curve"/>
      <point x="206" y="-28"/>
      <point x="181" y="-94"/>
      <point x="159" y="-128" type="curve"/>
      <point x="188" y="-137" type="line"/>
      <point x="230" y="-98"/>
      <point x="273" y="-9"/>
    </contour>
    <contour>
      <point x="272" y="441" type="curve" smooth="yes"/>
      <point x="272" y="487"/>
      <point x="239" y="516"/>
      <point x="194" y="516" type="curve" smooth="yes"/>
      <point x="150" y="516"/>
      <point x="117" y="487"/>
      <point x="117" y="441" type="curve" smooth="yes"/>
      <point x="117" y="395"/>
      <point x="150" y="367"/>
      <point x="194" y="367" type="curve" smooth="yes"/>
      <point x="239" y="367"/>
      <point x="272" y="395"/>
    </contour>
  </outline>
</glyph>
<glyph name="equal" format="2">
  <advance height="1000" width="750"/>
  <unicode hex="003D"/>
  <note>
cid00030
</note>
  <outline>
    <contour>
      <point x="678" y="257" type="line"/>
      <point x="678" y="312" type="line"/>
      <point x="73" y="312" type="line"/>
      <point x="73" y="257" type="line"/>
    </contour>
    <contour>
      <point x="678" y="414" type="line"/>
      <point x="678" y="469" type="line"/>
      <point x="73" y="469" type="line"/>
      <point x="73" y="414" type="line"/>
    </contour>
  </outline>
</glyph>
<glyph name="question" format="2">
  <advance height="1000" width="560"/>
  <unicode hex="003F"/>
  <note>
cid00032
</note>
  <outline>
    <contour>
      <point x="356" y="54" type="curve" smooth="yes"/>
      <point x="356" y="94"/>
      <point x="322" y="128"/>
      <point x="282" y="128" type="curve" smooth="yes"/>
      <point x="242" y="128"/>
      <point x="208" y="94"/>
      <point x="208" y="54" type="curve" smooth="yes"/>
      <point x="208" y="13"/>
      <point x="242" y="-20"/>
      <point x="282" y="-20" type="curve" smooth="yes"/>
      <point x="322" y="-20"/>
      <point x="356" y="13"/>
    </contour>
    <contour>
      <point x="508" y="574" type="curve" smooth="yes"/>
      <point x="508" y="699"/>
      <point x="396" y="742"/>
      <point x="289" y="742" type="curve" smooth="yes"/>
      <point x="202" y="742"/>
      <point x="116" y="712"/>
      <point x="72" y="633" type="curve" smooth="yes"/>
      <point x="60" y="612"/>
      <point x="52" y="588"/>
      <point x="52" y="564" type="curve" smooth="yes"/>
      <point x="52" y="532"/>
      <point x="73" y="502"/>
      <point x="107" y="502" type="curve" smooth="yes"/>
      <point x="144" y="502"/>
      <point x="182" y="516"/>
      <point x="182" y="559" type="curve" smooth="yes"/>
      <point x="182" y="577"/>
      <point x="172" y="593"/>
      <point x="172" y="611" type="curve" smooth="yes"/>
      <point x="172" y="675"/>
      <point x="223" y="715"/>
      <point x="284" y="715" type="curve" smooth="yes"/>
      <point x="353" y="715"/>
      <point x="378" y="660"/>
      <point x="378" y="599" type="curve" smooth="yes"/>
      <point x="378" y="461"/>
      <point x="285" y="461"/>
      <point x="260" y="354" type="curve" smooth="yes"/>
      <point x="254" y="327"/>
      <point x="253" y="299"/>
      <point x="253" y="271" type="curve" smooth="yes"/>
      <point x="253" y="244"/>
      <point x="256" y="216"/>
      <point x="260" y="189" type="curve"/>
      <point x="294" y="189" type="line"/>
      <point x="295" y="227"/>
      <point x="296" y="287"/>
      <point x="309" y="322" type="curve" smooth="yes"/>
      <point x="339" y="400"/>
      <point x="383" y="398"/>
      <point x="440" y="443" type="curve" smooth="yes"/>
      <point x="478" y="473"/>
      <point x="508" y="525"/>
    </contour>
  </outline>
</glyph>
<glyph name="at" format="2">
  <advance height="1000" width="900"/>
  <unicode hex="0040"/>
  <note>
cid00033
</note>
  <outline>
    <contour>
      <point x="540" y="437" type="curve" smooth="yes"/>
      <point x="540" y="410"/>
      <point x="498" y="221"/>
      <point x="487" y="197" type="curve" smooth="yes"/>
      <point x="479" y="181"/>
      <point x="466" y="162"/>
      <point x="446" y="162" type="curve" smooth="yes"/>
      <point x="405" y="162"/>
      <point x="392" y="226"/>
      <point x="392" y="258" type="curve" smooth="yes"/>
      <point x="392" y="318"/>
      <point x="418" y="500"/>
      <point x="500" y="500" type="curve" smooth="yes"/>
      <point x="528" y="500"/>
      <point x="540" y="460"/>
    </contour>
    <contour>
      <point x="836" y="405" type="curve" smooth="yes"/>
      <point x="836" y="607"/>
      <point x="682" y="716"/>
      <point x="492" y="716" type="curve" smooth="yes"/>
      <point x="250" y="716"/>
      <point x="65" y="529"/>
      <point x="65" y="287" type="curve" smooth="yes"/>
      <point x="65" y="242"/>
      <point x="77" y="192"/>
      <point x="95" y="150" type="curve" smooth="yes"/>
      <point x="160" y="-4"/>
      <point x="302" y="-63"/>
      <point x="462" y="-63" type="curve" smooth="yes"/>
      <point x="548" y="-63"/>
      <point x="671" y="-36"/>
      <point x="740" y="19" type="curve" smooth="yes"/>
      <point x="748" y="26"/>
      <point x="756" y="32"/>
      <point x="756" y="44" type="curve" smooth="yes"/>
      <point x="756" y="52"/>
      <point x="748" y="59"/>
      <point x="741" y="59" type="curve" smooth="yes"/>
      <point x="735" y="59"/>
      <point x="733" y="59"/>
      <point x="729" y="56" type="curve" smooth="yes"/>
      <point x="638" y="1"/>
      <point x="569" y="-28"/>
      <point x="462" y="-28" type="curve" smooth="yes"/>
      <point x="423" y="-28"/>
      <point x="386" y="-17"/>
      <point x="353" y="0" type="curve" smooth="yes"/>
      <point x="246" y="57"/>
      <point x="184" y="176"/>
      <point x="184" y="294" type="curve" smooth="yes"/>
      <point x="184" y="351"/>
      <point x="190" y="408"/>
      <point x="210" y="462" type="curve" smooth="yes"/>
      <point x="252" y="581"/>
      <point x="357" y="687"/>
      <point x="490" y="687" type="curve" smooth="yes"/>
      <point x="645" y="687"/>
      <point x="759" y="581"/>
      <point x="759" y="424" type="curve" smooth="yes"/>
      <point x="759" y="350"/>
      <point x="729" y="150"/>
      <point x="630" y="150" type="curve" smooth="yes"/>
      <point x="609" y="150"/>
      <point x="607" y="180"/>
      <point x="607" y="194" type="curve" smooth="yes"/>
      <point x="607" y="269"/>
      <point x="655" y="420"/>
      <point x="680" y="495" type="curve"/>
      <point x="680" y="496"/>
      <point x="681" y="498"/>
      <point x="681" y="498" type="curve"/>
      <point x="681" y="515"/>
      <point x="661" y="524"/>
      <point x="647" y="524" type="curve" smooth="yes"/>
      <point x="625" y="524"/>
      <point x="594" y="509"/>
      <point x="578" y="495" type="curve"/>
      <point x="555" y="515"/>
      <point x="522" y="530"/>
      <point x="492" y="530" type="curve" smooth="yes"/>
      <point x="364" y="530"/>
      <point x="278" y="388"/>
      <point x="278" y="273" type="curve" smooth="yes"/>
      <point x="278" y="198"/>
      <point x="322" y="118"/>
      <point x="405" y="118" type="curve" smooth="yes"/>
      <point x="448" y="118"/>
      <point x="481" y="136"/>
      <point x="515" y="163" type="curve"/>
      <point x="530" y="125"/>
      <point x="576" y="111"/>
      <point x="614" y="111" type="curve" smooth="yes"/>
      <point x="752" y="111"/>
      <point x="836" y="284"/>
    </contour>
  </outline>
</glyph>
<glyph name="B" format="2">
  <advance height="1000" width="694"/>
  <unicode hex="0042"/>
  <note>
cid00035
</note>
  <outline>
    <contour>
      <point x="503" y="201" type="curve" smooth="yes"/>
      <point x="503" y="106"/>
      <point x="452" y="27"/>
      <point x="352" y="21" type="curve" smooth="yes"/>
      <point x="336" y="20"/>
      <point x="319" y="20"/>
      <point x="303" y="20" type="curve" smooth="yes"/>
      <point x="273" y="20"/>
      <point x="252" y="21"/>
      <point x="252" y="58" type="curve" smooth="yes"/>
      <point x="252" y="371" type="line"/>
      <point x="297" y="371"/>
      <point x="342" y="374"/>
      <point x="387" y="374" type="curve" smooth="yes"/>
      <point x="486" y="374"/>
      <point x="503" y="280"/>
    </contour>
    <contour>
      <point x="453" y="558" type="curve" smooth="yes"/>
      <point x="453" y="515"/>
      <point x="440" y="464"/>
      <point x="409" y="433" type="curve" smooth="yes"/>
      <point x="379" y="402"/>
      <point x="321" y="401"/>
      <point x="281" y="401" type="curve" smooth="yes"/>
      <point x="252" y="401" type="line"/>
      <point x="252" y="697" type="line"/>
      <point x="265" y="698"/>
      <point x="279" y="699"/>
      <point x="292" y="699" type="curve" smooth="yes"/>
      <point x="400" y="699"/>
      <point x="453" y="676"/>
    </contour>
    <contour>
      <point x="646" y="218" type="curve" smooth="yes"/>
      <point x="646" y="288"/>
      <point x="598" y="342"/>
      <point x="537" y="371" type="curve" smooth="yes"/>
      <point x="517" y="381"/>
      <point x="497" y="387"/>
      <point x="476" y="392" type="curve" smooth="yes"/>
      <point x="473" y="393"/>
      <point x="463" y="395"/>
      <point x="463" y="399" type="curve" smooth="yes"/>
      <point x="463" y="404"/>
      <point x="473" y="408"/>
      <point x="476" y="409" type="curve" smooth="yes"/>
      <point x="493" y="417"/>
      <point x="509" y="425"/>
      <point x="523" y="437" type="curve" smooth="yes"/>
      <point x="564" y="468"/>
      <point x="595" y="517"/>
      <point x="595" y="569" type="curve" smooth="yes"/>
      <point x="595" y="704"/>
      <point x="488" y="736"/>
      <point x="374" y="736" type="curve" smooth="yes"/>
      <point x="362" y="736"/>
      <point x="349" y="735"/>
      <point x="336" y="734" type="curve" smooth="yes"/>
      <point x="268" y="728"/>
      <point x="200" y="723"/>
      <point x="132" y="723" type="curve" smooth="yes"/>
      <point x="105" y="723"/>
      <point x="77" y="727"/>
      <point x="50" y="727" type="curve" smooth="yes"/>
      <point x="38" y="727"/>
      <point x="29" y="721"/>
      <point x="29" y="708" type="curve" smooth="yes"/>
      <point x="29" y="698"/>
      <point x="38" y="691"/>
      <point x="47" y="691" type="curve" smooth="yes"/>
      <point x="101" y="691"/>
      <point x="118" y="686"/>
      <point x="118" y="627" type="curve" smooth="yes"/>
      <point x="118" y="458"/>
      <point x="119" y="289"/>
      <point x="119" y="120" type="curve" smooth="yes"/>
      <point x="119" y="104"/>
      <point x="119" y="88"/>
      <point x="118" y="72" type="curve" smooth="yes"/>
      <point x="112" y="-3"/>
      <point x="49" y="36"/>
      <point x="49" y="3" type="curve" smooth="yes"/>
      <point x="49" y="-2"/>
      <point x="53" y="-8"/>
      <point x="59" y="-8" type="curve" smooth="yes"/>
      <point x="97" y="-8"/>
      <point x="134" y="-3"/>
      <point x="172" y="-3" type="curve" smooth="yes"/>
      <point x="221" y="-3"/>
      <point x="270" y="-4"/>
      <point x="319" y="-6" type="curve" smooth="yes"/>
      <point x="331" y="-7"/>
      <point x="343" y="-7"/>
      <point x="355" y="-7" type="curve" smooth="yes"/>
      <point x="407" y="-7"/>
      <point x="471" y="-3"/>
      <point x="519" y="18" type="curve" smooth="yes"/>
      <point x="604" y="54"/>
      <point x="646" y="127"/>
    </contour>
  </outline>
</glyph>
<glyph name="D" format="2">
  <advance height="1000" width="821"/>
  <unicode hex="0044"/>
  <note>
cid00037
</note>
  <outline>
    <contour>
      <point x="633" y="374" type="curve" smooth="yes"/>
      <point x="633" y="265"/>
      <point x="597" y="151"/>
      <point x="510" y="81" type="curve" smooth="yes"/>
      <point x="455" y="38"/>
      <point x="371" y="33"/>
      <point x="303" y="33" type="curve" smooth="yes"/>
      <point x="266" y="33"/>
      <point x="259" y="46"/>
      <point x="259" y="81" type="curve" smooth="yes"/>
      <point x="259" y="693" type="line"/>
      <point x="303" y="695"/>
      <point x="348" y="696"/>
      <point x="393" y="696" type="curve" smooth="yes"/>
      <point x="572" y="696"/>
      <point x="633" y="526"/>
    </contour>
    <contour>
      <point x="778" y="388" type="curve" smooth="yes"/>
      <point x="778" y="604"/>
      <point x="647" y="736"/>
      <point x="431" y="736" type="curve" smooth="yes"/>
      <point x="336" y="736"/>
      <point x="241" y="725"/>
      <point x="146" y="725" type="curve" smooth="yes"/>
      <point x="113" y="725"/>
      <point x="80" y="728"/>
      <point x="47" y="728" type="curve" smooth="yes"/>
      <point x="34" y="728"/>
      <point x="28" y="721"/>
      <point x="28" y="709" type="curve" smooth="yes"/>
      <point x="28" y="695"/>
      <point x="39" y="692"/>
      <point x="50" y="692" type="curve" smooth="yes"/>
      <point x="69" y="692"/>
      <point x="113" y="697"/>
      <point x="119" y="673" type="curve"/>
      <point x="119" y="671"/>
      <point x="120" y="659"/>
      <point x="120" y="657" type="curve" smooth="yes"/>
      <point x="124" y="589"/>
      <point x="122" y="520"/>
      <point x="122" y="451" type="curve" smooth="yes"/>
      <point x="122" y="331"/>
      <point x="122" y="211"/>
      <point x="122" y="90" type="curve" smooth="yes"/>
      <point x="122" y="68"/>
      <point x="117" y="42"/>
      <point x="95" y="32" type="curve" smooth="yes"/>
      <point x="83" y="27"/>
      <point x="49" y="30"/>
      <point x="49" y="11" type="curve" smooth="yes"/>
      <point x="49" y="2"/>
      <point x="57" y="-5"/>
      <point x="67" y="-5" type="curve" smooth="yes"/>
      <point x="79" y="-5"/>
      <point x="91" y="-4"/>
      <point x="104" y="-3" type="curve" smooth="yes"/>
      <point x="138" y="0"/>
      <point x="172" y="0"/>
      <point x="206" y="0" type="curve" smooth="yes"/>
      <point x="252" y="0"/>
      <point x="298" y="-5"/>
      <point x="345" y="-5" type="curve" smooth="yes"/>
      <point x="428" y="-5"/>
      <point x="542" y="12"/>
      <point x="613" y="59" type="curve" smooth="yes"/>
      <point x="721" y="131"/>
      <point x="778" y="260"/>
    </contour>
  </outline>
</glyph>
<glyph name="E" format="2">
  <advance height="1000" width="674"/>
  <unicode hex="0045"/>
  <note>
cid00038
</note>
  <outline>
    <contour>
      <point x="648" y="172" type="curve" smooth="yes"/>
      <point x="648" y="186"/>
      <point x="644" y="195"/>
      <point x="628" y="195" type="curve" smooth="yes"/>
      <point x="610" y="195"/>
      <point x="607" y="190"/>
      <point x="600" y="174" type="curve" smooth="yes"/>
      <point x="586" y="144"/>
      <point x="564" y="102"/>
      <point x="541" y="79" type="curve" smooth="yes"/>
      <point x="488" y="26"/>
      <point x="370" y="33"/>
      <point x="299" y="33" type="curve" smooth="yes"/>
      <point x="266" y="33"/>
      <point x="261" y="45"/>
      <point x="261" y="77" type="curve" smooth="yes"/>
      <point x="261" y="323" type="line" smooth="yes"/>
      <point x="261" y="355"/>
      <point x="282" y="370"/>
      <point x="312" y="370" type="curve" smooth="yes"/>
      <point x="364" y="370"/>
      <point x="416" y="368"/>
      <point x="467" y="363" type="curve" smooth="yes"/>
      <point x="482" y="361"/>
      <point x="498" y="360"/>
      <point x="514" y="360" type="curve" smooth="yes"/>
      <point x="531" y="360"/>
      <point x="535" y="361"/>
      <point x="542" y="378" type="curve" smooth="yes"/>
      <point x="545" y="387"/>
      <point x="551" y="411"/>
      <point x="551" y="420" type="curve" smooth="yes"/>
      <point x="551" y="428"/>
      <point x="546" y="431"/>
      <point x="539" y="431" type="curve" smooth="yes"/>
      <point x="520" y="431"/>
      <point x="499" y="422"/>
      <point x="480" y="418" type="curve" smooth="yes"/>
      <point x="457" y="412"/>
      <point x="433" y="408"/>
      <point x="409" y="406" type="curve" smooth="yes"/>
      <point x="360" y="402"/>
      <point x="311" y="401"/>
      <point x="261" y="401" type="curve"/>
      <point x="261" y="695" type="line"/>
      <point x="441" y="695" type="line" smooth="yes"/>
      <point x="512" y="695"/>
      <point x="548" y="647"/>
      <point x="568" y="585" type="curve" smooth="yes"/>
      <point x="574" y="569"/>
      <point x="583" y="564"/>
      <point x="600" y="564" type="curve" smooth="yes"/>
      <point x="614" y="564"/>
      <point x="631" y="575"/>
      <point x="631" y="591" type="curve" smooth="yes"/>
      <point x="631" y="618"/>
      <point x="621" y="646"/>
      <point x="617" y="672" type="curve" smooth="yes"/>
      <point x="614" y="693"/>
      <point x="611" y="714"/>
      <point x="608" y="736" type="curve"/>
      <point x="584" y="733"/>
      <point x="560" y="731"/>
      <point x="536" y="731" type="curve" smooth="yes"/>
      <point x="410" y="731"/>
      <point x="285" y="728"/>
      <point x="160" y="728" type="curve" smooth="yes"/>
      <point x="122" y="728"/>
      <point x="85" y="731"/>
      <point x="47" y="731" type="curve" smooth="yes"/>
      <point x="34" y="731"/>
      <point x="21" y="728"/>
      <point x="21" y="712" type="curve" smooth="yes"/>
      <point x="21" y="696"/>
      <point x="30" y="688"/>
      <point x="46" y="688" type="curve" smooth="yes"/>
      <point x="62" y="688"/>
      <point x="78" y="689"/>
      <point x="94" y="689" type="curve" smooth="yes"/>
      <point x="120" y="689"/>
      <point x="125" y="664"/>
      <point x="125" y="643" type="curve" smooth="yes"/>
      <point x="125" y="104" type="line" smooth="yes"/>
      <point x="125" y="48"/>
      <point x="107" y="36"/>
      <point x="80" y="33" type="curve" smooth="yes"/>
      <point x="57" y="30"/>
      <point x="33" y="36"/>
      <point x="33" y="13" type="curve" smooth="yes"/>
      <point x="33" y="2"/>
      <point x="39" y="-4"/>
      <point x="50" y="-4" type="curve" smooth="yes"/>
      <point x="96" y="-4"/>
      <point x="143" y="3"/>
      <point x="190" y="3" type="curve" smooth="yes"/>
      <point x="326" y="3"/>
      <point x="462" y="0"/>
      <point x="598" y="0" type="curve" smooth="yes"/>
      <point x="620" y="0"/>
      <point x="626" y="6"/>
      <point x="630" y="27" type="curve" smooth="yes"/>
      <point x="633" y="53"/>
      <point x="636" y="80"/>
      <point x="639" y="106" type="curve" smooth="yes"/>
      <point x="641" y="128"/>
      <point x="648" y="151"/>
    </contour>
  </outline>
</glyph>
<glyph name="F" format="2">
  <advance height="1000" width="610"/>
  <unicode hex="0046"/>
  <note>
cid00039
</note>
  <outline>
    <contour>
      <point x="598" y="588" type="curve" smooth="yes"/>
      <point x="598" y="599"/>
      <point x="595" y="609"/>
      <point x="594" y="619" type="curve" smooth="yes"/>
      <point x="589" y="658"/>
      <point x="583" y="696"/>
      <point x="578" y="735" type="curve"/>
      <point x="543" y="729"/>
      <point x="507" y="729"/>
      <point x="472" y="728" type="curve" smooth="yes"/>
      <point x="374" y="726"/>
      <point x="275" y="725"/>
      <point x="177" y="725" type="curve" smooth="yes"/>
      <point x="131" y="725"/>
      <point x="85" y="728"/>
      <point x="39" y="728" type="curve" smooth="yes"/>
      <point x="28" y="728"/>
      <point x="19" y="721"/>
      <point x="19" y="709" type="curve" smooth="yes"/>
      <point x="19" y="688"/>
      <point x="38" y="688"/>
      <point x="54" y="688" type="curve" smooth="yes"/>
      <point x="66" y="688"/>
      <point x="77" y="689"/>
      <point x="89" y="689" type="curve" smooth="yes"/>
      <point x="122" y="689"/>
      <point x="128" y="671"/>
      <point x="128" y="641" type="curve" smooth="yes"/>
      <point x="128" y="91" type="line" smooth="yes"/>
      <point x="128" y="-17"/>
      <point x="42" y="49"/>
      <point x="42" y="5" type="curve" smooth="yes"/>
      <point x="42" y="-8"/>
      <point x="53" y="-10"/>
      <point x="64" y="-10" type="curve" smooth="yes"/>
      <point x="108" y="-10"/>
      <point x="152" y="-5"/>
      <point x="196" y="-5" type="curve" smooth="yes"/>
      <point x="239" y="-5"/>
      <point x="283" y="-5"/>
      <point x="327" y="-7" type="curve"/>
      <point x="333" y="-8"/>
      <point x="340" y="-8"/>
      <point x="347" y="-8" type="curve" smooth="yes"/>
      <point x="362" y="-8"/>
      <point x="368" y="-2"/>
      <point x="368" y="13" type="curve" smooth="yes"/>
      <point x="368" y="25"/>
      <point x="358" y="29"/>
      <point x="347" y="29" type="curve" smooth="yes"/>
      <point x="302" y="29"/>
      <point x="265" y="22"/>
      <point x="265" y="82" type="curve" smooth="yes"/>
      <point x="265" y="314" type="line" smooth="yes"/>
      <point x="265" y="348"/>
      <point x="296" y="357"/>
      <point x="324" y="357" type="curve" smooth="yes"/>
      <point x="385" y="357"/>
      <point x="445" y="347"/>
      <point x="506" y="347" type="curve" smooth="yes"/>
      <point x="523" y="347"/>
      <point x="528" y="348"/>
      <point x="534" y="365" type="curve" smooth="yes"/>
      <point x="538" y="375"/>
      <point x="544" y="396"/>
      <point x="544" y="407" type="curve" smooth="yes"/>
      <point x="544" y="414"/>
      <point x="538" y="418"/>
      <point x="532" y="418" type="curve" smooth="yes"/>
      <point x="512" y="418"/>
      <point x="492" y="409"/>
      <point x="473" y="404" type="curve" smooth="yes"/>
      <point x="425" y="393"/>
      <point x="374" y="392"/>
      <point x="325" y="392" type="curve" smooth="yes"/>
      <point x="305" y="392"/>
      <point x="285" y="392"/>
      <point x="265" y="392" type="curve"/>
      <point x="265" y="693" type="line"/>
      <point x="423" y="693" type="line" smooth="yes"/>
      <point x="487" y="693"/>
      <point x="521" y="644"/>
      <point x="538" y="588" type="curve" smooth="yes"/>
      <point x="542" y="572"/>
      <point x="554" y="567"/>
      <point x="569" y="567" type="curve" smooth="yes"/>
      <point x="581" y="567"/>
      <point x="598" y="574"/>
    </contour>
  </outline>
</glyph>
<glyph name="G" format="2">
  <advance height="1000" width="781"/>
  <unicode hex="0047"/>
  <note>
cid00040
</note>
  <outline>
    <contour>
      <point x="760" y="304" type="curve" smooth="yes"/>
      <point x="760" y="313"/>
      <point x="756" y="324"/>
      <point x="746" y="324" type="curve" smooth="yes"/>
      <point x="722" y="324"/>
      <point x="698" y="321"/>
      <point x="674" y="320" type="curve" smooth="yes"/>
      <point x="629" y="318"/>
      <point x="584" y="318"/>
      <point x="539" y="318" type="curve" smooth="yes"/>
      <point x="520" y="318"/>
      <point x="501" y="319"/>
      <point x="482" y="319" type="curve" smooth="yes"/>
      <point x="472" y="319"/>
      <point x="463" y="311"/>
      <point x="463" y="302" type="curve" smooth="yes"/>
      <point x="463" y="292"/>
      <point x="471" y="276"/>
      <point x="482" y="276" type="curve" smooth="yes"/>
      <point x="501" y="276"/>
      <point x="520" y="279"/>
      <point x="539" y="279" type="curve" smooth="yes"/>
      <point x="551" y="279"/>
      <point x="557" y="265"/>
      <point x="557" y="255" type="curve" smooth="yes"/>
      <point x="557" y="123" type="line" smooth="yes"/>
      <point x="557" y="60"/>
      <point x="465" y="36"/>
      <point x="414" y="36" type="curve" smooth="yes"/>
      <point x="310" y="36"/>
      <point x="244" y="128"/>
      <point x="218" y="220" type="curve" smooth="yes"/>
      <point x="205" y="265"/>
      <point x="200" y="312"/>
      <point x="200" y="359" type="curve" smooth="yes"/>
      <point x="200" y="407"/>
      <point x="205" y="455"/>
      <point x="217" y="501" type="curve" smooth="yes"/>
      <point x="240" y="592"/>
      <point x="308" y="706"/>
      <point x="415" y="706" type="curve" smooth="yes"/>
      <point x="527" y="706"/>
      <point x="596" y="637"/>
      <point x="629" y="535" type="curve" smooth="yes"/>
      <point x="636" y="515"/>
      <point x="641" y="505"/>
      <point x="664" y="505" type="curve" smooth="yes"/>
      <point x="683" y="505"/>
      <point x="697" y="518"/>
      <point x="697" y="537" type="curve" smooth="yes"/>
      <point x="697" y="598"/>
      <point x="694" y="658"/>
      <point x="694" y="719" type="curve" smooth="yes"/>
      <point x="694" y="728"/>
      <point x="685" y="732"/>
      <point x="677" y="732" type="curve" smooth="yes"/>
      <point x="654" y="732"/>
      <point x="658" y="688"/>
      <point x="628" y="688" type="curve" smooth="yes"/>
      <point x="615" y="688"/>
      <point x="556" y="712"/>
      <point x="539" y="718" type="curve" smooth="yes"/>
      <point x="498" y="731"/>
      <point x="454" y="738"/>
      <point x="411" y="738" type="curve" smooth="yes"/>
      <point x="193" y="738"/>
      <point x="56" y="568"/>
      <point x="56" y="358" type="curve" smooth="yes"/>
      <point x="56" y="242"/>
      <point x="99" y="124"/>
      <point x="196" y="54" type="curve" smooth="yes"/>
      <point x="250" y="16"/>
      <point x="338" y="-6"/>
      <point x="404" y="-6" type="curve" smooth="yes"/>
      <point x="454" y="-6"/>
      <point x="509" y="-3"/>
      <point x="555" y="18" type="curve" smooth="yes"/>
      <point x="600" y="39"/>
      <point x="645" y="59"/>
      <point x="692" y="75" type="curve"/>
      <point x="692" y="282" type="line"/>
      <point x="743" y="282" type="line" smooth="yes"/>
      <point x="756" y="282"/>
      <point x="760" y="293"/>
    </contour>
  </outline>
</glyph>
<glyph name="H" format="2">
  <advance height="1000" width="837"/>
  <unicode hex="0048"/>
  <note>
cid00041
</note>
  <outline>
    <contour>
      <point x="805" y="715" type="curve" smooth="yes"/>
      <point x="805" y="724"/>
      <point x="799" y="732"/>
      <point x="789" y="732" type="curve" smooth="yes"/>
      <point x="745" y="732"/>
      <point x="700" y="727"/>
      <point x="656" y="727" type="curve" smooth="yes"/>
      <point x="625" y="727"/>
      <point x="594" y="728"/>
      <point x="564" y="729" type="curve" smooth="yes"/>
      <point x="548" y="730"/>
      <point x="532" y="732"/>
      <point x="516" y="732" type="curve" smooth="yes"/>
      <point x="504" y="732"/>
      <point x="497" y="724"/>
      <point x="497" y="713" type="curve" smooth="yes"/>
      <point x="497" y="704"/>
      <point x="508" y="696"/>
      <point x="516" y="696" type="curve" smooth="yes"/>
      <point x="530" y="696"/>
      <point x="543" y="698"/>
      <point x="556" y="698" type="curve" smooth="yes"/>
      <point x="576" y="698"/>
      <point x="582" y="692"/>
      <point x="582" y="672" type="curve" smooth="yes"/>
      <point x="582" y="397" type="line"/>
      <point x="253" y="397" type="line"/>
      <point x="253" y="668" type="line" smooth="yes"/>
      <point x="253" y="685"/>
      <point x="261" y="697"/>
      <point x="279" y="697" type="curve" smooth="yes"/>
      <point x="289" y="697"/>
      <point x="298" y="696"/>
      <point x="308" y="696" type="curve" smooth="yes"/>
      <point x="320" y="696"/>
      <point x="338" y="696"/>
      <point x="338" y="713" type="curve" smooth="yes"/>
      <point x="338" y="725"/>
      <point x="331" y="732"/>
      <point x="319" y="732" type="curve" smooth="yes"/>
      <point x="264" y="732"/>
      <point x="209" y="728"/>
      <point x="154" y="728" type="curve" smooth="yes"/>
      <point x="119" y="728"/>
      <point x="85" y="732"/>
      <point x="51" y="732" type="curve" smooth="yes"/>
      <point x="40" y="732"/>
      <point x="35" y="722"/>
      <point x="35" y="713" type="curve" smooth="yes"/>
      <point x="35" y="702"/>
      <point x="39" y="695"/>
      <point x="51" y="695" type="curve" smooth="yes"/>
      <point x="68" y="695"/>
      <point x="85" y="697"/>
      <point x="102" y="697" type="curve" smooth="yes"/>
      <point x="116" y="697"/>
      <point x="119" y="682"/>
      <point x="119" y="671" type="curve" smooth="yes"/>
      <point x="119" y="597"/>
      <point x="119" y="522"/>
      <point x="119" y="447" type="curve" smooth="yes"/>
      <point x="119" y="315"/>
      <point x="119" y="183"/>
      <point x="119" y="51" type="curve" smooth="yes"/>
      <point x="119" y="40"/>
      <point x="116" y="25"/>
      <point x="102" y="25" type="curve" smooth="yes"/>
      <point x="85" y="25"/>
      <point x="68" y="27"/>
      <point x="51" y="27" type="curve" smooth="yes"/>
      <point x="43" y="27"/>
      <point x="37" y="17"/>
      <point x="37" y="10" type="curve" smooth="yes"/>
      <point x="37" y="3"/>
      <point x="42" y="-8"/>
      <point x="51" y="-8" type="curve" smooth="yes"/>
      <point x="68" y="-8"/>
      <point x="85" y="-5"/>
      <point x="102" y="-4" type="curve" smooth="yes"/>
      <point x="126" y="-3"/>
      <point x="151" y="-3"/>
      <point x="175" y="-3" type="curve" smooth="yes"/>
      <point x="223" y="-3"/>
      <point x="272" y="-8"/>
      <point x="321" y="-8" type="curve" smooth="yes"/>
      <point x="334" y="-8"/>
      <point x="339" y="-1"/>
      <point x="339" y="11" type="curve" smooth="yes"/>
      <point x="339" y="23"/>
      <point x="329" y="27"/>
      <point x="319" y="27" type="curve" smooth="yes"/>
      <point x="306" y="27"/>
      <point x="292" y="25"/>
      <point x="279" y="25" type="curve" smooth="yes"/>
      <point x="260" y="25"/>
      <point x="253" y="31"/>
      <point x="253" y="51" type="curve" smooth="yes"/>
      <point x="253" y="364" type="line"/>
      <point x="582" y="364" type="line"/>
      <point x="582" y="53" type="line" smooth="yes"/>
      <point x="582" y="33"/>
      <point x="576" y="27"/>
      <point x="556" y="27" type="curve" smooth="yes"/>
      <point x="543" y="27"/>
      <point x="530" y="29"/>
      <point x="516" y="29" type="curve" smooth="yes"/>
      <point x="507" y="29"/>
      <point x="497" y="24"/>
      <point x="497" y="13" type="curve" smooth="yes"/>
      <point x="497" y="2"/>
      <point x="501" y="-7"/>
      <point x="514" y="-7" type="curve" smooth="yes"/>
      <point x="528" y="-7"/>
      <point x="542" y="-5"/>
      <point x="556" y="-5" type="curve" smooth="yes"/>
      <point x="602" y="-2"/>
      <point x="648" y="-3"/>
      <point x="695" y="-3" type="curve" smooth="yes"/>
      <point x="715" y="-3"/>
      <point x="735" y="-3"/>
      <point x="755" y="-5" type="curve" smooth="yes"/>
      <point x="766" y="-5"/>
      <point x="776" y="-7"/>
      <point x="787" y="-7" type="curve" smooth="yes"/>
      <point x="797" y="-7"/>
      <point x="803" y="-1"/>
      <point x="803" y="8" type="curve" smooth="yes"/>
      <point x="803" y="17"/>
      <point x="800" y="29"/>
      <point x="789" y="29" type="curve" smooth="yes"/>
      <point x="772" y="29"/>
      <point x="755" y="27"/>
      <point x="737" y="27" type="curve" smooth="yes"/>
      <point x="723" y="27"/>
      <point x="721" y="42"/>
      <point x="721" y="53" type="curve" smooth="yes"/>
      <point x="721" y="174"/>
      <point x="720" y="295"/>
      <point x="720" y="416" type="curve" smooth="yes"/>
      <point x="720" y="502"/>
      <point x="721" y="587"/>
      <point x="721" y="672" type="curve" smooth="yes"/>
      <point x="721" y="683"/>
      <point x="723" y="698"/>
      <point x="737" y="698" type="curve" smooth="yes"/>
      <point x="755" y="698"/>
      <point x="772" y="696"/>
      <point x="789" y="696" type="curve" smooth="yes"/>
      <point x="800" y="696"/>
      <point x="805" y="705"/>
    </contour>
  </outline>
</glyph>
<glyph name="J" format="2">
  <advance height="1000" width="456"/>
  <unicode hex="004A"/>
  <note>
cid00043
</note>
  <outline>
    <contour>
      <point x="428" y="714" type="curve" smooth="yes"/>
      <point x="428" y="727"/>
      <point x="422" y="734"/>
      <point x="409" y="734" type="curve" smooth="yes"/>
      <point x="359" y="734"/>
      <point x="309" y="730"/>
      <point x="259" y="730" type="curve" smooth="yes"/>
      <point x="222" y="730"/>
      <point x="186" y="730"/>
      <point x="150" y="732" type="curve" smooth="yes"/>
      <point x="134" y="733"/>
      <point x="117" y="734"/>
      <point x="101" y="734" type="curve" smooth="yes"/>
      <point x="90" y="734"/>
      <point x="85" y="723"/>
      <point x="85" y="714" type="curve" smooth="yes"/>
      <point x="85" y="705"/>
      <point x="92" y="695"/>
      <point x="101" y="695" type="curve" smooth="yes"/>
      <point x="119" y="695"/>
      <point x="136" y="698"/>
      <point x="153" y="698" type="curve" smooth="yes"/>
      <point x="158" y="698"/>
      <point x="163" y="698"/>
      <point x="167" y="697" type="curve" smooth="yes"/>
      <point x="193" y="693"/>
      <point x="190" y="651"/>
      <point x="190" y="632" type="curve" smooth="yes"/>
      <point x="190" y="25" type="line" smooth="yes"/>
      <point x="191" y="-43"/>
      <point x="197" y="-151"/>
      <point x="101" y="-151" type="curve" smooth="yes"/>
      <point x="84" y="-151"/>
      <point x="46" y="-146"/>
      <point x="46" y="-123" type="curve" smooth="yes"/>
      <point x="46" y="-109"/>
      <point x="61" y="-98"/>
      <point x="72" y="-93" type="curve"/>
      <point x="72" y="-59"/>
      <point x="34" y="-47"/>
      <point x="6" y="-47" type="curve" smooth="yes"/>
      <point x="-28" y="-47"/>
      <point x="-69" y="-63"/>
      <point x="-69" y="-103" type="curve" smooth="yes"/>
      <point x="-69" y="-139"/>
      <point x="-15" y="-169"/>
      <point x="17" y="-176" type="curve" smooth="yes"/>
      <point x="45" y="-181"/>
      <point x="75" y="-181"/>
      <point x="103" y="-181" type="curve" smooth="yes"/>
      <point x="279" y="-181"/>
      <point x="334" y="-58"/>
      <point x="334" y="98" type="curve" smooth="yes"/>
      <point x="334" y="276"/>
      <point x="333" y="454"/>
      <point x="334" y="632" type="curve" smooth="yes"/>
      <point x="334" y="657"/>
      <point x="331" y="696"/>
      <point x="366" y="696" type="curve" smooth="yes"/>
      <point x="381" y="696"/>
      <point x="395" y="695"/>
      <point x="409" y="695" type="curve" smooth="yes"/>
      <point x="420" y="695"/>
      <point x="428" y="704"/>
    </contour>
  </outline>
</glyph>
<glyph name="K" format="2">
  <advance height="1000" width="722"/>
  <unicode hex="004B"/>
  <note>
cid00044
</note>
  <outline>
    <contour>
      <point x="721" y="16" type="curve" smooth="yes"/>
      <point x="721" y="36"/>
      <point x="673" y="20"/>
      <point x="645" y="54" type="curve" smooth="yes"/>
      <point x="543" y="180"/>
      <point x="443" y="310"/>
      <point x="349" y="443" type="curve"/>
      <point x="587" y="670" type="line" smooth="yes"/>
      <point x="607" y="689"/>
      <point x="632" y="701"/>
      <point x="659" y="701" type="curve" smooth="yes"/>
      <point x="672" y="701"/>
      <point x="685" y="702"/>
      <point x="685" y="719" type="curve" smooth="yes"/>
      <point x="685" y="730"/>
      <point x="679" y="736"/>
      <point x="668" y="736" type="curve" smooth="yes"/>
      <point x="637" y="736"/>
      <point x="607" y="734"/>
      <point x="576" y="734" type="curve" smooth="yes"/>
      <point x="546" y="735" type="line" smooth="yes"/>
      <point x="527" y="735"/>
      <point x="525" y="733"/>
      <point x="520" y="715" type="curve" smooth="yes"/>
      <point x="517" y="703"/>
      <point x="513" y="694"/>
      <point x="505" y="684" type="curve" smooth="yes"/>
      <point x="425" y="581"/>
      <point x="335" y="490"/>
      <point x="241" y="399" type="curve"/>
      <point x="241" y="534" type="line" smooth="yes"/>
      <point x="241" y="582"/>
      <point x="242" y="631"/>
      <point x="242" y="679" type="curve" smooth="yes"/>
      <point x="242" y="691"/>
      <point x="249" y="704"/>
      <point x="262" y="704" type="curve" smooth="yes"/>
      <point x="279" y="704"/>
      <point x="297" y="703"/>
      <point x="314" y="703" type="curve" smooth="yes"/>
      <point x="322" y="703"/>
      <point x="327" y="713"/>
      <point x="327" y="720" type="curve" smooth="yes"/>
      <point x="327" y="727"/>
      <point x="322" y="736"/>
      <point x="314" y="736" type="curve" smooth="yes"/>
      <point x="295" y="736"/>
      <point x="276" y="733"/>
      <point x="257" y="733" type="curve" smooth="yes"/>
      <point x="211" y="733"/>
      <point x="164" y="733"/>
      <point x="118" y="733" type="curve" smooth="yes"/>
      <point x="89" y="733"/>
      <point x="60" y="736"/>
      <point x="31" y="736" type="curve" smooth="yes"/>
      <point x="20" y="736"/>
      <point x="17" y="726"/>
      <point x="17" y="717" type="curve" smooth="yes"/>
      <point x="17" y="707"/>
      <point x="28" y="703"/>
      <point x="36" y="703" type="curve" smooth="yes"/>
      <point x="94" y="703"/>
      <point x="106" y="713"/>
      <point x="106" y="645" type="curve" smooth="yes"/>
      <point x="106" y="70" type="line" smooth="yes"/>
      <point x="106" y="48"/>
      <point x="104" y="32"/>
      <point x="78" y="32" type="curve" smooth="yes"/>
      <point x="63" y="32"/>
      <point x="48" y="34"/>
      <point x="32" y="34" type="curve" smooth="yes"/>
      <point x="22" y="34"/>
      <point x="15" y="29"/>
      <point x="15" y="18" type="curve" smooth="yes"/>
      <point x="15" y="7"/>
      <point x="20" y="-2"/>
      <point x="32" y="-2" type="curve" smooth="yes"/>
      <point x="50" y="-2"/>
      <point x="67" y="-1"/>
      <point x="85" y="0" type="curve" smooth="yes"/>
      <point x="129" y="2"/>
      <point x="174" y="1"/>
      <point x="219" y="1" type="curve" smooth="yes"/>
      <point x="250" y="1"/>
      <point x="281" y="-2"/>
      <point x="313" y="-2" type="curve" smooth="yes"/>
      <point x="321" y="-2"/>
      <point x="327" y="9"/>
      <point x="327" y="16" type="curve" smooth="yes"/>
      <point x="327" y="24"/>
      <point x="322" y="34"/>
      <point x="313" y="34" type="curve" smooth="yes"/>
      <point x="296" y="34"/>
      <point x="278" y="32"/>
      <point x="261" y="32" type="curve" smooth="yes"/>
      <point x="247" y="32"/>
      <point x="242" y="46"/>
      <point x="242" y="58" type="curve" smooth="yes"/>
      <point x="242" y="157"/>
      <point x="242" y="257"/>
      <point x="241" y="357" type="curve"/>
      <point x="254" y="367" type="line"/>
      <point x="331" y="258"/>
      <point x="407" y="149"/>
      <point x="483" y="40" type="curve" smooth="yes"/>
      <point x="503" y="11"/>
      <point x="516" y="0"/>
      <point x="553" y="0" type="curve" smooth="yes"/>
      <point x="617" y="0" type="line" smooth="yes"/>
      <point x="646" y="0"/>
      <point x="675" y="0"/>
      <point x="704" y="0" type="curve" smooth="yes"/>
      <point x="711" y="0"/>
      <point x="717" y="2"/>
      <point x="720" y="8" type="curve" smooth="yes"/>
      <point x="721" y="10"/>
      <point x="721" y="14"/>
    </contour>
  </outline>
</glyph>
<glyph name="L" format="2">
  <advance height="1000" width="670"/>
  <unicode hex="004C"/>
  <note>
cid00045
</note>
  <outline>
    <contour>
      <point x="653" y="230" type="curve" smooth="yes"/>
      <point x="653" y="239"/>
      <point x="644" y="245"/>
      <point x="636" y="245" type="curve" smooth="yes"/>
      <point x="622" y="245"/>
      <point x="617" y="233"/>
      <point x="613" y="221" type="curve" smooth="yes"/>
      <point x="563" y="67"/>
      <point x="476" y="33"/>
      <point x="326" y="33" type="curve" smooth="yes"/>
      <point x="309" y="33"/>
      <point x="289" y="32"/>
      <point x="272" y="36" type="curve" smooth="yes"/>
      <point x="258" y="40"/>
      <point x="252" y="53"/>
      <point x="252" y="67" type="curve" smooth="yes"/>
      <point x="252" y="222"/>
      <point x="251" y="378"/>
      <point x="251" y="533" type="curve" smooth="yes"/>
      <point x="251" y="582"/>
      <point x="252" y="630"/>
      <point x="252" y="679" type="curve" smooth="yes"/>
      <point x="252" y="692"/>
      <point x="253" y="700"/>
      <point x="268" y="700" type="curve" smooth="yes"/>
      <point x="286" y="700"/>
      <point x="303" y="698"/>
      <point x="320" y="698" type="curve" smooth="yes"/>
      <point x="331" y="698"/>
      <point x="336" y="708"/>
      <point x="336" y="718" type="curve" smooth="yes"/>
      <point x="336" y="728"/>
      <point x="331" y="735"/>
      <point x="320" y="735" type="curve" smooth="yes"/>
      <point x="302" y="735"/>
      <point x="285" y="732"/>
      <point x="267" y="731" type="curve" smooth="yes"/>
      <point x="241" y="730"/>
      <point x="215" y="730"/>
      <point x="189" y="730" type="curve" smooth="yes"/>
      <point x="157" y="730"/>
      <point x="126" y="731"/>
      <point x="94" y="732" type="curve" smooth="yes"/>
      <point x="78" y="733"/>
      <point x="62" y="735"/>
      <point x="47" y="735" type="curve" smooth="yes"/>
      <point x="35" y="735"/>
      <point x="27" y="727"/>
      <point x="27" y="716" type="curve" smooth="yes"/>
      <point x="27" y="705"/>
      <point x="36" y="698"/>
      <point x="46" y="698" type="curve" smooth="yes"/>
      <point x="62" y="698"/>
      <point x="77" y="700"/>
      <point x="92" y="700" type="curve" smooth="yes"/>
      <point x="107" y="700"/>
      <point x="112" y="697"/>
      <point x="112" y="681" type="curve" smooth="yes"/>
      <point x="113" y="475"/>
      <point x="113" y="268"/>
      <point x="113" y="61" type="curve" smooth="yes"/>
      <point x="113" y="37"/>
      <point x="100" y="34"/>
      <point x="79" y="34" type="curve" smooth="yes"/>
      <point x="68" y="34"/>
      <point x="57" y="36"/>
      <point x="46" y="36" type="curve" smooth="yes"/>
      <point x="35" y="36"/>
      <point x="25" y="29"/>
      <point x="25" y="16" type="curve" smooth="yes"/>
      <point x="25" y="4"/>
      <point x="35" y="-3"/>
      <point x="47" y="-3" type="curve" smooth="yes"/>
      <point x="61" y="-3"/>
      <point x="76" y="-2"/>
      <point x="91" y="-1" type="curve" smooth="yes"/>
      <point x="120" y="0"/>
      <point x="149" y="0"/>
      <point x="178" y="0" type="curve" smooth="yes"/>
      <point x="292" y="0" type="line" smooth="yes"/>
      <point x="376" y="0"/>
      <point x="460" y="0"/>
      <point x="544" y="-1" type="curve" smooth="yes"/>
      <point x="561" y="-1"/>
      <point x="577" y="-2"/>
      <point x="593" y="-2" type="curve" smooth="yes"/>
      <point x="603" y="-2"/>
      <point x="619" y="-1"/>
      <point x="626" y="8" type="curve" smooth="yes"/>
      <point x="629" y="13"/>
      <point x="630" y="19"/>
      <point x="630" y="25" type="curve" smooth="yes"/>
      <point x="634" y="72"/>
      <point x="641" y="118"/>
      <point x="647" y="165" type="curve" smooth="yes"/>
      <point x="649" y="187"/>
      <point x="653" y="208"/>
    </contour>
  </outline>
</glyph>
<glyph name="M" format="2">
  <advance height="1000" width="947"/>
  <unicode hex="004D"/>
  <note>
cid00046
</note>
  <outline>
    <contour>
      <point x="928" y="18" type="curve" smooth="yes"/>
      <point x="928" y="27"/>
      <point x="920" y="33"/>
      <point x="912" y="33" type="curve" smooth="yes"/>
      <point x="895" y="33"/>
      <point x="879" y="31"/>
      <point x="863" y="31" type="curve" smooth="yes"/>
      <point x="838" y="31"/>
      <point x="837" y="65"/>
      <point x="837" y="83" type="curve" smooth="yes"/>
      <point x="837" y="200"/>
      <point x="836" y="318"/>
      <point x="836" y="435" type="curve" smooth="yes"/>
      <point x="836" y="514"/>
      <point x="837" y="593"/>
      <point x="837" y="671" type="curve" smooth="yes"/>
      <point x="837" y="683"/>
      <point x="842" y="697"/>
      <point x="856" y="697" type="curve" smooth="yes"/>
      <point x="875" y="697"/>
      <point x="894" y="696"/>
      <point x="913" y="696" type="curve" smooth="yes"/>
      <point x="923" y="696"/>
      <point x="927" y="709"/>
      <point x="927" y="717" type="curve" smooth="yes"/>
      <point x="927" y="725"/>
      <point x="923" y="736"/>
      <point x="913" y="736" type="curve" smooth="yes"/>
      <point x="871" y="736"/>
      <point x="829" y="732"/>
      <point x="788" y="732" type="curve" smooth="yes"/>
      <point x="756" y="732"/>
      <point x="725" y="733"/>
      <point x="694" y="734" type="curve"/>
      <point x="634" y="546"/>
      <point x="548" y="368"/>
      <point x="476" y="185" type="curve"/>
      <point x="253" y="737" type="line"/>
      <point x="214" y="733"/>
      <point x="175" y="734"/>
      <point x="136" y="734" type="curve" smooth="yes"/>
      <point x="104" y="734"/>
      <point x="71" y="736"/>
      <point x="39" y="736" type="curve" smooth="yes"/>
      <point x="27" y="736"/>
      <point x="19" y="729"/>
      <point x="19" y="717" type="curve" smooth="yes"/>
      <point x="19" y="706"/>
      <point x="28" y="697"/>
      <point x="39" y="697" type="curve" smooth="yes"/>
      <point x="52" y="697"/>
      <point x="65" y="699"/>
      <point x="79" y="699" type="curve" smooth="yes"/>
      <point x="101" y="699"/>
      <point x="107" y="689"/>
      <point x="107" y="668" type="curve" smooth="yes"/>
      <point x="107" y="465"/>
      <point x="104" y="262"/>
      <point x="104" y="59" type="curve" smooth="yes"/>
      <point x="104" y="33"/>
      <point x="95" y="31"/>
      <point x="72" y="31" type="curve" smooth="yes"/>
      <point x="60" y="31"/>
      <point x="47" y="33"/>
      <point x="35" y="33" type="curve" smooth="yes"/>
      <point x="27" y="33"/>
      <point x="16" y="27"/>
      <point x="16" y="17" type="curve" smooth="yes"/>
      <point x="16" y="5"/>
      <point x="18" y="-3"/>
      <point x="32" y="-3" type="curve" smooth="yes"/>
      <point x="75" y="-3"/>
      <point x="119" y="-1"/>
      <point x="162" y="-1" type="curve" smooth="yes"/>
      <point x="186" y="-1"/>
      <point x="210" y="-3"/>
      <point x="234" y="-3" type="curve" smooth="yes"/>
      <point x="242" y="-3"/>
      <point x="248" y="8"/>
      <point x="248" y="15" type="curve" smooth="yes"/>
      <point x="248" y="24"/>
      <point x="240" y="33"/>
      <point x="231" y="33" type="curve" smooth="yes"/>
      <point x="214" y="33"/>
      <point x="198" y="31"/>
      <point x="181" y="31" type="curve" smooth="yes"/>
      <point x="158" y="31"/>
      <point x="161" y="60"/>
      <point x="161" y="76" type="curve" smooth="yes"/>
      <point x="161" y="258"/>
      <point x="157" y="440"/>
      <point x="157" y="623" type="curve"/>
      <point x="234" y="426"/>
      <point x="317" y="232"/>
      <point x="393" y="35" type="curve"/>
      <point x="471" y="35" type="line"/>
      <point x="545" y="225"/>
      <point x="625" y="412"/>
      <point x="701" y="601" type="curve"/>
      <point x="701" y="81" type="line" smooth="yes"/>
      <point x="701" y="65"/>
      <point x="704" y="34"/>
      <point x="681" y="32" type="curve" smooth="yes"/>
      <point x="678" y="32"/>
      <point x="674" y="32"/>
      <point x="671" y="32" type="curve" smooth="yes"/>
      <point x="659" y="32"/>
      <point x="647" y="34"/>
      <point x="635" y="34" type="curve" smooth="yes"/>
      <point x="626" y="34"/>
      <point x="615" y="28"/>
      <point x="615" y="17" type="curve" smooth="yes"/>
      <point x="615" y="6"/>
      <point x="620" y="-4"/>
      <point x="633" y="-4" type="curve" smooth="yes"/>
      <point x="678" y="-4"/>
      <point x="724" y="-1"/>
      <point x="769" y="-1" type="curve" smooth="yes"/>
      <point x="816" y="-1"/>
      <point x="863" y="-3"/>
      <point x="911" y="-3" type="curve" smooth="yes"/>
      <point x="924" y="-3"/>
      <point x="928" y="6"/>
    </contour>
  </outline>
</glyph>
<glyph name="N" format="2">
  <advance height="1000" width="780"/>
  <unicode hex="004E"/>
  <note>
cid00047
</note>
  <outline>
    <contour>
      <point x="766" y="718" type="curve" smooth="yes"/>
      <point x="766" y="729"/>
      <point x="757" y="737"/>
      <point x="746" y="737" type="curve" smooth="yes"/>
      <point x="711" y="737"/>
      <point x="676" y="733"/>
      <point x="641" y="733" type="curve" smooth="yes"/>
      <point x="615" y="733"/>
      <point x="589" y="735"/>
      <point x="563" y="735" type="curve" smooth="yes"/>
      <point x="550" y="735"/>
      <point x="539" y="734"/>
      <point x="539" y="718" type="curve" smooth="yes"/>
      <point x="539" y="706"/>
      <point x="545" y="697"/>
      <point x="558" y="697" type="curve" smooth="yes"/>
      <point x="566" y="697"/>
      <point x="574" y="700"/>
      <point x="582" y="700" type="curve" smooth="yes"/>
      <point x="609" y="700" type="line" smooth="yes"/>
      <point x="626" y="700"/>
      <point x="627" y="676"/>
      <point x="627" y="664" type="curve" smooth="yes"/>
      <point x="627" y="523"/>
      <point x="626" y="381"/>
      <point x="626" y="240" type="curve"/>
      <point x="577" y="301"/>
      <point x="529" y="364"/>
      <point x="482" y="427" type="curve" smooth="yes"/>
      <point x="402" y="532"/>
      <point x="311" y="628"/>
      <point x="232" y="735" type="curve"/>
      <point x="201" y="735"/>
      <point x="170" y="734"/>
      <point x="139" y="734" type="curve" smooth="yes"/>
      <point x="105" y="734"/>
      <point x="70" y="736"/>
      <point x="36" y="736" type="curve" smooth="yes"/>
      <point x="24" y="736"/>
      <point x="18" y="730"/>
      <point x="18" y="718" type="curve" smooth="yes"/>
      <point x="18" y="707"/>
      <point x="24" y="699"/>
      <point x="35" y="699" type="curve" smooth="yes"/>
      <point x="52" y="699"/>
      <point x="69" y="701"/>
      <point x="85" y="701" type="curve" smooth="yes"/>
      <point x="106" y="701"/>
      <point x="110" y="679"/>
      <point x="110" y="662" type="curve" smooth="yes"/>
      <point x="110" y="645"/>
      <point x="110" y="629"/>
      <point x="110" y="612" type="curve" smooth="yes"/>
      <point x="110" y="428"/>
      <point x="105" y="244"/>
      <point x="105" y="60" type="curve" smooth="yes"/>
      <point x="105" y="36"/>
      <point x="95" y="33"/>
      <point x="75" y="33" type="curve" smooth="yes"/>
      <point x="62" y="33"/>
      <point x="50" y="36"/>
      <point x="37" y="36" type="curve" smooth="yes"/>
      <point x="27" y="36"/>
      <point x="18" y="28"/>
      <point x="18" y="17" type="curve" smooth="yes"/>
      <point x="18" y="4"/>
      <point x="23" y="-4"/>
      <point x="38" y="-4" type="curve" smooth="yes"/>
      <point x="49" y="-4"/>
      <point x="60" y="-3"/>
      <point x="72" y="-2" type="curve" smooth="yes"/>
      <point x="103" y="1"/>
      <point x="135" y="1"/>
      <point x="166" y="1" type="curve" smooth="yes"/>
      <point x="189" y="1"/>
      <point x="211" y="-3"/>
      <point x="234" y="-3" type="curve" smooth="yes"/>
      <point x="244" y="-3"/>
      <point x="249" y="7"/>
      <point x="249" y="16" type="curve" smooth="yes"/>
      <point x="249" y="23"/>
      <point x="246" y="36"/>
      <point x="236" y="36" type="curve" smooth="yes"/>
      <point x="218" y="36"/>
      <point x="199" y="34"/>
      <point x="180" y="34" type="curve" smooth="yes"/>
      <point x="164" y="34"/>
      <point x="163" y="58"/>
      <point x="163" y="70" type="curve" smooth="yes"/>
      <point x="163" y="250"/>
      <point x="164" y="429"/>
      <point x="164" y="609" type="curve"/>
      <point x="289" y="433"/>
      <point x="432" y="271"/>
      <point x="555" y="93" type="curve" smooth="yes"/>
      <point x="576" y="64"/>
      <point x="597" y="32"/>
      <point x="608" y="-3" type="curve"/>
      <point x="627" y="-2"/>
      <point x="649" y="-4"/>
      <point x="668" y="-1" type="curve" smooth="yes"/>
      <point x="680" y="0"/>
      <point x="680" y="7"/>
      <point x="680" y="17" type="curve" smooth="yes"/>
      <point x="680" y="640" type="line" smooth="yes"/>
      <point x="680" y="652"/>
      <point x="676" y="700"/>
      <point x="696" y="700" type="curve" smooth="yes"/>
      <point x="703" y="700"/>
      <point x="709" y="701"/>
      <point x="715" y="701" type="curve" smooth="yes"/>
      <point x="726" y="701"/>
      <point x="736" y="699"/>
      <point x="747" y="699" type="curve" smooth="yes"/>
      <point x="759" y="699"/>
      <point x="766" y="705"/>
    </contour>
  </outline>
</glyph>
<glyph name="P" format="2">
  <advance height="1000" width="624"/>
  <unicode hex="0050"/>
  <note>
cid00049
</note>
  <outline>
    <contour>
      <point x="465" y="549" type="curve" smooth="yes"/>
      <point x="465" y="460"/>
      <point x="433" y="372"/>
      <point x="329" y="372" type="curve" smooth="yes"/>
      <point x="304" y="372"/>
      <point x="275" y="374"/>
      <point x="255" y="392" type="curve"/>
      <point x="254" y="483"/>
      <point x="254" y="575"/>
      <point x="254" y="666" type="curve" smooth="yes"/>
      <point x="254" y="703"/>
      <point x="260" y="703"/>
      <point x="293" y="703" type="curve" smooth="yes"/>
      <point x="306" y="703"/>
      <point x="320" y="702"/>
      <point x="333" y="702" type="curve" smooth="yes"/>
      <point x="423" y="702"/>
      <point x="465" y="633"/>
    </contour>
    <contour>
      <point x="609" y="552" type="curve" smooth="yes"/>
      <point x="609" y="689"/>
      <point x="488" y="734"/>
      <point x="371" y="734" type="curve" smooth="yes"/>
      <point x="310" y="734"/>
      <point x="249" y="729"/>
      <point x="188" y="729" type="curve" smooth="yes"/>
      <point x="158" y="729"/>
      <point x="128" y="730"/>
      <point x="98" y="731" type="curve" smooth="yes"/>
      <point x="83" y="732"/>
      <point x="68" y="734"/>
      <point x="53" y="734" type="curve" smooth="yes"/>
      <point x="43" y="734"/>
      <point x="33" y="724"/>
      <point x="33" y="715" type="curve" smooth="yes"/>
      <point x="33" y="706"/>
      <point x="44" y="696"/>
      <point x="53" y="696" type="curve" smooth="yes"/>
      <point x="66" y="696"/>
      <point x="79" y="698"/>
      <point x="93" y="698" type="curve" smooth="yes"/>
      <point x="96" y="698"/>
      <point x="99" y="698"/>
      <point x="103" y="698" type="curve" smooth="yes"/>
      <point x="119" y="697"/>
      <point x="119" y="669"/>
      <point x="119" y="658" type="curve" smooth="yes"/>
      <point x="119" y="69" type="line" smooth="yes"/>
      <point x="119" y="55"/>
      <point x="119" y="29"/>
      <point x="100" y="28" type="curve" smooth="yes"/>
      <point x="97" y="28"/>
      <point x="93" y="28"/>
      <point x="90" y="28" type="curve" smooth="yes"/>
      <point x="77" y="28"/>
      <point x="65" y="30"/>
      <point x="53" y="30" type="curve" smooth="yes"/>
      <point x="44" y="30"/>
      <point x="34" y="25"/>
      <point x="34" y="15" type="curve" smooth="yes"/>
      <point x="34" y="5"/>
      <point x="37" y="-5"/>
      <point x="50" y="-5" type="curve" smooth="yes"/>
      <point x="64" y="-5"/>
      <point x="78" y="-4"/>
      <point x="93" y="-3" type="curve" smooth="yes"/>
      <point x="124" y="-1"/>
      <point x="156" y="0"/>
      <point x="188" y="0" type="curve" smooth="yes"/>
      <point x="215" y="0"/>
      <point x="243" y="0"/>
      <point x="270" y="-2" type="curve" smooth="yes"/>
      <point x="288" y="-3"/>
      <point x="305" y="-5"/>
      <point x="323" y="-5" type="curve" smooth="yes"/>
      <point x="331" y="-5"/>
      <point x="339" y="1"/>
      <point x="339" y="10" type="curve" smooth="yes"/>
      <point x="339" y="17"/>
      <point x="332" y="31"/>
      <point x="323" y="31" type="curve" smooth="yes"/>
      <point x="306" y="31"/>
      <point x="289" y="29"/>
      <point x="272" y="29" type="curve" smooth="yes"/>
      <point x="258" y="29"/>
      <point x="255" y="44"/>
      <point x="255" y="55" type="curve" smooth="yes"/>
      <point x="255" y="152"/>
      <point x="255" y="249"/>
      <point x="255" y="346" type="curve"/>
      <point x="279" y="343"/>
      <point x="303" y="340"/>
      <point x="327" y="340" type="curve" smooth="yes"/>
      <point x="475" y="340"/>
      <point x="609" y="376"/>
    </contour>
  </outline>
</glyph>
<glyph name="Q" format="2">
  <advance height="1000" width="820"/>
  <unicode hex="0051"/>
  <note>
cid00050
</note>
  <outline>
    <contour>
      <point x="434" y="26" type="curve"/>
      <point x="428" y="26"/>
      <point x="422" y="25"/>
      <point x="416" y="25" type="curve" smooth="yes"/>
      <point x="367" y="25"/>
      <point x="295" y="73"/>
      <point x="271" y="115" type="curve"/>
      <point x="276" y="143"/>
      <point x="299" y="196"/>
      <point x="333" y="196" type="curve" smooth="yes"/>
      <point x="342" y="196"/>
      <point x="351" y="192"/>
      <point x="358" y="185" type="curve" smooth="yes"/>
      <point x="366" y="177"/>
      <point x="372" y="166"/>
      <point x="377" y="155" type="curve" smooth="yes"/>
      <point x="395" y="111"/>
      <point x="413" y="68"/>
    </contour>
    <contour>
      <point x="612" y="358" type="curve" smooth="yes"/>
      <point x="612" y="258"/>
      <point x="602" y="146"/>
      <point x="524" y="74" type="curve"/>
      <point x="508" y="108"/>
      <point x="493" y="143"/>
      <point x="472" y="175" type="curve" smooth="yes"/>
      <point x="439" y="224"/>
      <point x="411" y="240"/>
      <point x="352" y="240" type="curve" smooth="yes"/>
      <point x="314" y="240"/>
      <point x="263" y="193"/>
      <point x="242" y="165" type="curve"/>
      <point x="213" y="216"/>
      <point x="207" y="300"/>
      <point x="207" y="358" type="curve" smooth="yes"/>
      <point x="207" y="481"/>
      <point x="250" y="681"/>
      <point x="393" y="708" type="curve" smooth="yes"/>
      <point x="398" y="709"/>
      <point x="402" y="709"/>
      <point x="407" y="709" type="curve" smooth="yes"/>
      <point x="412" y="709"/>
      <point x="417" y="709"/>
      <point x="422" y="708" type="curve" smooth="yes"/>
      <point x="571" y="681"/>
      <point x="612" y="485"/>
    </contour>
    <contour>
      <point x="796" y="-45" type="curve" smooth="yes"/>
      <point x="796" y="-37"/>
      <point x="789" y="-31"/>
      <point x="782" y="-31" type="curve" smooth="yes"/>
      <point x="767" y="-31"/>
      <point x="741" y="-72"/>
      <point x="701" y="-72" type="curve" smooth="yes"/>
      <point x="646" y="-72"/>
      <point x="593" y="-14"/>
      <point x="562" y="27" type="curve"/>
      <point x="684" y="90"/>
      <point x="759" y="221"/>
      <point x="759" y="358" type="curve" smooth="yes"/>
      <point x="759" y="577"/>
      <point x="648" y="740"/>
      <point x="415" y="740" type="curve" smooth="yes"/>
      <point x="195" y="740"/>
      <point x="65" y="572"/>
      <point x="65" y="361" type="curve" smooth="yes"/>
      <point x="65" y="155"/>
      <point x="203" y="-3"/>
      <point x="413" y="-3" type="curve" smooth="yes"/>
      <point x="425" y="-3"/>
      <point x="438" y="-3"/>
      <point x="450" y="-2" type="curve"/>
      <point x="471" y="-33"/>
      <point x="497" y="-65"/>
      <point x="527" y="-88" type="curve" smooth="yes"/>
      <point x="565" y="-118"/>
      <point x="608" y="-121"/>
      <point x="655" y="-121" type="curve" smooth="yes"/>
      <point x="713" y="-121"/>
      <point x="761" y="-100"/>
      <point x="794" y="-52" type="curve" smooth="yes"/>
      <point x="795" y="-50"/>
      <point x="796" y="-47"/>
    </contour>
  </outline>
</glyph>
<glyph name="R" format="2">
  <advance height="1000" width="707"/>
  <unicode hex="0052"/>
  <note>
cid00051
</note>
  <outline>
    <contour>
      <point x="462" y="550" type="curve" smooth="yes"/>
      <point x="462" y="432"/>
      <point x="383" y="401"/>
      <point x="279" y="401" type="curve" smooth="yes"/>
      <point x="269" y="401"/>
      <point x="260" y="401"/>
      <point x="251" y="403" type="curve"/>
      <point x="251" y="444" type="line" smooth="yes"/>
      <point x="251" y="522"/>
      <point x="252" y="599"/>
      <point x="252" y="676" type="curve" smooth="yes"/>
      <point x="252" y="690"/>
      <point x="254" y="698"/>
      <point x="268" y="702" type="curve" smooth="yes"/>
      <point x="279" y="704"/>
      <point x="291" y="704"/>
      <point x="302" y="704" type="curve" smooth="yes"/>
      <point x="320" y="704" type="line" smooth="yes"/>
      <point x="423" y="704"/>
      <point x="462" y="649"/>
    </contour>
    <contour>
      <point x="716" y="14" type="curve" smooth="yes"/>
      <point x="716" y="24"/>
      <point x="711" y="25"/>
      <point x="702" y="25" type="curve" smooth="yes"/>
      <point x="671" y="25"/>
      <point x="639" y="47"/>
      <point x="621" y="73" type="curve" smooth="yes"/>
      <point x="552" y="173"/>
      <point x="482" y="275"/>
      <point x="423" y="382" type="curve"/>
      <point x="530" y="404"/>
      <point x="611" y="446"/>
      <point x="611" y="568" type="curve" smooth="yes"/>
      <point x="611" y="701"/>
      <point x="471" y="736"/>
      <point x="363" y="736" type="curve" smooth="yes"/>
      <point x="300" y="736"/>
      <point x="237" y="729"/>
      <point x="173" y="729" type="curve" smooth="yes"/>
      <point x="146" y="729"/>
      <point x="118" y="729"/>
      <point x="91" y="731" type="curve" smooth="yes"/>
      <point x="77" y="732"/>
      <point x="64" y="733"/>
      <point x="51" y="733" type="curve" smooth="yes"/>
      <point x="38" y="733"/>
      <point x="29" y="727"/>
      <point x="29" y="714" type="curve" smooth="yes"/>
      <point x="29" y="703"/>
      <point x="41" y="696"/>
      <point x="51" y="696" type="curve" smooth="yes"/>
      <point x="64" y="696"/>
      <point x="77" y="698"/>
      <point x="91" y="698" type="curve" smooth="yes"/>
      <point x="110" y="698"/>
      <point x="117" y="692"/>
      <point x="117" y="672" type="curve" smooth="yes"/>
      <point x="117" y="54" type="line" smooth="yes"/>
      <point x="117" y="32"/>
      <point x="101" y="28"/>
      <point x="83" y="28" type="curve" smooth="yes"/>
      <point x="69" y="28"/>
      <point x="56" y="30"/>
      <point x="43" y="30" type="curve" smooth="yes"/>
      <point x="34" y="30"/>
      <point x="24" y="23"/>
      <point x="24" y="14" type="curve" smooth="yes"/>
      <point x="24" y="2"/>
      <point x="29" y="-4"/>
      <point x="41" y="-4" type="curve" smooth="yes"/>
      <point x="99" y="-4"/>
      <point x="157" y="0"/>
      <point x="215" y="0" type="curve" smooth="yes"/>
      <point x="239" y="0"/>
      <point x="263" y="0"/>
      <point x="287" y="-2" type="curve" smooth="yes"/>
      <point x="298" y="-2"/>
      <point x="308" y="-4"/>
      <point x="320" y="-4" type="curve" smooth="yes"/>
      <point x="329" y="-4"/>
      <point x="334" y="4"/>
      <point x="334" y="13" type="curve" smooth="yes"/>
      <point x="334" y="20"/>
      <point x="327" y="31"/>
      <point x="320" y="31" type="curve" smooth="yes"/>
      <point x="304" y="31"/>
      <point x="288" y="29"/>
      <point x="272" y="29" type="curve" smooth="yes"/>
      <point x="258" y="29"/>
      <point x="252" y="43"/>
      <point x="252" y="55" type="curve" smooth="yes"/>
      <point x="252" y="161"/>
      <point x="251" y="267"/>
      <point x="251" y="373" type="curve"/>
      <point x="293" y="372" type="line"/>
      <point x="352" y="263"/>
      <point x="409" y="152"/>
      <point x="471" y="45" type="curve" smooth="yes"/>
      <point x="499" y="-4"/>
      <point x="540" y="-8"/>
      <point x="591" y="-8" type="curve" smooth="yes"/>
      <point x="610" y="-8"/>
      <point x="716" y="-9"/>
    </contour>
  </outline>
</glyph>
<glyph name="S" format="2">
  <advance height="1000" width="594"/>
  <unicode hex="0053"/>
  <note>
cid00052
</note>
  <outline>
    <contour>
      <point x="562" y="184" type="curve" smooth="yes"/>
      <point x="562" y="306"/>
      <point x="453" y="375"/>
      <point x="354" y="422" type="curve" smooth="yes"/>
      <point x="326" y="435"/>
      <point x="297" y="449"/>
      <point x="269" y="464" type="curve" smooth="yes"/>
      <point x="218" y="493"/>
      <point x="180" y="523"/>
      <point x="180" y="587" type="curve" smooth="yes"/>
      <point x="180" y="649"/>
      <point x="213" y="713"/>
      <point x="282" y="713" type="curve" smooth="yes"/>
      <point x="329" y="713"/>
      <point x="375" y="695"/>
      <point x="405" y="658" type="curve" smooth="yes"/>
      <point x="433" y="623"/>
      <point x="444" y="582"/>
      <point x="460" y="541" type="curve" smooth="yes"/>
      <point x="466" y="526"/>
      <point x="472" y="518"/>
      <point x="490" y="518" type="curve" smooth="yes"/>
      <point x="512" y="518"/>
      <point x="519" y="536"/>
      <point x="519" y="555" type="curve" smooth="yes"/>
      <point x="519" y="562"/>
      <point x="518" y="569"/>
      <point x="517" y="576" type="curve" smooth="yes"/>
      <point x="512" y="619"/>
      <point x="506" y="661"/>
      <point x="502" y="704" type="curve"/>
      <point x="492" y="703"/>
      <point x="483" y="702"/>
      <point x="473" y="702" type="curve" smooth="yes"/>
      <point x="458" y="702"/>
      <point x="446" y="705"/>
      <point x="432" y="710" type="curve" smooth="yes"/>
      <point x="386" y="729"/>
      <point x="339" y="745"/>
      <point x="289" y="745" type="curve" smooth="yes"/>
      <point x="170" y="745"/>
      <point x="52" y="683"/>
      <point x="52" y="551" type="curve" smooth="yes"/>
      <point x="52" y="473"/>
      <point x="119" y="410"/>
      <point x="184" y="377" type="curve" smooth="yes"/>
      <point x="223" y="357"/>
      <point x="263" y="339"/>
      <point x="302" y="318" type="curve" smooth="yes"/>
      <point x="364" y="284"/>
      <point x="421" y="250"/>
      <point x="421" y="170" type="curve" smooth="yes"/>
      <point x="421" y="78"/>
      <point x="369" y="20"/>
      <point x="276" y="20" type="curve" smooth="yes"/>
      <point x="207" y="20"/>
      <point x="153" y="60"/>
      <point x="130" y="123" type="curve" smooth="yes"/>
      <point x="121" y="148"/>
      <point x="116" y="174"/>
      <point x="107" y="198" type="curve" smooth="yes"/>
      <point x="101" y="215"/>
      <point x="93" y="222"/>
      <point x="74" y="222" type="curve" smooth="yes"/>
      <point x="54" y="222"/>
      <point x="48" y="208"/>
      <point x="48" y="190" type="curve" smooth="yes"/>
      <point x="48" y="168"/>
      <point x="53" y="147"/>
      <point x="56" y="125" type="curve" smooth="yes"/>
      <point x="61" y="93"/>
      <point x="65" y="62"/>
      <point x="69" y="30" type="curve"/>
      <point x="93" y="30"/>
      <point x="114" y="29"/>
      <point x="137" y="21" type="curve" smooth="yes"/>
      <point x="183" y="4"/>
      <point x="228" y="-13"/>
      <point x="277" y="-13" type="curve" smooth="yes"/>
      <point x="404" y="-13"/>
      <point x="562" y="29"/>
    </contour>
  </outline>
</glyph>
<glyph name="T" format="2">
  <advance height="1000" width="690"/>
  <unicode hex="0054"/>
  <note>
cid00053
</note>
  <outline>
    <contour>
      <point x="684" y="551" type="curve" smooth="yes"/>
      <point x="684" y="589"/>
      <point x="678" y="629"/>
      <point x="674" y="667" type="curve" smooth="yes"/>
      <point x="672" y="686"/>
      <point x="672" y="713"/>
      <point x="668" y="732" type="curve"/>
      <point x="667" y="734"/>
      <point x="664" y="737"/>
      <point x="661" y="737" type="curve" smooth="yes"/>
      <point x="646" y="737"/>
      <point x="632" y="729"/>
      <point x="618" y="727" type="curve" smooth="yes"/>
      <point x="610" y="726"/>
      <point x="601" y="726"/>
      <point x="593" y="726" type="curve" smooth="yes"/>
      <point x="514" y="726"/>
      <point x="424" y="724"/>
      <point x="345" y="724" type="curve" smooth="yes"/>
      <point x="275" y="724"/>
      <point x="195" y="724"/>
      <point x="125" y="726" type="curve" smooth="yes"/>
      <point x="108" y="727"/>
      <point x="91" y="727"/>
      <point x="75" y="729" type="curve" smooth="yes"/>
      <point x="60" y="732"/>
      <point x="45" y="737"/>
      <point x="30" y="737" type="curve" smooth="yes"/>
      <point x="25" y="737"/>
      <point x="24" y="735"/>
      <point x="23" y="730" type="curve" smooth="yes"/>
      <point x="19" y="710"/>
      <point x="21" y="687"/>
      <point x="20" y="666" type="curve" smooth="yes"/>
      <point x="19" y="627"/>
      <point x="8" y="579"/>
      <point x="8" y="544" type="curve" smooth="yes"/>
      <point x="8" y="532"/>
      <point x="13" y="524"/>
      <point x="27" y="524" type="curve" smooth="yes"/>
      <point x="48" y="524"/>
      <point x="53" y="532"/>
      <point x="59" y="551" type="curve" smooth="yes"/>
      <point x="70" y="582"/>
      <point x="79" y="614"/>
      <point x="90" y="645" type="curve" smooth="yes"/>
      <point x="96" y="664"/>
      <point x="106" y="679"/>
      <point x="124" y="689" type="curve" smooth="yes"/>
      <point x="138" y="697"/>
      <point x="176" y="697"/>
      <point x="193" y="697" type="curve" smooth="yes"/>
      <point x="270" y="697"/>
      <point x="274" y="708"/>
      <point x="274" y="630" type="curve" smooth="yes"/>
      <point x="274" y="72" type="line" smooth="yes"/>
      <point x="274" y="43"/>
      <point x="276" y="26"/>
      <point x="241" y="26" type="curve" smooth="yes"/>
      <point x="228" y="26"/>
      <point x="215" y="27"/>
      <point x="201" y="27" type="curve" smooth="yes"/>
      <point x="190" y="27"/>
      <point x="175" y="26"/>
      <point x="175" y="11" type="curve" smooth="yes"/>
      <point x="175" y="0"/>
      <point x="182" y="-9"/>
      <point x="194" y="-9" type="curve" smooth="yes"/>
      <point x="210" y="-9"/>
      <point x="227" y="-7"/>
      <point x="243" y="-6" type="curve" smooth="yes"/>
      <point x="287" y="-4"/>
      <point x="331" y="-4"/>
      <point x="375" y="-4" type="curve" smooth="yes"/>
      <point x="401" y="-4"/>
      <point x="427" y="-4"/>
      <point x="452" y="-6" type="curve" smooth="yes"/>
      <point x="467" y="-7"/>
      <point x="482" y="-9"/>
      <point x="497" y="-9" type="curve" smooth="yes"/>
      <point x="507" y="-9"/>
      <point x="514" y="-1"/>
      <point x="514" y="9" type="curve" smooth="yes"/>
      <point x="514" y="17"/>
      <point x="508" y="28"/>
      <point x="498" y="28" type="curve" smooth="yes"/>
      <point x="478" y="28"/>
      <point x="459" y="26"/>
      <point x="439" y="26" type="curve" smooth="yes"/>
      <point x="417" y="26"/>
      <point x="416" y="54"/>
      <point x="416" y="70" type="curve" smooth="yes"/>
      <point x="416" y="222"/>
      <point x="415" y="374"/>
      <point x="415" y="526" type="curve" smooth="yes"/>
      <point x="415" y="573"/>
      <point x="414" y="620"/>
      <point x="416" y="666" type="curve" smooth="yes"/>
      <point x="418" y="702"/>
      <point x="456" y="697"/>
      <point x="482" y="697" type="curve" smooth="yes"/>
      <point x="504" y="697"/>
      <point x="559" y="697"/>
      <point x="574" y="680" type="curve" smooth="yes"/>
      <point x="581" y="673"/>
      <point x="588" y="666"/>
      <point x="593" y="658" type="curve" smooth="yes"/>
      <point x="608" y="635"/>
      <point x="625" y="578"/>
      <point x="632" y="551" type="curve" smooth="yes"/>
      <point x="637" y="533"/>
      <point x="642" y="524"/>
      <point x="663" y="524" type="curve" smooth="yes"/>
      <point x="678" y="524"/>
      <point x="684" y="537"/>
    </contour>
  </outline>
</glyph>
<glyph name="V" format="2">
  <advance height="1000" width="754"/>
  <unicode hex="0056"/>
  <note>
cid00055
</note>
  <outline>
    <contour>
      <point x="750" y="714" type="curve" smooth="yes"/>
      <point x="750" y="723"/>
      <point x="742" y="734"/>
      <point x="732" y="734" type="curve" smooth="yes"/>
      <point x="697" y="734"/>
      <point x="660" y="730"/>
      <point x="625" y="730" type="curve" smooth="yes"/>
      <point x="607" y="729"/>
      <point x="590" y="729"/>
      <point x="572" y="729" type="curve" smooth="yes"/>
      <point x="553" y="729"/>
      <point x="534" y="731"/>
      <point x="515" y="731" type="curve" smooth="yes"/>
      <point x="505" y="731"/>
      <point x="498" y="723"/>
      <point x="498" y="713" type="curve" smooth="yes"/>
      <point x="498" y="700"/>
      <point x="510" y="694"/>
      <point x="521" y="694" type="curve" smooth="yes"/>
      <point x="533" y="694"/>
      <point x="544" y="697"/>
      <point x="556" y="697" type="curve" smooth="yes"/>
      <point x="574" y="697"/>
      <point x="588" y="702"/>
      <point x="588" y="679" type="curve" smooth="yes"/>
      <point x="588" y="660"/>
      <point x="581" y="638"/>
      <point x="577" y="619" type="curve" smooth="yes"/>
      <point x="533" y="444"/>
      <point x="481" y="269"/>
      <point x="423" y="97" type="curve"/>
      <point x="367" y="265"/>
      <point x="305" y="451"/>
      <point x="249" y="628" type="curve" smooth="yes"/>
      <point x="245" y="641"/>
      <point x="239" y="658"/>
      <point x="239" y="671" type="curve" smooth="yes"/>
      <point x="239" y="685"/>
      <point x="247" y="695"/>
      <point x="262" y="695" type="curve" smooth="yes"/>
      <point x="283" y="695"/>
      <point x="304" y="694"/>
      <point x="325" y="694" type="curve" smooth="yes"/>
      <point x="335" y="694"/>
      <point x="340" y="704"/>
      <point x="340" y="713" type="curve" smooth="yes"/>
      <point x="340" y="722"/>
      <point x="336" y="732"/>
      <point x="325" y="732" type="curve" smooth="yes"/>
      <point x="310" y="732"/>
      <point x="294" y="731"/>
      <point x="279" y="730" type="curve" smooth="yes"/>
      <point x="218" y="728"/>
      <point x="156" y="729"/>
      <point x="95" y="729" type="curve" smooth="yes"/>
      <point x="70" y="729"/>
      <point x="45" y="731"/>
      <point x="21" y="731" type="curve" smooth="yes"/>
      <point x="9" y="731"/>
      <point x="2" y="721"/>
      <point x="2" y="710" type="curve" smooth="yes"/>
      <point x="2" y="693"/>
      <point x="14" y="691"/>
      <point x="28" y="691" type="curve" smooth="yes"/>
      <point x="48" y="691"/>
      <point x="76" y="693"/>
      <point x="85" y="670" type="curve" smooth="yes"/>
      <point x="93" y="649"/>
      <point x="107" y="616"/>
      <point x="114" y="595" type="curve" smooth="yes"/>
      <point x="132" y="544"/>
      <point x="148" y="506"/>
      <point x="166" y="455" type="curve" smooth="yes"/>
      <point x="221" y="302"/>
      <point x="280" y="143"/>
      <point x="328" y="-7" type="curve"/>
      <point x="416" y="-5" type="line" smooth="yes"/>
      <point x="434" y="-5"/>
      <point x="445" y="14"/>
      <point x="450" y="29" type="curve" smooth="yes"/>
      <point x="467" y="80"/>
      <point x="484" y="130"/>
      <point x="501" y="181" type="curve" smooth="yes"/>
      <point x="537" y="287"/>
      <point x="573" y="392"/>
      <point x="607" y="499" type="curve" smooth="yes"/>
      <point x="625" y="555"/>
      <point x="641" y="611"/>
      <point x="662" y="666" type="curve" smooth="yes"/>
      <point x="666" y="678"/>
      <point x="677" y="697"/>
      <point x="691" y="697" type="curve" smooth="yes"/>
      <point x="703" y="697"/>
      <point x="717" y="695"/>
      <point x="730" y="695" type="curve" smooth="yes"/>
      <point x="743" y="695"/>
      <point x="750" y="700"/>
    </contour>
  </outline>
</glyph>
<glyph name="W" format="2">
  <advance height="1000" width="1000"/>
  <unicode hex="0057"/>
  <note>
cid00056
</note>
  <outline>
    <contour>
      <point x="982" y="717" type="curve" smooth="yes"/>
      <point x="982" y="727"/>
      <point x="974" y="734"/>
      <point x="964" y="734" type="curve" smooth="yes"/>
      <point x="915" y="734"/>
      <point x="867" y="732"/>
      <point x="818" y="732" type="curve" smooth="yes"/>
      <point x="794" y="732"/>
      <point x="769" y="734"/>
      <point x="745" y="734" type="curve" smooth="yes"/>
      <point x="734" y="734"/>
      <point x="730" y="726"/>
      <point x="730" y="716" type="curve" smooth="yes"/>
      <point x="730" y="707"/>
      <point x="737" y="699"/>
      <point x="746" y="699" type="curve" smooth="yes"/>
      <point x="760" y="699"/>
      <point x="773" y="701"/>
      <point x="786" y="701" type="curve" smooth="yes"/>
      <point x="794" y="701"/>
      <point x="802" y="701"/>
      <point x="810" y="701" type="curve" smooth="yes"/>
      <point x="819" y="701"/>
      <point x="828" y="684"/>
      <point x="828" y="677" type="curve" smooth="yes"/>
      <point x="828" y="661"/>
      <point x="826" y="644"/>
      <point x="824" y="628" type="curve" smooth="yes"/>
      <point x="815" y="554"/>
      <point x="799" y="481"/>
      <point x="786" y="408" type="curve" smooth="yes"/>
      <point x="769" y="313"/>
      <point x="747" y="220"/>
      <point x="728" y="125" type="curve"/>
      <point x="689" y="259"/>
      <point x="651" y="392"/>
      <point x="613" y="525" type="curve" smooth="yes"/>
      <point x="601" y="569"/>
      <point x="589" y="612"/>
      <point x="577" y="655" type="curve" smooth="yes"/>
      <point x="573" y="671"/>
      <point x="571" y="692"/>
      <point x="563" y="706" type="curve" smooth="yes"/>
      <point x="556" y="722"/>
      <point x="542" y="722"/>
      <point x="526" y="722" type="curve" smooth="yes"/>
      <point x="506" y="722"/>
      <point x="499" y="717"/>
      <point x="493" y="698" type="curve" smooth="yes"/>
      <point x="487" y="681"/>
      <point x="483" y="662"/>
      <point x="479" y="644" type="curve" smooth="yes"/>
      <point x="468" y="602"/>
      <point x="459" y="560"/>
      <point x="447" y="518" type="curve" smooth="yes"/>
      <point x="413" y="387"/>
      <point x="371" y="258"/>
      <point x="334" y="127" type="curve"/>
      <point x="304" y="301"/>
      <point x="268" y="474"/>
      <point x="241" y="648" type="curve" smooth="yes"/>
      <point x="240" y="655"/>
      <point x="239" y="662"/>
      <point x="239" y="669" type="curve" smooth="yes"/>
      <point x="239" y="689"/>
      <point x="245" y="695"/>
      <point x="266" y="695" type="curve" smooth="yes"/>
      <point x="275" y="695"/>
      <point x="284" y="694"/>
      <point x="293" y="694" type="curve" smooth="yes"/>
      <point x="304" y="694"/>
      <point x="311" y="703"/>
      <point x="311" y="713" type="curve" smooth="yes"/>
      <point x="311" y="721"/>
      <point x="302" y="731"/>
      <point x="293" y="731" type="curve" smooth="yes"/>
      <point x="246" y="731"/>
      <point x="199" y="728"/>
      <point x="151" y="728" type="curve" smooth="yes"/>
      <point x="111" y="728"/>
      <point x="71" y="731"/>
      <point x="32" y="731" type="curve" smooth="yes"/>
      <point x="24" y="731"/>
      <point x="11" y="723"/>
      <point x="11" y="714" type="curve" smooth="yes"/>
      <point x="11" y="703"/>
      <point x="16" y="691"/>
      <point x="30" y="691" type="curve" smooth="yes"/>
      <point x="66" y="691"/>
      <point x="83" y="700"/>
      <point x="96" y="657" type="curve" smooth="yes"/>
      <point x="103" y="631"/>
      <point x="107" y="603"/>
      <point x="113" y="577" type="curve" smooth="yes"/>
      <point x="145" y="430" type="line" smooth="yes"/>
      <point x="177" y="284"/>
      <point x="208" y="139"/>
      <point x="236" y="-7" type="curve"/>
      <point x="344" y="-7" type="line"/>
      <point x="394" y="158"/>
      <point x="446" y="323"/>
      <point x="493" y="488" type="curve"/>
      <point x="540" y="323"/>
      <point x="591" y="159"/>
      <point x="635" y="-7" type="curve"/>
      <point x="750" y="-7" type="line"/>
      <point x="798" y="202"/>
      <point x="850" y="409"/>
      <point x="894" y="619" type="curve" smooth="yes"/>
      <point x="898" y="636"/>
      <point x="901" y="658"/>
      <point x="908" y="675" type="curve" smooth="yes"/>
      <point x="916" y="691"/>
      <point x="932" y="697"/>
      <point x="949" y="697" type="curve" smooth="yes"/>
      <point x="964" y="697"/>
      <point x="982" y="695"/>
    </contour>
  </outline>
</glyph>
<glyph name="X" format="2">
  <advance height="1000" width="765"/>
  <unicode hex="0058"/>
  <note>
cid00057
</note>
  <outline>
    <contour>
      <point x="763" y="19" type="curve" smooth="yes"/>
      <point x="763" y="30"/>
      <point x="755" y="35"/>
      <point x="745" y="35" type="curve" smooth="yes"/>
      <point x="712" y="35"/>
      <point x="688" y="33"/>
      <point x="665" y="62" type="curve" smooth="yes"/>
      <point x="632" y="103"/>
      <point x="602" y="149"/>
      <point x="572" y="193" type="curve" smooth="yes"/>
      <point x="524" y="262"/>
      <point x="478" y="332"/>
      <point x="433" y="403" type="curve"/>
      <point x="496" y="490"/>
      <point x="557" y="578"/>
      <point x="618" y="666" type="curve" smooth="yes"/>
      <point x="623" y="674"/>
      <point x="631" y="680"/>
      <point x="639" y="686" type="curve" smooth="yes"/>
      <point x="664" y="707"/>
      <point x="723" y="682"/>
      <point x="723" y="717" type="curve" smooth="yes"/>
      <point x="723" y="727"/>
      <point x="716" y="735"/>
      <point x="707" y="735" type="curve" smooth="yes"/>
      <point x="694" y="735"/>
      <point x="681" y="734"/>
      <point x="668" y="733" type="curve" smooth="yes"/>
      <point x="628" y="731"/>
      <point x="587" y="731"/>
      <point x="547" y="731" type="curve" smooth="yes"/>
      <point x="524" y="731"/>
      <point x="501" y="733"/>
      <point x="478" y="733" type="curve" smooth="yes"/>
      <point x="468" y="733"/>
      <point x="462" y="726"/>
      <point x="462" y="716" type="curve" smooth="yes"/>
      <point x="462" y="700"/>
      <point x="475" y="700"/>
      <point x="487" y="700" type="curve" smooth="yes"/>
      <point x="501" y="700"/>
      <point x="518" y="702"/>
      <point x="532" y="698" type="curve" smooth="yes"/>
      <point x="538" y="697"/>
      <point x="539" y="694"/>
      <point x="539" y="688" type="curve" smooth="yes"/>
      <point x="539" y="657"/>
      <point x="424" y="478"/>
      <point x="400" y="437" type="curve"/>
      <point x="367" y="495"/>
      <point x="332" y="552"/>
      <point x="300" y="610" type="curve" smooth="yes"/>
      <point x="279" y="648"/>
      <point x="260" y="686"/>
      <point x="239" y="724" type="curve" smooth="yes"/>
      <point x="232" y="737"/>
      <point x="229" y="742"/>
      <point x="213" y="742" type="curve" smooth="yes"/>
      <point x="195" y="742"/>
      <point x="174" y="737"/>
      <point x="156" y="734" type="curve" smooth="yes"/>
      <point x="119" y="730"/>
      <point x="80" y="724"/>
      <point x="43" y="724" type="curve" smooth="yes"/>
      <point x="30" y="724"/>
      <point x="21" y="719"/>
      <point x="21" y="705" type="curve" smooth="yes"/>
      <point x="21" y="693"/>
      <point x="27" y="685"/>
      <point x="39" y="685" type="curve" smooth="yes"/>
      <point x="55" y="685"/>
      <point x="70" y="689"/>
      <point x="86" y="689" type="curve" smooth="yes"/>
      <point x="96" y="689"/>
      <point x="103" y="688"/>
      <point x="109" y="680" type="curve" smooth="yes"/>
      <point x="135" y="644"/>
      <point x="158" y="605"/>
      <point x="182" y="568" type="curve" smooth="yes"/>
      <point x="229" y="495"/>
      <point x="274" y="421"/>
      <point x="321" y="347" type="curve"/>
      <point x="271" y="265"/>
      <point x="202" y="169"/>
      <point x="142" y="94" type="curve" smooth="yes"/>
      <point x="128" y="77"/>
      <point x="115" y="59"/>
      <point x="98" y="45" type="curve" smooth="yes"/>
      <point x="81" y="30"/>
      <point x="63" y="28"/>
      <point x="41" y="28" type="curve" smooth="yes"/>
      <point x="28" y="28"/>
      <point x="2" y="34"/>
      <point x="2" y="12" type="curve" smooth="yes"/>
      <point x="2" y="6"/>
      <point x="11" y="-5"/>
      <point x="18" y="-5" type="curve" smooth="yes"/>
      <point x="52" y="-5"/>
      <point x="86" y="-2"/>
      <point x="120" y="-2" type="curve" smooth="yes"/>
      <point x="148" y="-2"/>
      <point x="175" y="-2"/>
      <point x="203" y="-3" type="curve" smooth="yes"/>
      <point x="216" y="-3"/>
      <point x="230" y="-4"/>
      <point x="243" y="-4" type="curve" smooth="yes"/>
      <point x="254" y="-4"/>
      <point x="260" y="2"/>
      <point x="260" y="13" type="curve" smooth="yes"/>
      <point x="260" y="21"/>
      <point x="254" y="28"/>
      <point x="245" y="28" type="curve" smooth="yes"/>
      <point x="224" y="28"/>
      <point x="204" y="25"/>
      <point x="183" y="25" type="curve" smooth="yes"/>
      <point x="178" y="25"/>
      <point x="172" y="26"/>
      <point x="172" y="32" type="curve" smooth="yes"/>
      <point x="172" y="46"/>
      <point x="331" y="274"/>
      <point x="353" y="310" type="curve"/>
      <point x="374" y="277"/>
      <point x="509" y="66"/>
      <point x="509" y="40" type="curve" smooth="yes"/>
      <point x="509" y="30"/>
      <point x="496" y="29"/>
      <point x="488" y="29" type="curve" smooth="yes"/>
      <point x="473" y="29"/>
      <point x="447" y="34"/>
      <point x="447" y="12" type="curve" smooth="yes"/>
      <point x="447" y="1"/>
      <point x="456" y="-2"/>
      <point x="465" y="-2" type="curve" smooth="yes"/>
      <point x="511" y="-2"/>
      <point x="558" y="0"/>
      <point x="604" y="0" type="curve" smooth="yes"/>
      <point x="648" y="0"/>
      <point x="692" y="-1"/>
      <point x="735" y="-1" type="curve" smooth="yes"/>
      <point x="751" y="-1"/>
      <point x="763" y="0"/>
    </contour>
  </outline>
</glyph>
<glyph name="Z" format="2">
  <advance height="1000" width="645"/>
  <unicode hex="005A"/>
  <note>
cid00059
</note>
  <outline>
    <contour>
      <point x="621" y="229" type="curve" smooth="yes"/>
      <point x="621" y="240"/>
      <point x="611" y="246"/>
      <point x="601" y="246" type="curve" smooth="yes"/>
      <point x="585" y="246"/>
      <point x="582" y="234"/>
      <point x="578" y="221" type="curve" smooth="yes"/>
      <point x="563" y="173"/>
      <point x="534" y="111"/>
      <point x="497" y="77" type="curve" smooth="yes"/>
      <point x="477" y="58"/>
      <point x="445" y="50"/>
      <point x="418" y="47" type="curve" smooth="yes"/>
      <point x="357" y="41"/>
      <point x="295" y="37"/>
      <point x="233" y="37" type="curve" smooth="yes"/>
      <point x="217" y="37"/>
      <point x="194" y="37"/>
      <point x="194" y="59" type="curve" smooth="yes"/>
      <point x="194" y="76"/>
      <point x="202" y="92"/>
      <point x="212" y="107" type="curve" smooth="yes"/>
      <point x="590" y="679" type="line" smooth="yes"/>
      <point x="599" y="691"/>
      <point x="604" y="696"/>
      <point x="604" y="713" type="curve" smooth="yes"/>
      <point x="604" y="719"/>
      <point x="596" y="730"/>
      <point x="589" y="730" type="curve" smooth="yes"/>
      <point x="484" y="730"/>
      <point x="379" y="725"/>
      <point x="275" y="725" type="curve" smooth="yes"/>
      <point x="223" y="725"/>
      <point x="170" y="725"/>
      <point x="119" y="729" type="curve" smooth="yes"/>
      <point x="103" y="730"/>
      <point x="87" y="732"/>
      <point x="70" y="732" type="curve" smooth="yes"/>
      <point x="58" y="732"/>
      <point x="55" y="728"/>
      <point x="54" y="716" type="curve" smooth="yes"/>
      <point x="51" y="677"/>
      <point x="53" y="638"/>
      <point x="50" y="599" type="curve" smooth="yes"/>
      <point x="48" y="579"/>
      <point x="46" y="559"/>
      <point x="46" y="538" type="curve" smooth="yes"/>
      <point x="46" y="527"/>
      <point x="56" y="518"/>
      <point x="68" y="518" type="curve" smooth="yes"/>
      <point x="84" y="518"/>
      <point x="93" y="527"/>
      <point x="97" y="543" type="curve" smooth="yes"/>
      <point x="102" y="560"/>
      <point x="107" y="576"/>
      <point x="114" y="593" type="curve" smooth="yes"/>
      <point x="132" y="635"/>
      <point x="177" y="681"/>
      <point x="223" y="689" type="curve" smooth="yes"/>
      <point x="254" y="694"/>
      <point x="286" y="694"/>
      <point x="317" y="694" type="curve" smooth="yes"/>
      <point x="358" y="694" type="line" smooth="yes"/>
      <point x="378" y="694"/>
      <point x="404" y="692"/>
      <point x="404" y="665" type="curve" smooth="yes"/>
      <point x="404" y="625"/>
      <point x="262" y="406"/>
      <point x="233" y="358" type="curve" smooth="yes"/>
      <point x="174" y="261"/>
      <point x="108" y="168"/>
      <point x="43" y="74" type="curve" smooth="yes"/>
      <point x="36" y="64"/>
      <point x="27" y="53"/>
      <point x="22" y="42" type="curve" smooth="yes"/>
      <point x="19" y="36"/>
      <point x="18" y="30"/>
      <point x="18" y="23" type="curve" smooth="yes"/>
      <point x="18" y="10"/>
      <point x="25" y="-5"/>
      <point x="41" y="-5" type="curve" smooth="yes"/>
      <point x="47" y="-5"/>
      <point x="53" y="-4"/>
      <point x="59" y="-3" type="curve" smooth="yes"/>
      <point x="80" y="-1"/>
      <point x="102" y="-1"/>
      <point x="123" y="-1" type="curve" smooth="yes"/>
      <point x="253" y="-1"/>
      <point x="383" y="2"/>
      <point x="513" y="2" type="curve" smooth="yes"/>
      <point x="522" y="2"/>
      <point x="531" y="1"/>
      <point x="540" y="1" type="curve" smooth="yes"/>
      <point x="552" y="0"/>
      <point x="564" y="-4"/>
      <point x="577" y="-4" type="curve" smooth="yes"/>
      <point x="595" y="-4"/>
      <point x="599" y="9"/>
      <point x="600" y="24" type="curve" smooth="yes"/>
      <point x="602" y="53"/>
      <point x="603" y="82"/>
      <point x="607" y="111" type="curve" smooth="yes"/>
      <point x="610" y="136"/>
      <point x="614" y="162"/>
      <point x="617" y="187" type="curve" smooth="yes"/>
      <point x="618" y="201"/>
      <point x="621" y="215"/>
    </contour>
  </outline>
</glyph>
<glyph name="bracketright" format="2">
  <advance height="1000" width="450"/>
  <unicode hex="005D"/>
  <note>
cid00062
</note>
  <outline>
    <contour>
      <point x="432" y="-99" type="line"/>
      <point x="432" y="854" type="line"/>
      <point x="162" y="854" type="line"/>
      <point x="162" y="814" type="line"/>
      <point x="341" y="814" type="line"/>
      <point x="341" y="-60" type="line"/>
      <point x="162" y="-60" type="line"/>
      <point x="162" y="-99" type="line"/>
    </contour>
  </outline>
</glyph>
<glyph name="asciicircum" format="2">
  <advance height="1000" width="560"/>
  <unicode hex="005E"/>
  <note>
cid00063
</note>
  <outline>
    <contour>
      <point x="534" y="474" type="line"/>
      <point x="323" y="744" type="line"/>
      <point x="237" y="745" type="line"/>
      <point x="26" y="474" type="line"/>
      <point x="113" y="474" type="line"/>
      <point x="280" y="684" type="line"/>
      <point x="447" y="474" type="line"/>
    </contour>
  </outline>
</glyph>
<glyph name="grave" format="2">
  <advance height="1000" width="390"/>
  <unicode hex="0060"/>
  <note>
cid00065
</note>
  <outline>
    <contour>
      <point x="279" y="578" type="curve" smooth="yes"/>
      <point x="279" y="581"/>
      <point x="278" y="585"/>
      <point x="278" y="588" type="curve"/>
      <point x="238" y="803" type="line" smooth="yes"/>
      <point x="232" y="831"/>
      <point x="206" y="857"/>
      <point x="177" y="857" type="curve" smooth="yes"/>
      <point x="145" y="857"/>
      <point x="112" y="833"/>
      <point x="112" y="799" type="curve" smooth="yes"/>
      <point x="112" y="784"/>
      <point x="118" y="770"/>
      <point x="125" y="756" type="curve" smooth="yes"/>
      <point x="157" y="699"/>
      <point x="189" y="641"/>
      <point x="220" y="582" type="curve" smooth="yes"/>
      <point x="227" y="570"/>
      <point x="237" y="551"/>
      <point x="254" y="551" type="curve" smooth="yes"/>
      <point x="272" y="551"/>
      <point x="279" y="560"/>
    </contour>
  </outline>
</glyph>
<glyph name="b" format="2">
  <advance height="1000" width="610"/>
  <unicode hex="0062"/>
  <note>
cid00067
</note>
  <outline>
    <contour>
      <point x="437" y="279" type="curve" smooth="yes"/>
      <point x="437" y="179"/>
      <point x="406" y="26"/>
      <point x="279" y="26" type="curve" smooth="yes"/>
      <point x="239" y="26"/>
      <point x="231" y="46"/>
      <point x="231" y="83" type="curve" smooth="yes"/>
      <point x="231" y="428" type="line" smooth="yes"/>
      <point x="231" y="431"/>
      <point x="236" y="440"/>
      <point x="237" y="443" type="curve"/>
      <point x="254" y="471"/>
      <point x="292" y="499"/>
      <point x="325" y="499" type="curve" smooth="yes"/>
      <point x="341" y="499"/>
      <point x="356" y="492"/>
      <point x="369" y="482" type="curve" smooth="yes"/>
      <point x="425" y="440"/>
      <point x="437" y="344"/>
    </contour>
    <contour>
      <point x="573" y="278" type="curve" smooth="yes"/>
      <point x="573" y="415"/>
      <point x="505" y="531"/>
      <point x="355" y="531" type="curve" smooth="yes"/>
      <point x="312" y="531"/>
      <point x="267" y="517"/>
      <point x="230" y="495" type="curve"/>
      <point x="230" y="754" type="line" smooth="yes"/>
      <point x="230" y="766"/>
      <point x="218" y="774"/>
      <point x="207" y="774" type="curve" smooth="yes"/>
      <point x="197" y="774"/>
      <point x="187" y="769"/>
      <point x="177" y="767" type="curve" smooth="yes"/>
      <point x="141" y="756"/>
      <point x="103" y="751"/>
      <point x="66" y="745" type="curve" smooth="yes"/>
      <point x="52" y="743"/>
      <point x="36" y="742"/>
      <point x="22" y="738" type="curve" smooth="yes"/>
      <point x="16" y="736"/>
      <point x="13" y="734"/>
      <point x="13" y="726" type="curve" smooth="yes"/>
      <point x="13" y="721"/>
      <point x="16" y="714"/>
      <point x="22" y="714" type="curve" smooth="yes"/>
      <point x="43" y="714"/>
      <point x="63" y="717"/>
      <point x="84" y="717" type="curve" smooth="yes"/>
      <point x="103" y="717"/>
      <point x="105" y="694"/>
      <point x="105" y="680" type="curve" smooth="yes"/>
      <point x="105" y="83" type="line" smooth="yes"/>
      <point x="105" y="63"/>
      <point x="103" y="42"/>
      <point x="98" y="22" type="curve"/>
      <point x="98" y="19"/>
      <point x="96" y="15"/>
      <point x="96" y="12" type="curve" smooth="yes"/>
      <point x="96" y="3"/>
      <point x="105" y="1"/>
      <point x="112" y="1" type="curve" smooth="yes"/>
      <point x="134" y="1"/>
      <point x="155" y="9"/>
      <point x="178" y="9" type="curve" smooth="yes"/>
      <point x="219" y="9"/>
      <point x="258" y="-2"/>
      <point x="299" y="-2" type="curve" smooth="yes"/>
      <point x="468" y="-2"/>
      <point x="573" y="110"/>
    </contour>
  </outline>
</glyph>
<glyph name="c" format="2">
  <advance height="1000" width="540"/>
  <unicode hex="0063"/>
  <note>
cid00068
</note>
  <outline>
    <contour>
      <point x="529" y="133" type="curve" smooth="yes"/>
      <point x="529" y="143"/>
      <point x="519" y="151"/>
      <point x="509" y="151" type="curve" smooth="yes"/>
      <point x="502" y="151"/>
      <point x="498" y="148"/>
      <point x="493" y="143" type="curve" smooth="yes"/>
      <point x="488" y="137"/>
      <point x="484" y="131"/>
      <point x="480" y="125" type="curve" smooth="yes"/>
      <point x="470" y="112"/>
      <point x="459" y="100"/>
      <point x="448" y="89" type="curve" smooth="yes"/>
      <point x="413" y="54"/>
      <point x="358" y="31"/>
      <point x="309" y="31" type="curve" smooth="yes"/>
      <point x="206" y="31"/>
      <point x="172" y="182"/>
      <point x="172" y="262" type="curve" smooth="yes"/>
      <point x="172" y="346"/>
      <point x="202" y="513"/>
      <point x="313" y="513" type="curve" smooth="yes"/>
      <point x="334" y="513"/>
      <point x="366" y="497"/>
      <point x="381" y="483" type="curve" smooth="yes"/>
      <point x="419" y="448"/>
      <point x="431" y="400"/>
      <point x="447" y="352" type="curve" smooth="yes"/>
      <point x="450" y="341"/>
      <point x="455" y="334"/>
      <point x="469" y="334" type="curve" smooth="yes"/>
      <point x="489" y="334"/>
      <point x="492" y="350"/>
      <point x="492" y="367" type="curve" smooth="yes"/>
      <point x="492" y="399"/>
      <point x="487" y="431"/>
      <point x="486" y="463" type="curve" smooth="yes"/>
      <point x="485" y="477"/>
      <point x="485" y="493"/>
      <point x="483" y="507" type="curve" smooth="yes"/>
      <point x="483" y="511"/>
      <point x="482" y="515"/>
      <point x="477" y="515" type="curve" smooth="yes"/>
      <point x="469" y="515"/>
      <point x="454" y="498"/>
      <point x="439" y="498" type="curve" smooth="yes"/>
      <point x="430" y="498"/>
      <point x="374" y="526"/>
      <point x="358" y="531" type="curve" smooth="yes"/>
      <point x="340" y="537"/>
      <point x="320" y="540"/>
      <point x="301" y="540" type="curve" smooth="yes"/>
      <point x="136" y="540"/>
      <point x="44" y="410"/>
      <point x="44" y="255" type="curve" smooth="yes"/>
      <point x="44" y="171"/>
      <point x="76" y="92"/>
      <point x="145" y="42" type="curve" smooth="yes"/>
      <point x="187" y="13"/>
      <point x="252" y="-4"/>
      <point x="302" y="-4" type="curve" smooth="yes"/>
      <point x="388" y="-4"/>
      <point x="481" y="38"/>
      <point x="523" y="116" type="curve" smooth="yes"/>
      <point x="526" y="121"/>
      <point x="529" y="127"/>
    </contour>
  </outline>
</glyph>
<glyph name="d" format="2">
  <advance height="1000" width="606"/>
  <unicode hex="0064"/>
  <note>
cid00069
</note>
  <outline>
    <contour>
      <point x="393" y="380" type="curve" smooth="yes"/>
      <point x="393" y="136" type="line"/>
      <point x="378" y="96"/>
      <point x="330" y="37"/>
      <point x="284" y="37" type="curve" smooth="yes"/>
      <point x="183" y="37"/>
      <point x="173" y="185"/>
      <point x="173" y="259" type="curve" smooth="yes"/>
      <point x="173" y="327"/>
      <point x="190" y="440"/>
      <point x="247" y="484" type="curve" smooth="yes"/>
      <point x="266" y="498"/>
      <point x="285" y="503"/>
      <point x="307" y="503" type="curve" smooth="yes"/>
      <point x="370" y="503"/>
      <point x="393" y="432"/>
    </contour>
    <contour>
      <point x="603" y="42" type="curve" smooth="yes"/>
      <point x="603" y="47"/>
      <point x="600" y="53"/>
      <point x="594" y="53" type="curve" smooth="yes"/>
      <point x="585" y="53"/>
      <point x="568" y="43"/>
      <point x="553" y="43" type="curve" smooth="yes"/>
      <point x="520" y="43"/>
      <point x="519" y="85"/>
      <point x="519" y="109" type="curve" smooth="yes"/>
      <point x="519" y="760" type="line" smooth="yes"/>
      <point x="519" y="770"/>
      <point x="515" y="776"/>
      <point x="504" y="776" type="curve" smooth="yes"/>
      <point x="498" y="776"/>
      <point x="493" y="774"/>
      <point x="487" y="772" type="curve" smooth="yes"/>
      <point x="463" y="765"/>
      <point x="439" y="760"/>
      <point x="414" y="755" type="curve" smooth="yes"/>
      <point x="390" y="751"/>
      <point x="366" y="747"/>
      <point x="341" y="744" type="curve" smooth="yes"/>
      <point x="331" y="743"/>
      <point x="320" y="743"/>
      <point x="310" y="741" type="curve" smooth="yes"/>
      <point x="302" y="740"/>
      <point x="299" y="737"/>
      <point x="299" y="728" type="curve" smooth="yes"/>
      <point x="299" y="720"/>
      <point x="305" y="716"/>
      <point x="313" y="716" type="curve" smooth="yes"/>
      <point x="332" y="716"/>
      <point x="351" y="718"/>
      <point x="371" y="718" type="curve" smooth="yes"/>
      <point x="391" y="718"/>
      <point x="391" y="693"/>
      <point x="391" y="678" type="curve" smooth="yes"/>
      <point x="391" y="505" type="line"/>
      <point x="367" y="518"/>
      <point x="333" y="532"/>
      <point x="305" y="532" type="curve" smooth="yes"/>
      <point x="135" y="532"/>
      <point x="41" y="420"/>
      <point x="41" y="254" type="curve" smooth="yes"/>
      <point x="41" y="169"/>
      <point x="77" y="79"/>
      <point x="150" y="30" type="curve" smooth="yes"/>
      <point x="186" y="6"/>
      <point x="235" y="0"/>
      <point x="277" y="0" type="curve" smooth="yes"/>
      <point x="324" y="0"/>
      <point x="372" y="35"/>
      <point x="399" y="72" type="curve"/>
      <point x="416" y="31"/>
      <point x="446" y="-3"/>
      <point x="494" y="-3" type="curve" smooth="yes"/>
      <point x="516" y="-3"/>
      <point x="603" y="17"/>
    </contour>
  </outline>
</glyph>
<glyph name="f" format="2">
  <advance height="1000" width="390"/>
  <unicode hex="0066"/>
  <note>
cid00071
</note>
  <outline>
    <contour>
      <point x="417" y="629" type="curve" smooth="yes"/>
      <point x="417" y="661"/>
      <point x="412" y="695"/>
      <point x="409" y="727" type="curve"/>
      <point x="406" y="726"/>
      <point x="404" y="726"/>
      <point x="401" y="726" type="curve" smooth="yes"/>
      <point x="372" y="726"/>
      <point x="331" y="751"/>
      <point x="292" y="751" type="curve" smooth="yes"/>
      <point x="170" y="751"/>
      <point x="105" y="707"/>
      <point x="105" y="578" type="curve" smooth="yes"/>
      <point x="105" y="503" type="line"/>
      <point x="54" y="503" type="line" smooth="yes"/>
      <point x="42" y="503"/>
      <point x="26" y="509"/>
      <point x="21" y="495" type="curve" smooth="yes"/>
      <point x="19" y="491"/>
      <point x="14" y="472"/>
      <point x="14" y="468" type="curve" smooth="yes"/>
      <point x="14" y="459"/>
      <point x="17" y="454"/>
      <point x="26" y="454" type="curve" smooth="yes"/>
      <point x="35" y="454"/>
      <point x="40" y="469"/>
      <point x="53" y="469" type="curve" smooth="yes"/>
      <point x="105" y="469" type="line"/>
      <point x="105" y="75" type="line" smooth="yes"/>
      <point x="105" y="59"/>
      <point x="104" y="30"/>
      <point x="82" y="30" type="curve" smooth="yes"/>
      <point x="66" y="30"/>
      <point x="50" y="32"/>
      <point x="34" y="31" type="curve" smooth="yes"/>
      <point x="25" y="30"/>
      <point x="20" y="24"/>
      <point x="20" y="14" type="curve" smooth="yes"/>
      <point x="20" y="4"/>
      <point x="27" y="-3"/>
      <point x="37" y="-3" type="curve" smooth="yes"/>
      <point x="77" y="-3"/>
      <point x="117" y="-1"/>
      <point x="157" y="-1" type="curve" smooth="yes"/>
      <point x="204" y="-1"/>
      <point x="251" y="-4"/>
      <point x="299" y="-4" type="curve" smooth="yes"/>
      <point x="308" y="-4"/>
      <point x="320" y="0"/>
      <point x="320" y="12" type="curve" smooth="yes"/>
      <point x="320" y="19"/>
      <point x="312" y="32"/>
      <point x="304" y="32" type="curve" smooth="yes"/>
      <point x="288" y="32"/>
      <point x="271" y="31"/>
      <point x="255" y="31" type="curve" smooth="yes"/>
      <point x="237" y="31"/>
      <point x="235" y="62"/>
      <point x="235" y="75" type="curve" smooth="yes"/>
      <point x="235" y="154"/>
      <point x="234" y="234"/>
      <point x="234" y="313" type="curve" smooth="yes"/>
      <point x="234" y="467" type="line"/>
      <point x="343" y="467" type="line" smooth="yes"/>
      <point x="353" y="467"/>
      <point x="359" y="477"/>
      <point x="359" y="486" type="curve" smooth="yes"/>
      <point x="359" y="495"/>
      <point x="353" y="503"/>
      <point x="343" y="503" type="curve" smooth="yes"/>
      <point x="230" y="503" type="line"/>
      <point x="229" y="548"/>
      <point x="226" y="593"/>
      <point x="226" y="638" type="curve" smooth="yes"/>
      <point x="226" y="675"/>
      <point x="239" y="724"/>
      <point x="285" y="724" type="curve" smooth="yes"/>
      <point x="370" y="724"/>
      <point x="346" y="604"/>
      <point x="390" y="604" type="curve" smooth="yes"/>
      <point x="406" y="604"/>
      <point x="417" y="613"/>
    </contour>
  </outline>
</glyph>
<glyph name="g" format="2">
  <advance height="1000" width="552"/>
  <unicode hex="0067"/>
  <note>
cid00072
</note>
  <outline>
    <contour>
      <point x="380" y="-41" type="curve" smooth="yes"/>
      <point x="380" y="-109"/>
      <point x="344" y="-149"/>
      <point x="275" y="-149" type="curve" smooth="yes"/>
      <point x="203" y="-149"/>
      <point x="154" y="-125"/>
      <point x="154" y="-45" type="curve" smooth="yes"/>
      <point x="154" y="-6"/>
      <point x="161" y="22"/>
      <point x="188" y="53" type="curve"/>
      <point x="263" y="45" type="line" smooth="yes"/>
      <point x="323" y="39"/>
      <point x="380" y="36"/>
    </contour>
    <contour>
      <point x="337" y="375" type="curve" smooth="yes"/>
      <point x="337" y="346" type="line" smooth="yes"/>
      <point x="337" y="299"/>
      <point x="336" y="208"/>
      <point x="270" y="208" type="curve" smooth="yes"/>
      <point x="193" y="208"/>
      <point x="190" y="294"/>
      <point x="190" y="352" type="curve" smooth="yes"/>
      <point x="190" y="408"/>
      <point x="189" y="517"/>
      <point x="270" y="517" type="curve" smooth="yes"/>
      <point x="337" y="517"/>
      <point x="337" y="422"/>
    </contour>
    <contour>
      <point x="535" y="512" type="curve" smooth="yes"/>
      <point x="535" y="524"/>
      <point x="539" y="564"/>
      <point x="522" y="564" type="curve" smooth="yes"/>
      <point x="510" y="564"/>
      <point x="496" y="534"/>
      <point x="466" y="526" type="curve" smooth="yes"/>
      <point x="441" y="519"/>
      <point x="414" y="515"/>
      <point x="389" y="515" type="curve" smooth="yes"/>
      <point x="366" y="515"/>
      <point x="345" y="523"/>
      <point x="324" y="528" type="curve" smooth="yes"/>
      <point x="305" y="532"/>
      <point x="285" y="535"/>
      <point x="266" y="535" type="curve" smooth="yes"/>
      <point x="167" y="535"/>
      <point x="61" y="476"/>
      <point x="61" y="366" type="curve" smooth="yes"/>
      <point x="61" y="295"/>
      <point x="98" y="242"/>
      <point x="159" y="209" type="curve"/>
      <point x="137" y="188"/>
      <point x="72" y="125"/>
      <point x="72" y="95" type="curve" smooth="yes"/>
      <point x="72" y="75"/>
      <point x="106" y="62"/>
      <point x="122" y="58" type="curve"/>
      <point x="84" y="25"/>
      <point x="38" y="-16"/>
      <point x="38" y="-71" type="curve" smooth="yes"/>
      <point x="38" y="-166"/>
      <point x="202" y="-178"/>
      <point x="270" y="-178" type="curve" smooth="yes"/>
      <point x="361" y="-178"/>
      <point x="511" y="-143"/>
      <point x="511" y="-29" type="curve" smooth="yes"/>
      <point x="511" y="-13"/>
      <point x="510" y="-1"/>
      <point x="502" y="13" type="curve" smooth="yes"/>
      <point x="458" y="92"/>
      <point x="357" y="84"/>
      <point x="280" y="88" type="curve" smooth="yes"/>
      <point x="260" y="90"/>
      <point x="236" y="91"/>
      <point x="216" y="98" type="curve" smooth="yes"/>
      <point x="206" y="101"/>
      <point x="193" y="114"/>
      <point x="193" y="125" type="curve" smooth="yes"/>
      <point x="193" y="155"/>
      <point x="207" y="170"/>
      <point x="227" y="188" type="curve"/>
      <point x="242" y="187"/>
      <point x="256" y="187"/>
      <point x="270" y="187" type="curve" smooth="yes"/>
      <point x="366" y="187"/>
      <point x="465" y="250"/>
      <point x="465" y="355" type="curve" smooth="yes"/>
      <point x="465" y="397"/>
      <point x="445" y="459"/>
      <point x="413" y="487" type="curve"/>
      <point x="428" y="485"/>
      <point x="443" y="485"/>
      <point x="458" y="485" type="curve" smooth="yes"/>
      <point x="476" y="485"/>
      <point x="535" y="487"/>
    </contour>
  </outline>
</glyph>
<glyph name="h" format="2">
  <advance height="1000" width="636"/>
  <unicode hex="0068"/>
  <note>
cid00073
</note>
  <outline>
    <contour>
      <point x="615" y="14" type="curve" smooth="yes"/>
      <point x="615" y="22"/>
      <point x="608" y="30"/>
      <point x="599" y="30" type="curve" smooth="yes"/>
      <point x="587" y="30"/>
      <point x="575" y="27"/>
      <point x="563" y="27" type="curve" smooth="yes"/>
      <point x="553" y="27"/>
      <point x="549" y="33"/>
      <point x="549" y="42" type="curve" smooth="yes"/>
      <point x="549" y="359" type="line" smooth="yes"/>
      <point x="549" y="492"/>
      <point x="510" y="538"/>
      <point x="375" y="538" type="curve" smooth="yes"/>
      <point x="322" y="538"/>
      <point x="266" y="505"/>
      <point x="228" y="469" type="curve"/>
      <point x="228" y="759" type="line" smooth="yes"/>
      <point x="228" y="768"/>
      <point x="222" y="772"/>
      <point x="214" y="772" type="curve" smooth="yes"/>
      <point x="208" y="772"/>
      <point x="203" y="771"/>
      <point x="198" y="769" type="curve" smooth="yes"/>
      <point x="144" y="753"/>
      <point x="88" y="749"/>
      <point x="34" y="737" type="curve" smooth="yes"/>
      <point x="27" y="736"/>
      <point x="21" y="732"/>
      <point x="21" y="725" type="curve" smooth="yes"/>
      <point x="21" y="718"/>
      <point x="27" y="710"/>
      <point x="34" y="710" type="curve" smooth="yes"/>
      <point x="51" y="710"/>
      <point x="69" y="714"/>
      <point x="87" y="714" type="curve" smooth="yes"/>
      <point x="106" y="714"/>
      <point x="106" y="688"/>
      <point x="106" y="675" type="curve" smooth="yes"/>
      <point x="106" y="38" type="line" smooth="yes"/>
      <point x="106" y="32"/>
      <point x="100" y="27"/>
      <point x="94" y="27" type="curve" smooth="yes"/>
      <point x="81" y="27"/>
      <point x="69" y="29"/>
      <point x="56" y="29" type="curve" smooth="yes"/>
      <point x="46" y="29"/>
      <point x="39" y="23"/>
      <point x="39" y="13" type="curve" smooth="yes"/>
      <point x="39" y="3"/>
      <point x="45" y="-5"/>
      <point x="55" y="-5" type="curve" smooth="yes"/>
      <point x="80" y="-5"/>
      <point x="105" y="-1"/>
      <point x="131" y="-1" type="curve" smooth="yes"/>
      <point x="184" y="-1" type="line" smooth="yes"/>
      <point x="198" y="-1"/>
      <point x="211" y="-1"/>
      <point x="225" y="-1" type="curve" smooth="yes"/>
      <point x="244" y="-1"/>
      <point x="263" y="-4"/>
      <point x="282" y="-4" type="curve" smooth="yes"/>
      <point x="293" y="-4"/>
      <point x="299" y="2"/>
      <point x="299" y="14" type="curve" smooth="yes"/>
      <point x="299" y="20"/>
      <point x="289" y="30"/>
      <point x="283" y="30" type="curve" smooth="yes"/>
      <point x="270" y="30"/>
      <point x="258" y="27"/>
      <point x="245" y="27" type="curve" smooth="yes"/>
      <point x="237" y="27"/>
      <point x="231" y="29"/>
      <point x="231" y="38" type="curve" smooth="yes"/>
      <point x="231" y="408" type="line"/>
      <point x="248" y="446"/>
      <point x="300" y="504"/>
      <point x="345" y="504" type="curve" smooth="yes"/>
      <point x="377" y="504"/>
      <point x="394" y="496"/>
      <point x="406" y="465" type="curve" smooth="yes"/>
      <point x="419" y="432"/>
      <point x="420" y="384"/>
      <point x="420" y="348" type="curve" smooth="yes"/>
      <point x="420" y="246"/>
      <point x="419" y="144"/>
      <point x="419" y="42" type="curve" smooth="yes"/>
      <point x="419" y="33"/>
      <point x="413" y="26"/>
      <point x="404" y="26" type="curve" smooth="yes"/>
      <point x="391" y="26"/>
      <point x="379" y="28"/>
      <point x="366" y="28" type="curve" smooth="yes"/>
      <point x="355" y="28"/>
      <point x="349" y="22"/>
      <point x="349" y="11" type="curve" smooth="yes"/>
      <point x="349" y="4"/>
      <point x="358" y="-5"/>
      <point x="366" y="-5" type="curve" smooth="yes"/>
      <point x="397" y="-5"/>
      <point x="428" y="0"/>
      <point x="460" y="0" type="curve" smooth="yes"/>
      <point x="487" y="0"/>
      <point x="514" y="1"/>
      <point x="541" y="0" type="curve" smooth="yes"/>
      <point x="560" y="-1"/>
      <point x="579" y="-4"/>
      <point x="598" y="-4" type="curve" smooth="yes"/>
      <point x="609" y="-4"/>
      <point x="615" y="3"/>
    </contour>
  </outline>
</glyph>
<glyph name="j" format="2">
  <advance height="1000" width="380"/>
  <unicode hex="006A"/>
  <note>
cid00075
</note>
  <outline>
    <contour>
      <point x="274" y="60" type="curve" smooth="yes"/>
      <point x="274" y="532" type="line" smooth="yes"/>
      <point x="274" y="541"/>
      <point x="268" y="545"/>
      <point x="260" y="545" type="curve" smooth="yes"/>
      <point x="256" y="545"/>
      <point x="252" y="544"/>
      <point x="249" y="543" type="curve" smooth="yes"/>
      <point x="205" y="532"/>
      <point x="161" y="524"/>
      <point x="117" y="517" type="curve" smooth="yes"/>
      <point x="99" y="514"/>
      <point x="79" y="514"/>
      <point x="63" y="509" type="curve" smooth="yes"/>
      <point x="53" y="506"/>
      <point x="50" y="503"/>
      <point x="50" y="493" type="curve" smooth="yes"/>
      <point x="50" y="483"/>
      <point x="59" y="480"/>
      <point x="67" y="480" type="curve" smooth="yes"/>
      <point x="85" y="480"/>
      <point x="104" y="484"/>
      <point x="122" y="484" type="curve" smooth="yes"/>
      <point x="140" y="484"/>
      <point x="140" y="461"/>
      <point x="140" y="448" type="curve" smooth="yes"/>
      <point x="140" y="285"/>
      <point x="141" y="122"/>
      <point x="141" y="-41" type="curve" smooth="yes"/>
      <point x="141" y="-85"/>
      <point x="129" y="-147"/>
      <point x="73" y="-147" type="curve" smooth="yes"/>
      <point x="37" y="-147"/>
      <point x="26" y="-106"/>
      <point x="23" y="-77" type="curve" smooth="yes"/>
      <point x="21" y="-63"/>
      <point x="22" y="-48"/>
      <point x="3" y="-48" type="curve" smooth="yes"/>
      <point x="-29" y="-48"/>
      <point x="-67" y="-72"/>
      <point x="-67" y="-107" type="curve" smooth="yes"/>
      <point x="-67" y="-121"/>
      <point x="-58" y="-133"/>
      <point x="-49" y="-143" type="curve" smooth="yes"/>
      <point x="-20" y="-176"/>
      <point x="29" y="-185"/>
      <point x="71" y="-185" type="curve" smooth="yes"/>
      <point x="144" y="-185"/>
      <point x="217" y="-150"/>
      <point x="251" y="-83" type="curve" smooth="yes"/>
      <point x="273" y="-39"/>
      <point x="274" y="13"/>
    </contour>
    <contour>
      <point x="276" y="699" type="curve" smooth="yes"/>
      <point x="276" y="741"/>
      <point x="242" y="776"/>
      <point x="199" y="776" type="curve" smooth="yes"/>
      <point x="157" y="776"/>
      <point x="122" y="741"/>
      <point x="122" y="699" type="curve" smooth="yes"/>
      <point x="122" y="657"/>
      <point x="157" y="622"/>
      <point x="199" y="622" type="curve" smooth="yes"/>
      <point x="242" y="622"/>
      <point x="276" y="657"/>
    </contour>
  </outline>
</glyph>
<glyph name="k" format="2">
  <advance height="1000" width="592"/>
  <unicode hex="006B"/>
  <note>
cid00076
</note>
  <outline>
    <contour>
      <point x="595" y="15" type="curve" smooth="yes"/>
      <point x="595" y="22"/>
      <point x="591" y="24"/>
      <point x="585" y="26" type="curve" smooth="yes"/>
      <point x="571" y="30"/>
      <point x="562" y="31"/>
      <point x="550" y="40" type="curve" smooth="yes"/>
      <point x="507" y="73"/>
      <point x="367" y="308"/>
      <point x="335" y="366" type="curve"/>
      <point x="384" y="408"/>
      <point x="432" y="451"/>
      <point x="483" y="490" type="curve" smooth="yes"/>
      <point x="498" y="501"/>
      <point x="522" y="510"/>
      <point x="542" y="510" type="curve" smooth="yes"/>
      <point x="553" y="510"/>
      <point x="564" y="510"/>
      <point x="564" y="525" type="curve" smooth="yes"/>
      <point x="564" y="535"/>
      <point x="558" y="538"/>
      <point x="549" y="538" type="curve" smooth="yes"/>
      <point x="515" y="538"/>
      <point x="480" y="539"/>
      <point x="446" y="539" type="curve" smooth="yes"/>
      <point x="419" y="539"/>
      <point x="430" y="515"/>
      <point x="415" y="493" type="curve" smooth="yes"/>
      <point x="399" y="470"/>
      <point x="376" y="450"/>
      <point x="356" y="430" type="curve" smooth="yes"/>
      <point x="313" y="388"/>
      <point x="264" y="353"/>
      <point x="217" y="317" type="curve"/>
      <point x="217" y="465"/>
      <point x="219" y="614"/>
      <point x="219" y="763" type="curve" smooth="yes"/>
      <point x="219" y="772"/>
      <point x="212" y="776"/>
      <point x="204" y="776" type="curve" smooth="yes"/>
      <point x="200" y="776"/>
      <point x="197" y="775"/>
      <point x="193" y="774" type="curve" smooth="yes"/>
      <point x="156" y="765"/>
      <point x="119" y="755"/>
      <point x="82" y="748" type="curve" smooth="yes"/>
      <point x="66" y="745"/>
      <point x="48" y="745"/>
      <point x="32" y="741" type="curve" smooth="yes"/>
      <point x="24" y="739"/>
      <point x="21" y="737"/>
      <point x="21" y="728" type="curve" smooth="yes"/>
      <point x="21" y="717"/>
      <point x="27" y="714"/>
      <point x="37" y="714" type="curve" smooth="yes"/>
      <point x="50" y="714"/>
      <point x="63" y="716"/>
      <point x="76" y="716" type="curve" smooth="yes"/>
      <point x="96" y="716"/>
      <point x="96" y="693"/>
      <point x="97" y="679" type="curve" smooth="yes"/>
      <point x="98" y="650"/>
      <point x="99" y="622"/>
      <point x="99" y="593" type="curve" smooth="yes"/>
      <point x="99" y="108" type="line" smooth="yes"/>
      <point x="99" y="90"/>
      <point x="98" y="71"/>
      <point x="97" y="53" type="curve" smooth="yes"/>
      <point x="97" y="40"/>
      <point x="97" y="27"/>
      <point x="81" y="27" type="curve" smooth="yes"/>
      <point x="68" y="27"/>
      <point x="56" y="28"/>
      <point x="43" y="28" type="curve" smooth="yes"/>
      <point x="34" y="28"/>
      <point x="27" y="22"/>
      <point x="27" y="13" type="curve" smooth="yes"/>
      <point x="27" y="5"/>
      <point x="32" y="-4"/>
      <point x="40" y="-4" type="curve" smooth="yes"/>
      <point x="79" y="-4"/>
      <point x="117" y="1"/>
      <point x="156" y="1" type="curve" smooth="yes"/>
      <point x="194" y="1"/>
      <point x="232" y="-3"/>
      <point x="271" y="-3" type="curve" smooth="yes"/>
      <point x="281" y="-3"/>
      <point x="287" y="3"/>
      <point x="287" y="13" type="curve" smooth="yes"/>
      <point x="287" y="22"/>
      <point x="282" y="29"/>
      <point x="273" y="29" type="curve" smooth="yes"/>
      <point x="243" y="29"/>
      <point x="218" y="17"/>
      <point x="218" y="54" type="curve" smooth="yes"/>
      <point x="218" y="284" type="line"/>
      <point x="243" y="301" type="line"/>
      <point x="290" y="213"/>
      <point x="342" y="128"/>
      <point x="391" y="42" type="curve" smooth="yes"/>
      <point x="400" y="26"/>
      <point x="411" y="9"/>
      <point x="429" y="4" type="curve" smooth="yes"/>
      <point x="445" y="-2"/>
      <point x="465" y="-2"/>
      <point x="483" y="-2" type="curve" smooth="yes"/>
      <point x="514" y="-2"/>
      <point x="546" y="-2"/>
      <point x="578" y="1" type="curve" smooth="yes"/>
      <point x="586" y="2"/>
      <point x="595" y="4"/>
    </contour>
  </outline>
</glyph>
<glyph name="l" format="2">
  <advance height="1000" width="346"/>
  <unicode hex="006C"/>
  <note>
cid00077
</note>
  <outline>
    <contour>
      <point x="319" y="13" type="curve" smooth="yes"/>
      <point x="319" y="22"/>
      <point x="314" y="29"/>
      <point x="305" y="29" type="curve" smooth="yes"/>
      <point x="282" y="29"/>
      <point x="246" y="18"/>
      <point x="246" y="53" type="curve" smooth="yes"/>
      <point x="246" y="288"/>
      <point x="248" y="524"/>
      <point x="248" y="759" type="curve" smooth="yes"/>
      <point x="248" y="769"/>
      <point x="239" y="772"/>
      <point x="231" y="772" type="curve" smooth="yes"/>
      <point x="227" y="772"/>
      <point x="223" y="771"/>
      <point x="219" y="770" type="curve" smooth="yes"/>
      <point x="180" y="760"/>
      <point x="141" y="750"/>
      <point x="101" y="741" type="curve" smooth="yes"/>
      <point x="83" y="737"/>
      <point x="63" y="735"/>
      <point x="46" y="730" type="curve" smooth="yes"/>
      <point x="38" y="727"/>
      <point x="33" y="722"/>
      <point x="33" y="714" type="curve" smooth="yes"/>
      <point x="33" y="704"/>
      <point x="38" y="698"/>
      <point x="48" y="698" type="curve" smooth="yes"/>
      <point x="64" y="698"/>
      <point x="79" y="705"/>
      <point x="95" y="705" type="curve" smooth="yes"/>
      <point x="117" y="705"/>
      <point x="116" y="676"/>
      <point x="116" y="661" type="curve" smooth="yes"/>
      <point x="116" y="485"/>
      <point x="116" y="310"/>
      <point x="116" y="134" type="curve" smooth="yes"/>
      <point x="116" y="53" type="line" smooth="yes"/>
      <point x="116" y="38"/>
      <point x="109" y="29"/>
      <point x="94" y="29" type="curve" smooth="yes"/>
      <point x="79" y="29"/>
      <point x="39" y="36"/>
      <point x="39" y="14" type="curve" smooth="yes"/>
      <point x="39" y="6"/>
      <point x="43" y="-3"/>
      <point x="52" y="-3" type="curve" smooth="yes"/>
      <point x="95" y="-3"/>
      <point x="138" y="2"/>
      <point x="181" y="2" type="curve" smooth="yes"/>
      <point x="222" y="2"/>
      <point x="262" y="-3"/>
      <point x="303" y="-3" type="curve" smooth="yes"/>
      <point x="313" y="-3"/>
      <point x="319" y="3"/>
    </contour>
  </outline>
</glyph>
<glyph name="m" format="2">
  <advance height="1000" width="920"/>
  <unicode hex="006D"/>
  <note>
cid00078
</note>
  <outline>
    <contour>
      <point x="905" y="12" type="curve" smooth="yes"/>
      <point x="905" y="21"/>
      <point x="899" y="27"/>
      <point x="890" y="27" type="curve" smooth="yes"/>
      <point x="868" y="27"/>
      <point x="837" y="18"/>
      <point x="837" y="51" type="curve" smooth="yes"/>
      <point x="837" y="154"/>
      <point x="837" y="256"/>
      <point x="837" y="359" type="curve" smooth="yes"/>
      <point x="837" y="486"/>
      <point x="814" y="540"/>
      <point x="677" y="540" type="curve" smooth="yes"/>
      <point x="615" y="540"/>
      <point x="566" y="514"/>
      <point x="520" y="473" type="curve"/>
      <point x="494" y="518"/>
      <point x="440" y="537"/>
      <point x="390" y="537" type="curve" smooth="yes"/>
      <point x="327" y="537"/>
      <point x="283" y="516"/>
      <point x="235" y="476" type="curve"/>
      <point x="230" y="493"/>
      <point x="227" y="514"/>
      <point x="218" y="529" type="curve" smooth="yes"/>
      <point x="214" y="537"/>
      <point x="210" y="540"/>
      <point x="201" y="540" type="curve" smooth="yes"/>
      <point x="185" y="540"/>
      <point x="115" y="519"/>
      <point x="92" y="514" type="curve" smooth="yes"/>
      <point x="75" y="511"/>
      <point x="55" y="511"/>
      <point x="38" y="506" type="curve" smooth="yes"/>
      <point x="32" y="504"/>
      <point x="25" y="501"/>
      <point x="25" y="492" type="curve" smooth="yes"/>
      <point x="25" y="482"/>
      <point x="34" y="478"/>
      <point x="42" y="478" type="curve" smooth="yes"/>
      <point x="57" y="478"/>
      <point x="72" y="481"/>
      <point x="87" y="481" type="curve" smooth="yes"/>
      <point x="108" y="481"/>
      <point x="109" y="459"/>
      <point x="109" y="444" type="curve" smooth="yes"/>
      <point x="109" y="317"/>
      <point x="109" y="191"/>
      <point x="109" y="64" type="curve" smooth="yes"/>
      <point x="109" y="51"/>
      <point x="108" y="26"/>
      <point x="90" y="26" type="curve" smooth="yes"/>
      <point x="78" y="26"/>
      <point x="67" y="27"/>
      <point x="56" y="27" type="curve" smooth="yes"/>
      <point x="46" y="27"/>
      <point x="39" y="22"/>
      <point x="39" y="12" type="curve" smooth="yes"/>
      <point x="39" y="5"/>
      <point x="44" y="-4"/>
      <point x="53" y="-4" type="curve" smooth="yes"/>
      <point x="93" y="-4"/>
      <point x="132" y="0"/>
      <point x="172" y="0" type="curve" smooth="yes"/>
      <point x="211" y="0"/>
      <point x="248" y="-4"/>
      <point x="287" y="-4" type="curve" smooth="yes"/>
      <point x="297" y="-4"/>
      <point x="303" y="1"/>
      <point x="303" y="12" type="curve" smooth="yes"/>
      <point x="303" y="21"/>
      <point x="298" y="27"/>
      <point x="289" y="27" type="curve" smooth="yes"/>
      <point x="280" y="27"/>
      <point x="270" y="25"/>
      <point x="261" y="25" type="curve" smooth="yes"/>
      <point x="244" y="25"/>
      <point x="239" y="35"/>
      <point x="239" y="51" type="curve" smooth="yes"/>
      <point x="239" y="179"/>
      <point x="239" y="307"/>
      <point x="239" y="435" type="curve"/>
      <point x="257" y="455"/>
      <point x="306" y="502"/>
      <point x="333" y="502" type="curve" smooth="yes"/>
      <point x="365" y="502"/>
      <point x="382" y="496"/>
      <point x="395" y="465" type="curve" smooth="yes"/>
      <point x="409" y="432"/>
      <point x="409" y="384"/>
      <point x="409" y="348" type="curve" smooth="yes"/>
      <point x="409" y="249"/>
      <point x="410" y="150"/>
      <point x="410" y="51" type="curve" smooth="yes"/>
      <point x="410" y="35"/>
      <point x="408" y="26"/>
      <point x="390" y="26" type="curve" smooth="yes"/>
      <point x="377" y="26"/>
      <point x="343" y="33"/>
      <point x="343" y="12" type="curve" smooth="yes"/>
      <point x="343" y="5"/>
      <point x="347" y="-4"/>
      <point x="356" y="-4" type="curve" smooth="yes"/>
      <point x="395" y="-4"/>
      <point x="433" y="1"/>
      <point x="472" y="1" type="curve" smooth="yes"/>
      <point x="510" y="1"/>
      <point x="548" y="-4"/>
      <point x="586" y="-4" type="curve" smooth="yes"/>
      <point x="596" y="-4"/>
      <point x="603" y="1"/>
      <point x="603" y="12" type="curve" smooth="yes"/>
      <point x="603" y="21"/>
      <point x="597" y="27"/>
      <point x="588" y="27" type="curve" smooth="yes"/>
      <point x="579" y="27"/>
      <point x="570" y="25"/>
      <point x="561" y="25" type="curve" smooth="yes"/>
      <point x="544" y="25"/>
      <point x="539" y="35"/>
      <point x="539" y="51" type="curve" smooth="yes"/>
      <point x="539" y="154"/>
      <point x="539" y="256"/>
      <point x="539" y="359" type="curve" smooth="yes"/>
      <point x="539" y="386"/>
      <point x="539" y="413"/>
      <point x="534" y="440" type="curve"/>
      <point x="557" y="467"/>
      <point x="597" y="504"/>
      <point x="635" y="504" type="curve" smooth="yes"/>
      <point x="666" y="504"/>
      <point x="682" y="494"/>
      <point x="694" y="465" type="curve" smooth="yes"/>
      <point x="708" y="432"/>
      <point x="708" y="384"/>
      <point x="708" y="348" type="curve" smooth="yes"/>
      <point x="708" y="51" type="line" smooth="yes"/>
      <point x="708" y="38"/>
      <point x="708" y="26"/>
      <point x="692" y="26" type="curve" smooth="yes"/>
      <point x="681" y="26"/>
      <point x="670" y="27"/>
      <point x="659" y="27" type="curve" smooth="yes"/>
      <point x="649" y="27"/>
      <point x="641" y="23"/>
      <point x="641" y="12" type="curve" smooth="yes"/>
      <point x="641" y="5"/>
      <point x="646" y="-4"/>
      <point x="654" y="-4" type="curve" smooth="yes"/>
      <point x="694" y="-4"/>
      <point x="733" y="1"/>
      <point x="772" y="1" type="curve" smooth="yes"/>
      <point x="811" y="1"/>
      <point x="849" y="-4"/>
      <point x="888" y="-4" type="curve" smooth="yes"/>
      <point x="898" y="-4"/>
      <point x="905" y="1"/>
    </contour>
  </outline>
</glyph>
<glyph name="n" format="2">
  <advance height="1000" width="632"/>
  <unicode hex="006E"/>
  <note>
cid00079
</note>
  <outline>
    <contour>
      <point x="609" y="14" type="curve" smooth="yes"/>
      <point x="609" y="23"/>
      <point x="604" y="30"/>
      <point x="595" y="30" type="curve" smooth="yes"/>
      <point x="586" y="30"/>
      <point x="577" y="28"/>
      <point x="568" y="28" type="curve" smooth="yes"/>
      <point x="555" y="28"/>
      <point x="545" y="33"/>
      <point x="545" y="47" type="curve" smooth="yes"/>
      <point x="545" y="151"/>
      <point x="547" y="255"/>
      <point x="547" y="359" type="curve" smooth="yes"/>
      <point x="547" y="491"/>
      <point x="506" y="538"/>
      <point x="373" y="538" type="curve" smooth="yes"/>
      <point x="320" y="538"/>
      <point x="261" y="505"/>
      <point x="222" y="471" type="curve"/>
      <point x="219" y="484"/>
      <point x="206" y="542"/>
      <point x="191" y="542" type="curve" smooth="yes"/>
      <point x="185" y="542"/>
      <point x="180" y="539"/>
      <point x="175" y="537" type="curve" smooth="yes"/>
      <point x="142" y="527"/>
      <point x="107" y="518"/>
      <point x="73" y="512" type="curve" smooth="yes"/>
      <point x="60" y="509"/>
      <point x="44" y="509"/>
      <point x="31" y="505" type="curve" smooth="yes"/>
      <point x="24" y="503"/>
      <point x="18" y="500"/>
      <point x="18" y="492" type="curve" smooth="yes"/>
      <point x="18" y="481"/>
      <point x="31" y="479"/>
      <point x="39" y="479" type="curve" smooth="yes"/>
      <point x="52" y="479"/>
      <point x="65" y="481"/>
      <point x="78" y="481" type="curve" smooth="yes"/>
      <point x="98" y="481"/>
      <point x="99" y="458"/>
      <point x="99" y="443" type="curve" smooth="yes"/>
      <point x="99" y="362"/>
      <point x="99" y="280"/>
      <point x="99" y="199" type="curve" smooth="yes"/>
      <point x="99" y="54" type="line" smooth="yes"/>
      <point x="99" y="37"/>
      <point x="99" y="29"/>
      <point x="81" y="29" type="curve" smooth="yes"/>
      <point x="68" y="29"/>
      <point x="56" y="30"/>
      <point x="44" y="30" type="curve" smooth="yes"/>
      <point x="35" y="30"/>
      <point x="28" y="25"/>
      <point x="28" y="15" type="curve" smooth="yes"/>
      <point x="28" y="7"/>
      <point x="32" y="-2"/>
      <point x="41" y="-2" type="curve" smooth="yes"/>
      <point x="82" y="-2"/>
      <point x="123" y="3"/>
      <point x="163" y="3" type="curve" smooth="yes"/>
      <point x="201" y="3"/>
      <point x="238" y="-2"/>
      <point x="275" y="-2" type="curve" smooth="yes"/>
      <point x="286" y="-2"/>
      <point x="291" y="6"/>
      <point x="291" y="17" type="curve" smooth="yes"/>
      <point x="291" y="24"/>
      <point x="283" y="30"/>
      <point x="276" y="30" type="curve" smooth="yes"/>
      <point x="265" y="30"/>
      <point x="254" y="29"/>
      <point x="243" y="29" type="curve" smooth="yes"/>
      <point x="228" y="29"/>
      <point x="227" y="42"/>
      <point x="227" y="54" type="curve" smooth="yes"/>
      <point x="227" y="408" type="line"/>
      <point x="243" y="446"/>
      <point x="296" y="503"/>
      <point x="341" y="503" type="curve" smooth="yes"/>
      <point x="410" y="503"/>
      <point x="416" y="431"/>
      <point x="416" y="378" type="curve" smooth="yes"/>
      <point x="416" y="266"/>
      <point x="415" y="154"/>
      <point x="415" y="42" type="curve" smooth="yes"/>
      <point x="415" y="33"/>
      <point x="409" y="29"/>
      <point x="400" y="29" type="curve" smooth="yes"/>
      <point x="388" y="29"/>
      <point x="376" y="30"/>
      <point x="364" y="30" type="curve" smooth="yes"/>
      <point x="355" y="30"/>
      <point x="348" y="24"/>
      <point x="348" y="15" type="curve" smooth="yes"/>
      <point x="348" y="7"/>
      <point x="352" y="-2"/>
      <point x="361" y="-2" type="curve" smooth="yes"/>
      <point x="399" y="-2"/>
      <point x="438" y="1"/>
      <point x="476" y="1" type="curve" smooth="yes"/>
      <point x="515" y="1"/>
      <point x="554" y="-2"/>
      <point x="593" y="-2" type="curve" smooth="yes"/>
      <point x="603" y="-2"/>
      <point x="609" y="4"/>
    </contour>
  </outline>
</glyph>
<glyph name="p" format="2">
  <advance height="1000" width="608"/>
  <unicode hex="0070"/>
  <note>
cid00081
</note>
  <outline>
    <contour>
      <point x="435" y="266" type="curve" smooth="yes"/>
      <point x="435" y="182"/>
      <point x="435" y="31"/>
      <point x="317" y="31" type="curve" smooth="yes"/>
      <point x="256" y="31"/>
      <point x="228" y="105"/>
      <point x="228" y="156" type="curve" smooth="yes"/>
      <point x="228" y="417" type="line"/>
      <point x="249" y="463"/>
      <point x="282" y="498"/>
      <point x="335" y="498" type="curve" smooth="yes"/>
      <point x="436" y="498"/>
      <point x="435" y="336"/>
    </contour>
    <contour>
      <point x="572" y="280" type="curve" smooth="yes"/>
      <point x="572" y="403"/>
      <point x="489" y="533"/>
      <point x="354" y="533" type="curve" smooth="yes"/>
      <point x="324" y="533"/>
      <point x="248" y="502"/>
      <point x="220" y="487" type="curve"/>
      <point x="216" y="498"/>
      <point x="207" y="545"/>
      <point x="193" y="545" type="curve" smooth="yes"/>
      <point x="187" y="545"/>
      <point x="182" y="542"/>
      <point x="177" y="540" type="curve" smooth="yes"/>
      <point x="145" y="530"/>
      <point x="112" y="522"/>
      <point x="79" y="516" type="curve" smooth="yes"/>
      <point x="64" y="513"/>
      <point x="47" y="513"/>
      <point x="33" y="508" type="curve" smooth="yes"/>
      <point x="26" y="506"/>
      <point x="20" y="503"/>
      <point x="20" y="495" type="curve" smooth="yes"/>
      <point x="20" y="484"/>
      <point x="33" y="482"/>
      <point x="41" y="482" type="curve" smooth="yes"/>
      <point x="54" y="482"/>
      <point x="67" y="484"/>
      <point x="80" y="484" type="curve" smooth="yes"/>
      <point x="100" y="484"/>
      <point x="101" y="461"/>
      <point x="101" y="447" type="curve" smooth="yes"/>
      <point x="101" y="252"/>
      <point x="100" y="57"/>
      <point x="100" y="-138" type="curve" smooth="yes"/>
      <point x="100" y="-152"/>
      <point x="94" y="-163"/>
      <point x="79" y="-163" type="curve" smooth="yes"/>
      <point x="69" y="-163"/>
      <point x="59" y="-162"/>
      <point x="48" y="-162" type="curve" smooth="yes"/>
      <point x="39" y="-162"/>
      <point x="33" y="-167"/>
      <point x="33" y="-177" type="curve" smooth="yes"/>
      <point x="33" y="-184"/>
      <point x="37" y="-193"/>
      <point x="46" y="-193" type="curve" smooth="yes"/>
      <point x="85" y="-193"/>
      <point x="125" y="-189"/>
      <point x="164" y="-189" type="curve" smooth="yes"/>
      <point x="202" y="-189"/>
      <point x="239" y="-193"/>
      <point x="277" y="-193" type="curve" smooth="yes"/>
      <point x="287" y="-193"/>
      <point x="292" y="-188"/>
      <point x="292" y="-177" type="curve" smooth="yes"/>
      <point x="292" y="-169"/>
      <point x="288" y="-162"/>
      <point x="278" y="-162" type="curve" smooth="yes"/>
      <point x="267" y="-162"/>
      <point x="256" y="-163"/>
      <point x="245" y="-163" type="curve" smooth="yes"/>
      <point x="230" y="-163"/>
      <point x="227" y="-148"/>
      <point x="227" y="-136" type="curve" smooth="yes"/>
      <point x="227" y="-55" type="line" smooth="yes"/>
      <point x="226" y="-25"/>
      <point x="227" y="5"/>
      <point x="227" y="35" type="curve"/>
      <point x="251" y="20"/>
      <point x="291" y="3"/>
      <point x="320" y="3" type="curve" smooth="yes"/>
      <point x="492" y="3"/>
      <point x="572" y="117"/>
    </contour>
  </outline>
</glyph>
<glyph name="q" format="2">
  <advance height="1000" width="608"/>
  <unicode hex="0071"/>
  <note>
cid00082
</note>
  <outline>
    <contour>
      <point x="400" y="367" type="curve" smooth="yes"/>
      <point x="400" y="295"/>
      <point x="399" y="223"/>
      <point x="399" y="152" type="curve" smooth="yes"/>
      <point x="399" y="97"/>
      <point x="352" y="36"/>
      <point x="294" y="36" type="curve" smooth="yes"/>
      <point x="202" y="36"/>
      <point x="170" y="190"/>
      <point x="170" y="261" type="curve" smooth="yes"/>
      <point x="170" y="339"/>
      <point x="193" y="509"/>
      <point x="299" y="509" type="curve" smooth="yes"/>
      <point x="373" y="509"/>
      <point x="400" y="429"/>
    </contour>
    <contour>
      <point x="591" y="-177" type="curve" smooth="yes"/>
      <point x="591" y="-168"/>
      <point x="586" y="-162"/>
      <point x="577" y="-162" type="curve" smooth="yes"/>
      <point x="568" y="-162"/>
      <point x="559" y="-163"/>
      <point x="550" y="-163" type="curve" smooth="yes"/>
      <point x="538" y="-163"/>
      <point x="527" y="-158"/>
      <point x="527" y="-144" type="curve" smooth="yes"/>
      <point x="528" y="459" type="line"/>
      <point x="528" y="520" type="line" smooth="yes"/>
      <point x="528" y="530"/>
      <point x="520" y="534"/>
      <point x="511" y="534" type="curve" smooth="yes"/>
      <point x="497" y="534"/>
      <point x="445" y="493"/>
      <point x="432" y="482" type="curve"/>
      <point x="408" y="511"/>
      <point x="348" y="533"/>
      <point x="311" y="533" type="curve" smooth="yes"/>
      <point x="140" y="533"/>
      <point x="39" y="422"/>
      <point x="39" y="254" type="curve" smooth="yes"/>
      <point x="39" y="170"/>
      <point x="74" y="82"/>
      <point x="145" y="33" type="curve" smooth="yes"/>
      <point x="178" y="10"/>
      <point x="236" y="3"/>
      <point x="276" y="3" type="curve" smooth="yes"/>
      <point x="323" y="3"/>
      <point x="371" y="19"/>
      <point x="400" y="58" type="curve"/>
      <point x="400" y="-138" type="line" smooth="yes"/>
      <point x="400" y="-151"/>
      <point x="395" y="-163"/>
      <point x="380" y="-163" type="curve" smooth="yes"/>
      <point x="370" y="-163"/>
      <point x="359" y="-161"/>
      <point x="349" y="-161" type="curve" smooth="yes"/>
      <point x="339" y="-161"/>
      <point x="333" y="-167"/>
      <point x="333" y="-177" type="curve" smooth="yes"/>
      <point x="333" y="-184"/>
      <point x="337" y="-193"/>
      <point x="346" y="-193" type="curve" smooth="yes"/>
      <point x="385" y="-193"/>
      <point x="425" y="-188"/>
      <point x="464" y="-188" type="curve" smooth="yes"/>
      <point x="501" y="-188"/>
      <point x="538" y="-193"/>
      <point x="575" y="-193" type="curve" smooth="yes"/>
      <point x="585" y="-193"/>
      <point x="591" y="-187"/>
    </contour>
  </outline>
</glyph>
<glyph name="r" format="2">
  <advance height="1000" width="444"/>
  <unicode hex="0072"/>
  <note>
cid00083
</note>
  <outline>
    <contour>
      <point x="443" y="419" type="curve" smooth="yes"/>
      <point x="443" y="446"/>
      <point x="439" y="492"/>
      <point x="432" y="517" type="curve" smooth="yes"/>
      <point x="427" y="538"/>
      <point x="401" y="544"/>
      <point x="383" y="544" type="curve" smooth="yes"/>
      <point x="311" y="544"/>
      <point x="263" y="493"/>
      <point x="222" y="441" type="curve"/>
      <point x="221" y="456"/>
      <point x="215" y="519"/>
      <point x="209" y="529" type="curve" smooth="yes"/>
      <point x="203" y="538"/>
      <point x="197" y="540"/>
      <point x="187" y="540" type="curve" smooth="yes"/>
      <point x="165" y="540"/>
      <point x="106" y="522"/>
      <point x="80" y="517" type="curve" smooth="yes"/>
      <point x="61" y="513"/>
      <point x="40" y="512"/>
      <point x="22" y="506" type="curve" smooth="yes"/>
      <point x="14" y="503"/>
      <point x="11" y="499"/>
      <point x="11" y="491" type="curve" smooth="yes"/>
      <point x="11" y="481"/>
      <point x="17" y="476"/>
      <point x="26" y="476" type="curve" smooth="yes"/>
      <point x="40" y="476"/>
      <point x="53" y="481"/>
      <point x="66" y="481" type="curve" smooth="yes"/>
      <point x="95" y="481"/>
      <point x="98" y="437"/>
      <point x="98" y="416" type="curve" smooth="yes"/>
      <point x="98" y="391"/>
      <point x="98" y="365"/>
      <point x="98" y="340" type="curve" smooth="yes"/>
      <point x="98" y="245"/>
      <point x="98" y="149"/>
      <point x="98" y="54" type="curve" smooth="yes"/>
      <point x="98" y="40"/>
      <point x="94" y="28"/>
      <point x="78" y="28" type="curve" smooth="yes"/>
      <point x="65" y="28"/>
      <point x="52" y="29"/>
      <point x="39" y="29" type="curve" smooth="yes"/>
      <point x="29" y="29"/>
      <point x="23" y="24"/>
      <point x="23" y="14" type="curve" smooth="yes"/>
      <point x="23" y="7"/>
      <point x="27" y="-2"/>
      <point x="36" y="-2" type="curve" smooth="yes"/>
      <point x="78" y="-2"/>
      <point x="119" y="1"/>
      <point x="161" y="1" type="curve" smooth="yes"/>
      <point x="201" y="1"/>
      <point x="241" y="-1"/>
      <point x="281" y="-1" type="curve" smooth="yes"/>
      <point x="291" y="-1"/>
      <point x="297" y="5"/>
      <point x="297" y="15" type="curve" smooth="yes"/>
      <point x="297" y="23"/>
      <point x="292" y="30"/>
      <point x="283" y="30" type="curve" smooth="yes"/>
      <point x="260" y="30"/>
      <point x="226" y="19"/>
      <point x="226" y="54" type="curve" smooth="yes"/>
      <point x="226" y="177" type="line" smooth="yes"/>
      <point x="226" y="226"/>
      <point x="226" y="275"/>
      <point x="226" y="325" type="curve" smooth="yes"/>
      <point x="226" y="324" type="line" smooth="yes"/>
      <point x="234" y="376"/>
      <point x="260" y="436"/>
      <point x="303" y="466" type="curve" smooth="yes"/>
      <point x="313" y="474"/>
      <point x="326" y="480"/>
      <point x="339" y="480" type="curve" smooth="yes"/>
      <point x="377" y="480"/>
      <point x="386" y="432"/>
      <point x="398" y="406" type="curve" smooth="yes"/>
      <point x="402" y="396"/>
      <point x="410" y="392"/>
      <point x="421" y="392" type="curve" smooth="yes"/>
      <point x="435" y="392"/>
      <point x="443" y="406"/>
    </contour>
  </outline>
</glyph>
<glyph name="t" format="2">
  <advance height="1000" width="372"/>
  <unicode hex="0074"/>
  <note>
cid00085
</note>
  <outline>
    <contour>
      <point x="371" y="48" type="curve" smooth="yes"/>
      <point x="371" y="55"/>
      <point x="366" y="58"/>
      <point x="359" y="58" type="curve" smooth="yes"/>
      <point x="352" y="58"/>
      <point x="346" y="53"/>
      <point x="340" y="51" type="curve"/>
      <point x="320" y="41"/>
      <point x="296" y="38"/>
      <point x="273" y="38" type="curve" smooth="yes"/>
      <point x="248" y="38"/>
      <point x="241" y="62"/>
      <point x="241" y="83" type="curve" smooth="yes"/>
      <point x="243" y="469" type="line"/>
      <point x="346" y="469" type="line" smooth="yes"/>
      <point x="360" y="469"/>
      <point x="367" y="474"/>
      <point x="367" y="488" type="curve" smooth="yes"/>
      <point x="367" y="500"/>
      <point x="356" y="504"/>
      <point x="346" y="504" type="curve" smooth="yes"/>
      <point x="243" y="504" type="line"/>
      <point x="246" y="704" type="line"/>
      <point x="247" y="714"/>
      <point x="240" y="718"/>
      <point x="231" y="718" type="curve" smooth="yes"/>
      <point x="222" y="718"/>
      <point x="215" y="709"/>
      <point x="211" y="702" type="curve" smooth="yes"/>
      <point x="189" y="671"/>
      <point x="143" y="629"/>
      <point x="110" y="611" type="curve"/>
      <point x="110" y="504" type="line"/>
      <point x="48" y="504" type="line" smooth="yes"/>
      <point x="40" y="504"/>
      <point x="37" y="504"/>
      <point x="33" y="496" type="curve"/>
      <point x="30" y="492"/>
      <point x="23" y="472"/>
      <point x="23" y="467" type="curve" smooth="yes"/>
      <point x="23" y="461"/>
      <point x="26" y="457"/>
      <point x="33" y="457" type="curve" smooth="yes"/>
      <point x="41" y="457"/>
      <point x="50" y="470"/>
      <point x="63" y="470" type="curve" smooth="yes"/>
      <point x="109" y="470" type="line"/>
      <point x="109" y="355"/>
      <point x="107" y="241"/>
      <point x="107" y="126" type="curve" smooth="yes"/>
      <point x="107" y="31"/>
      <point x="140" y="-6"/>
      <point x="240" y="-6" type="curve" smooth="yes"/>
      <point x="281" y="-6"/>
      <point x="371" y="10"/>
    </contour>
  </outline>
</glyph>
